M48
;GenerationSoftware,Autodesk,EAGLE,9.5.1*%
;CreationDate,2020-03-24T07:58:52Z*%
FMAT,2
ICI,OFF
METRIC,TZ,000.000
T4C0.350
T3C0.950
T2C1.020
T1C2.300
%
G90
M71
T1
X40564Y29464
X28524Y29464
T2
X44640Y31877
X47180Y31877
T3
X35794Y34174
X33294Y34174
X33294Y32174
X35794Y32174
T4
X36813Y28448
X26702Y38545
X25432Y46101
X40640Y46863
X30967Y45136
X22288Y30734
X31623Y22098
X24257Y35497
X37846Y26162
X23177Y34671
X41021Y34719
X32702Y46863
X36614Y46164
X47387Y34496
X44069Y43878
X40536Y39820
X26700Y37435
X37005Y34925
X34544Y30813
X44259Y29083
X39583Y36513
X38569Y37590
X21400Y38799
X29464Y46164
X30162Y47752
X36068Y27305
X27178Y23622
X40665Y47981
X22098Y34671
X38862Y26162
X20574Y34671
X34417Y37084
X35382Y40970
X47085Y38799
X36322Y42799
X34417Y42799
X36322Y39243
X34417Y39243
X41720Y22987
X32639Y22098
M30