G04 EAGLE Gerber RS-274X export*
G75*
%MOMM*%
%FSLAX34Y34*%
%LPD*%
%INBottom Copper*%
%IPPOS*%
%AMOC8*
5,1,8,0,0,1.08239X$1,22.5*%
G01*
%ADD10R,1.000000X1.100000*%
%ADD11R,1.500000X1.300000*%
%ADD12C,0.124994*%
%ADD13R,5.699988X5.699988*%
%ADD14R,1.399997X0.400000*%
%ADD15R,1.100000X1.000000*%
%ADD16C,0.499997*%
%ADD17C,1.000000*%
%ADD18R,1.530000X1.530000*%
%ADD19C,1.530000*%
%ADD20C,0.262500*%
%ADD21R,2.150000X2.150000*%
%ADD22P,1.578125X8X22.500000*%
%ADD23C,3.316000*%
%ADD24C,0.756400*%
%ADD25C,0.254000*%
%ADD26C,0.355600*%
%ADD27C,0.304800*%

G36*
X278630Y195708D02*
X278630Y195708D01*
X278658Y195706D01*
X278726Y195728D01*
X278797Y195742D01*
X278820Y195758D01*
X278847Y195767D01*
X278902Y195814D01*
X278961Y195855D01*
X278976Y195879D01*
X278998Y195897D01*
X279029Y195962D01*
X279068Y196022D01*
X279073Y196050D01*
X279085Y196076D01*
X279094Y196177D01*
X279101Y196219D01*
X279099Y196229D01*
X279100Y196242D01*
X278982Y197719D01*
X413422Y197719D01*
X413304Y196242D01*
X413308Y196213D01*
X413303Y196185D01*
X413320Y196116D01*
X413328Y196044D01*
X413343Y196020D01*
X413349Y195992D01*
X413392Y195934D01*
X413428Y195872D01*
X413450Y195855D01*
X413467Y195832D01*
X413529Y195795D01*
X413586Y195752D01*
X413614Y195745D01*
X413638Y195730D01*
X413738Y195714D01*
X413779Y195703D01*
X413789Y195705D01*
X413802Y195703D01*
X432802Y195703D01*
X432878Y195718D01*
X432956Y195727D01*
X432975Y195738D01*
X432997Y195742D01*
X433061Y195786D01*
X433129Y195825D01*
X433145Y195844D01*
X433161Y195855D01*
X433185Y195893D01*
X433235Y195953D01*
X442735Y212453D01*
X442744Y212480D01*
X442760Y212504D01*
X442775Y212574D01*
X442798Y212642D01*
X442795Y212670D01*
X442801Y212698D01*
X442788Y212769D01*
X442782Y212840D01*
X442769Y212865D01*
X442763Y212893D01*
X442723Y212953D01*
X442690Y213016D01*
X442668Y213034D01*
X442652Y213058D01*
X442569Y213116D01*
X442537Y213143D01*
X442526Y213146D01*
X442516Y213153D01*
X441197Y213777D01*
X460088Y246497D01*
X460115Y246579D01*
X460147Y246660D01*
X460147Y246674D01*
X460152Y246687D01*
X460145Y246774D01*
X460144Y246860D01*
X460138Y246873D01*
X460137Y246887D01*
X460098Y246964D01*
X460062Y247044D01*
X460052Y247054D01*
X460046Y247066D01*
X460003Y247101D01*
X459934Y247170D01*
X458814Y247933D01*
X458749Y247960D01*
X458687Y247995D01*
X458655Y248000D01*
X458629Y248011D01*
X458577Y248011D01*
X458509Y248021D01*
X458503Y248020D01*
X458028Y248462D01*
X457998Y248480D01*
X457968Y248509D01*
X457432Y248874D01*
X457431Y248880D01*
X457404Y248945D01*
X457386Y249013D01*
X457366Y249039D01*
X457356Y249065D01*
X457319Y249102D01*
X457278Y249157D01*
X455539Y250770D01*
X455479Y250806D01*
X455423Y250850D01*
X455392Y250860D01*
X455368Y250874D01*
X455317Y250882D01*
X455250Y250902D01*
X455245Y250902D01*
X454840Y251410D01*
X454814Y251432D01*
X454789Y251465D01*
X454313Y251906D01*
X454313Y251912D01*
X454296Y251980D01*
X454288Y252051D01*
X454272Y252079D01*
X454266Y252107D01*
X454235Y252148D01*
X454202Y252209D01*
X452723Y254063D01*
X452669Y254108D01*
X452621Y254159D01*
X452591Y254173D01*
X452570Y254191D01*
X452520Y254207D01*
X452458Y254236D01*
X452452Y254238D01*
X452128Y254800D01*
X452105Y254826D01*
X452085Y254862D01*
X451680Y255369D01*
X451681Y255375D01*
X451675Y255445D01*
X451677Y255516D01*
X451666Y255547D01*
X451664Y255575D01*
X451640Y255620D01*
X451616Y255685D01*
X450430Y257739D01*
X450383Y257792D01*
X450343Y257850D01*
X450316Y257868D01*
X450297Y257889D01*
X450251Y257911D01*
X450193Y257950D01*
X450188Y257952D01*
X449951Y258556D01*
X449932Y258585D01*
X449918Y258624D01*
X449593Y259186D01*
X449595Y259191D01*
X449599Y259262D01*
X449612Y259331D01*
X449606Y259363D01*
X449607Y259391D01*
X449590Y259440D01*
X449577Y259508D01*
X448710Y261715D01*
X448672Y261774D01*
X448641Y261838D01*
X448616Y261860D01*
X448601Y261884D01*
X448559Y261913D01*
X448507Y261959D01*
X448503Y261962D01*
X448358Y262595D01*
X448344Y262626D01*
X448336Y262667D01*
X448099Y263271D01*
X448101Y263276D01*
X448116Y263345D01*
X448139Y263412D01*
X448137Y263445D01*
X448143Y263472D01*
X448133Y263523D01*
X448130Y263592D01*
X447602Y265904D01*
X447573Y265968D01*
X447552Y266035D01*
X447531Y266061D01*
X447519Y266086D01*
X447482Y266121D01*
X447438Y266175D01*
X447434Y266179D01*
X447385Y266826D01*
X447376Y266859D01*
X447374Y266901D01*
X447229Y267533D01*
X447232Y267538D01*
X447257Y267604D01*
X447290Y267667D01*
X447293Y267699D01*
X447303Y267726D01*
X447301Y267777D01*
X447308Y267846D01*
X447131Y270211D01*
X447111Y270278D01*
X447101Y270348D01*
X447084Y270377D01*
X447076Y270404D01*
X447044Y270444D01*
X447009Y270504D01*
X447005Y270508D01*
X447054Y271155D01*
X447049Y271189D01*
X447054Y271231D01*
X447005Y271878D01*
X447009Y271882D01*
X447043Y271943D01*
X447085Y272000D01*
X447093Y272032D01*
X447107Y272057D01*
X447113Y272108D01*
X447130Y272175D01*
X447306Y274540D01*
X447298Y274610D01*
X447297Y274680D01*
X447285Y274711D01*
X447281Y274739D01*
X447256Y274783D01*
X447230Y274847D01*
X447227Y274852D01*
X447371Y275485D01*
X447372Y275519D01*
X447382Y275560D01*
X447431Y276207D01*
X447435Y276210D01*
X447478Y276266D01*
X447528Y276316D01*
X447541Y276346D01*
X447558Y276369D01*
X447571Y276419D01*
X447598Y276482D01*
X448125Y278794D01*
X448127Y278864D01*
X448132Y278889D01*
X448131Y278891D01*
X448137Y278935D01*
X448130Y278966D01*
X448130Y278994D01*
X448112Y279043D01*
X448096Y279110D01*
X448093Y279115D01*
X448330Y279719D01*
X448336Y279753D01*
X448353Y279791D01*
X448404Y280015D01*
X448405Y280080D01*
X448416Y280143D01*
X448408Y280179D01*
X448409Y280215D01*
X448385Y280276D01*
X448371Y280338D01*
X448348Y280371D01*
X448336Y280402D01*
X448303Y280436D01*
X448268Y280486D01*
X443380Y285375D01*
X443373Y285379D01*
X443368Y285385D01*
X443290Y285434D01*
X443213Y285486D01*
X443205Y285487D01*
X443198Y285491D01*
X443021Y285523D01*
X440397Y285523D01*
X437288Y288632D01*
X437288Y293028D01*
X440397Y296137D01*
X444793Y296137D01*
X447902Y293028D01*
X447902Y290404D01*
X447903Y290396D01*
X447902Y290389D01*
X447923Y290299D01*
X447941Y290208D01*
X447946Y290201D01*
X447948Y290193D01*
X448050Y290045D01*
X451006Y287090D01*
X451034Y287071D01*
X451056Y287046D01*
X451117Y287016D01*
X451172Y286979D01*
X451206Y286973D01*
X451236Y286958D01*
X451303Y286954D01*
X451369Y286942D01*
X451403Y286949D01*
X451437Y286947D01*
X451500Y286969D01*
X451565Y286983D01*
X451593Y287003D01*
X451625Y287014D01*
X451685Y287066D01*
X451730Y287098D01*
X451742Y287116D01*
X451761Y287133D01*
X452075Y287526D01*
X452091Y287557D01*
X452117Y287589D01*
X452442Y288151D01*
X452447Y288153D01*
X452510Y288184D01*
X452577Y288208D01*
X452601Y288229D01*
X452626Y288242D01*
X452660Y288281D01*
X452712Y288326D01*
X454190Y290181D01*
X454222Y290244D01*
X454262Y290302D01*
X454269Y290334D01*
X454282Y290359D01*
X454286Y290411D01*
X454300Y290478D01*
X454300Y290484D01*
X454776Y290925D01*
X454796Y290953D01*
X454828Y290981D01*
X455232Y291488D01*
X455237Y291489D01*
X455305Y291510D01*
X455374Y291524D01*
X455402Y291542D01*
X455428Y291550D01*
X455467Y291584D01*
X455526Y291621D01*
X457263Y293235D01*
X457305Y293292D01*
X457352Y293344D01*
X457364Y293375D01*
X457380Y293397D01*
X457392Y293448D01*
X457417Y293512D01*
X457418Y293518D01*
X457954Y293883D01*
X457978Y293908D01*
X458013Y293931D01*
X458489Y294372D01*
X458494Y294372D01*
X458564Y294383D01*
X458634Y294386D01*
X458664Y294400D01*
X458692Y294404D01*
X458736Y294432D01*
X458799Y294460D01*
X460758Y295796D01*
X460807Y295847D01*
X460862Y295891D01*
X460878Y295920D01*
X460898Y295940D01*
X460917Y295988D01*
X460951Y296048D01*
X460952Y296053D01*
X461537Y296335D01*
X461565Y296356D01*
X461603Y296373D01*
X462139Y296739D01*
X462144Y296738D01*
X462215Y296738D01*
X462285Y296731D01*
X462316Y296740D01*
X462344Y296740D01*
X462392Y296761D01*
X462458Y296779D01*
X464595Y297809D01*
X464651Y297851D01*
X464712Y297887D01*
X464732Y297913D01*
X464754Y297930D01*
X464780Y297974D01*
X464823Y298029D01*
X464825Y298034D01*
X465446Y298225D01*
X465476Y298242D01*
X465516Y298253D01*
X466101Y298534D01*
X466106Y298533D01*
X466176Y298523D01*
X466244Y298505D01*
X466277Y298509D01*
X466304Y298505D01*
X466354Y298518D01*
X466423Y298527D01*
X468689Y299226D01*
X468751Y299260D01*
X468816Y299286D01*
X468840Y299309D01*
X468865Y299322D01*
X468897Y299363D01*
X468947Y299410D01*
X468950Y299415D01*
X469592Y299511D01*
X469625Y299523D01*
X469666Y299528D01*
X470286Y299720D01*
X470291Y299717D01*
X470313Y299711D01*
X470317Y299708D01*
X470330Y299706D01*
X470359Y299697D01*
X470423Y299669D01*
X470456Y299668D01*
X470483Y299660D01*
X470534Y299666D01*
X470604Y299664D01*
X472948Y300018D01*
X473015Y300043D01*
X473083Y300059D01*
X473110Y300077D01*
X473137Y300087D01*
X473175Y300122D01*
X473231Y300161D01*
X473235Y300165D01*
X473884Y300165D01*
X473918Y300172D01*
X473960Y300171D01*
X474601Y300268D01*
X474606Y300265D01*
X474670Y300235D01*
X474730Y300198D01*
X474762Y300192D01*
X474787Y300180D01*
X474839Y300178D01*
X474907Y300166D01*
X477278Y300167D01*
X477348Y300181D01*
X477418Y300186D01*
X477447Y300201D01*
X477475Y300206D01*
X477518Y300235D01*
X477580Y300266D01*
X477584Y300269D01*
X478226Y300173D01*
X478260Y300174D01*
X478301Y300167D01*
X478950Y300167D01*
X478954Y300163D01*
X479013Y300124D01*
X479067Y300078D01*
X479098Y300068D01*
X479121Y300052D01*
X479172Y300043D01*
X479237Y300020D01*
X481582Y299668D01*
X481653Y299671D01*
X481723Y299666D01*
X481754Y299676D01*
X481782Y299678D01*
X481829Y299700D01*
X481874Y299714D01*
X481880Y299716D01*
X481883Y299717D01*
X481895Y299721D01*
X481900Y299724D01*
X482520Y299532D01*
X482554Y299529D01*
X482594Y299516D01*
X483235Y299419D01*
X483239Y299415D01*
X483291Y299367D01*
X483337Y299314D01*
X483366Y299299D01*
X483387Y299280D01*
X483436Y299263D01*
X483497Y299231D01*
X485764Y298533D01*
X485834Y298526D01*
X485903Y298511D01*
X485935Y298516D01*
X485963Y298513D01*
X486012Y298528D01*
X486081Y298539D01*
X486086Y298541D01*
X486671Y298259D01*
X486704Y298251D01*
X486741Y298232D01*
X487361Y298041D01*
X487364Y298036D01*
X487408Y297981D01*
X487446Y297922D01*
X487473Y297902D01*
X487491Y297881D01*
X487536Y297857D01*
X487592Y297816D01*
X488830Y297220D01*
X488914Y297199D01*
X488997Y297173D01*
X489011Y297174D01*
X489024Y297171D01*
X489110Y297184D01*
X489196Y297192D01*
X489209Y297198D01*
X489223Y297200D01*
X489296Y297245D01*
X489373Y297286D01*
X489383Y297298D01*
X489394Y297305D01*
X489427Y297349D01*
X489489Y297424D01*
X508381Y330145D01*
X509618Y329291D01*
X509645Y329280D01*
X509667Y329261D01*
X509736Y329241D01*
X509801Y329213D01*
X509830Y329213D01*
X509858Y329205D01*
X509929Y329213D01*
X510000Y329213D01*
X510027Y329224D01*
X510056Y329227D01*
X510118Y329262D01*
X510183Y329290D01*
X510204Y329310D01*
X510229Y329325D01*
X510292Y329402D01*
X510322Y329432D01*
X510326Y329442D01*
X510335Y329453D01*
X519835Y345953D01*
X519845Y345985D01*
X519854Y345998D01*
X519858Y346022D01*
X519859Y346026D01*
X519890Y346096D01*
X519890Y346120D01*
X519898Y346142D01*
X519892Y346218D01*
X519893Y346295D01*
X519883Y346319D01*
X519882Y346340D01*
X519861Y346379D01*
X519835Y346451D01*
X510335Y362951D01*
X510316Y362973D01*
X510303Y362999D01*
X510250Y363047D01*
X510203Y363100D01*
X510177Y363113D01*
X510156Y363132D01*
X510088Y363155D01*
X510024Y363186D01*
X509995Y363188D01*
X509968Y363197D01*
X509896Y363192D01*
X509825Y363195D01*
X509798Y363185D01*
X509769Y363183D01*
X509679Y363141D01*
X509639Y363126D01*
X509631Y363119D01*
X509618Y363113D01*
X508381Y362259D01*
X489489Y394980D01*
X489432Y395045D01*
X489378Y395113D01*
X489366Y395120D01*
X489357Y395131D01*
X489279Y395168D01*
X489203Y395210D01*
X489189Y395212D01*
X489176Y395218D01*
X489090Y395222D01*
X489004Y395232D01*
X488989Y395228D01*
X488976Y395228D01*
X488924Y395210D01*
X488830Y395184D01*
X487592Y394588D01*
X487536Y394545D01*
X487475Y394510D01*
X487455Y394484D01*
X487432Y394467D01*
X487406Y394422D01*
X487364Y394368D01*
X487361Y394363D01*
X486741Y394172D01*
X486711Y394156D01*
X486671Y394145D01*
X486086Y393863D01*
X486081Y393865D01*
X486011Y393875D01*
X485942Y393893D01*
X485910Y393889D01*
X485882Y393893D01*
X485832Y393879D01*
X485764Y393871D01*
X483497Y393173D01*
X483435Y393139D01*
X483370Y393113D01*
X483346Y393090D01*
X483321Y393077D01*
X483289Y393037D01*
X483239Y392989D01*
X483235Y392985D01*
X482594Y392888D01*
X482561Y392877D01*
X482520Y392872D01*
X481967Y392701D01*
X481940Y392687D01*
X481910Y392680D01*
X481853Y392639D01*
X481791Y392606D01*
X481772Y392582D01*
X481747Y392564D01*
X481710Y392504D01*
X481666Y392449D01*
X481657Y392420D01*
X481641Y392394D01*
X481626Y392310D01*
X481611Y392256D01*
X481613Y392238D01*
X481609Y392216D01*
X481609Y375628D01*
X479824Y373843D01*
X479823Y373843D01*
X469448Y363467D01*
X469446Y363465D01*
X469444Y363463D01*
X469392Y363382D01*
X469337Y363300D01*
X469336Y363297D01*
X469335Y363295D01*
X469318Y363199D01*
X469299Y363103D01*
X469300Y363101D01*
X469299Y363098D01*
X469321Y363001D01*
X469341Y362907D01*
X469342Y362905D01*
X469343Y362902D01*
X469399Y362823D01*
X469455Y362742D01*
X469457Y362741D01*
X469459Y362739D01*
X469542Y362687D01*
X469624Y362635D01*
X469627Y362634D01*
X469629Y362633D01*
X469806Y362601D01*
X481766Y362601D01*
X484124Y360243D01*
X484124Y351909D01*
X481766Y349552D01*
X478409Y349552D01*
X478404Y349551D01*
X478399Y349551D01*
X478306Y349531D01*
X478212Y349512D01*
X478208Y349509D01*
X478203Y349508D01*
X478125Y349453D01*
X478047Y349399D01*
X478044Y349395D01*
X478040Y349392D01*
X477989Y349310D01*
X477937Y349231D01*
X477937Y349226D01*
X477934Y349222D01*
X477902Y349044D01*
X477902Y348646D01*
X477903Y348638D01*
X477902Y348630D01*
X477923Y348540D01*
X477941Y348449D01*
X477946Y348443D01*
X477948Y348435D01*
X478050Y348287D01*
X479175Y347162D01*
X479175Y342766D01*
X476067Y339657D01*
X471671Y339657D01*
X468562Y342766D01*
X468562Y347162D01*
X470086Y348686D01*
X470087Y348688D01*
X470089Y348689D01*
X470142Y348770D01*
X470197Y348853D01*
X470197Y348855D01*
X470199Y348857D01*
X470216Y348953D01*
X470234Y349049D01*
X470234Y349052D01*
X470234Y349055D01*
X470213Y349151D01*
X470193Y349246D01*
X470191Y349248D01*
X470191Y349250D01*
X470135Y349329D01*
X470078Y349410D01*
X470076Y349412D01*
X470075Y349414D01*
X469991Y349466D01*
X469909Y349518D01*
X469907Y349518D01*
X469904Y349520D01*
X469727Y349552D01*
X467432Y349552D01*
X465074Y351909D01*
X465074Y357869D01*
X465074Y357871D01*
X465074Y357874D01*
X465054Y357969D01*
X465035Y358065D01*
X465033Y358067D01*
X465033Y358070D01*
X464977Y358151D01*
X464922Y358231D01*
X464920Y358233D01*
X464918Y358235D01*
X464835Y358288D01*
X464754Y358340D01*
X464751Y358341D01*
X464749Y358342D01*
X464653Y358359D01*
X464557Y358376D01*
X464554Y358375D01*
X464552Y358376D01*
X464458Y358354D01*
X464361Y358332D01*
X464359Y358331D01*
X464356Y358330D01*
X464208Y358227D01*
X437307Y331326D01*
X435760Y329779D01*
X435758Y329776D01*
X435756Y329775D01*
X435703Y329694D01*
X435649Y329612D01*
X435648Y329609D01*
X435647Y329607D01*
X435629Y329511D01*
X435611Y329415D01*
X435612Y329412D01*
X435611Y329410D01*
X435633Y329313D01*
X435653Y329219D01*
X435654Y329217D01*
X435655Y329214D01*
X435711Y329134D01*
X435767Y329054D01*
X435769Y329053D01*
X435771Y329051D01*
X435855Y328998D01*
X435936Y328947D01*
X435939Y328946D01*
X435941Y328945D01*
X436118Y328913D01*
X440933Y328913D01*
X442446Y327400D01*
X442452Y327396D01*
X442455Y327391D01*
X442535Y327341D01*
X442613Y327289D01*
X442619Y327288D01*
X442625Y327284D01*
X442718Y327269D01*
X442810Y327251D01*
X442816Y327253D01*
X442823Y327251D01*
X442999Y327290D01*
X443782Y327614D01*
X444580Y327945D01*
X448230Y327945D01*
X451602Y326548D01*
X454183Y323967D01*
X455580Y320595D01*
X455580Y316945D01*
X454183Y313573D01*
X451602Y310992D01*
X451129Y310796D01*
X451128Y310796D01*
X449904Y310289D01*
X448679Y309781D01*
X448230Y309595D01*
X444580Y309595D01*
X441208Y310992D01*
X438627Y313573D01*
X437230Y316945D01*
X437230Y320595D01*
X437649Y321606D01*
X437650Y321610D01*
X437652Y321613D01*
X437669Y321708D01*
X437688Y321803D01*
X437687Y321806D01*
X437688Y321810D01*
X437667Y321904D01*
X437647Y321999D01*
X437645Y322002D01*
X437644Y322006D01*
X437588Y322084D01*
X437534Y322164D01*
X437530Y322166D01*
X437528Y322169D01*
X437446Y322220D01*
X437365Y322273D01*
X437361Y322273D01*
X437358Y322275D01*
X437180Y322307D01*
X393602Y322307D01*
X391519Y324391D01*
X387938Y327971D01*
X387936Y327973D01*
X387934Y327975D01*
X387854Y328027D01*
X387771Y328082D01*
X387769Y328083D01*
X387766Y328084D01*
X387670Y328101D01*
X387574Y328120D01*
X387572Y328119D01*
X387569Y328120D01*
X387473Y328098D01*
X387378Y328078D01*
X387376Y328077D01*
X387374Y328076D01*
X387294Y328019D01*
X387214Y327964D01*
X387212Y327961D01*
X387210Y327960D01*
X387158Y327876D01*
X387106Y327795D01*
X387106Y327792D01*
X387104Y327790D01*
X387072Y327612D01*
X387072Y318218D01*
X386179Y317325D01*
X383857Y317325D01*
X383852Y317324D01*
X383847Y317325D01*
X383754Y317304D01*
X383661Y317286D01*
X383657Y317283D01*
X383652Y317282D01*
X383574Y317226D01*
X383495Y317173D01*
X383492Y317169D01*
X383488Y317166D01*
X383437Y317084D01*
X383386Y317005D01*
X383385Y317000D01*
X383382Y316995D01*
X383350Y316818D01*
X383350Y275590D01*
X383351Y275585D01*
X383350Y275580D01*
X383371Y275487D01*
X383390Y275393D01*
X383393Y275389D01*
X383394Y275384D01*
X383449Y275306D01*
X383502Y275228D01*
X383507Y275225D01*
X383510Y275221D01*
X383591Y275170D01*
X383671Y275118D01*
X383676Y275118D01*
X383680Y275115D01*
X383857Y275083D01*
X396338Y275083D01*
X406437Y264983D01*
X406444Y264979D01*
X406449Y264973D01*
X406527Y264924D01*
X406604Y264872D01*
X406612Y264871D01*
X406619Y264867D01*
X406796Y264835D01*
X413692Y264835D01*
X414585Y263942D01*
X414585Y251678D01*
X413692Y250785D01*
X402428Y250785D01*
X401535Y251678D01*
X401535Y260334D01*
X401534Y260342D01*
X401535Y260349D01*
X401514Y260439D01*
X401496Y260530D01*
X401491Y260537D01*
X401489Y260545D01*
X401387Y260693D01*
X393751Y268329D01*
X393744Y268333D01*
X393739Y268339D01*
X393661Y268388D01*
X393584Y268440D01*
X393576Y268441D01*
X393569Y268445D01*
X393392Y268477D01*
X380180Y268477D01*
X380172Y268476D01*
X380164Y268477D01*
X380075Y268456D01*
X379983Y268438D01*
X379977Y268433D01*
X379969Y268431D01*
X379821Y268329D01*
X379285Y267793D01*
X379284Y267790D01*
X379281Y267789D01*
X379229Y267708D01*
X379174Y267626D01*
X379174Y267623D01*
X379172Y267621D01*
X379155Y267525D01*
X379137Y267429D01*
X379137Y267426D01*
X379137Y267424D01*
X379158Y267327D01*
X379178Y267233D01*
X379180Y267231D01*
X379180Y267228D01*
X379237Y267148D01*
X379292Y267068D01*
X379295Y267067D01*
X379296Y267065D01*
X379379Y267013D01*
X379462Y266961D01*
X379464Y266960D01*
X379466Y266959D01*
X379644Y266927D01*
X380658Y266927D01*
X383181Y264404D01*
X383186Y264401D01*
X383189Y264396D01*
X383269Y264345D01*
X383348Y264293D01*
X383353Y264292D01*
X383358Y264289D01*
X383452Y264273D01*
X383545Y264255D01*
X383550Y264256D01*
X383555Y264255D01*
X383648Y264277D01*
X383741Y264297D01*
X383746Y264300D01*
X383751Y264301D01*
X383899Y264404D01*
X386422Y266927D01*
X390818Y266927D01*
X393927Y263818D01*
X393927Y259422D01*
X392071Y257566D01*
X392067Y257560D01*
X392061Y257555D01*
X392012Y257477D01*
X391960Y257399D01*
X391959Y257392D01*
X391955Y257385D01*
X391923Y257208D01*
X391923Y251246D01*
X389840Y249163D01*
X389839Y249163D01*
X376087Y235411D01*
X376087Y235410D01*
X374237Y233561D01*
X374236Y233558D01*
X374234Y233557D01*
X374181Y233476D01*
X374126Y233394D01*
X374126Y233391D01*
X374124Y233389D01*
X374107Y233292D01*
X374089Y233197D01*
X374089Y233194D01*
X374089Y233192D01*
X374110Y233095D01*
X374130Y233001D01*
X374132Y232999D01*
X374132Y232996D01*
X374189Y232916D01*
X374245Y232836D01*
X374247Y232835D01*
X374248Y232833D01*
X374331Y232781D01*
X374414Y232729D01*
X374416Y232728D01*
X374419Y232727D01*
X374596Y232695D01*
X382822Y232695D01*
X383715Y231802D01*
X383715Y230480D01*
X383716Y230475D01*
X383715Y230470D01*
X383736Y230377D01*
X383754Y230283D01*
X383757Y230279D01*
X383758Y230274D01*
X383814Y230196D01*
X383867Y230118D01*
X383871Y230115D01*
X383874Y230111D01*
X383956Y230060D01*
X384035Y230008D01*
X384040Y230008D01*
X384045Y230005D01*
X384222Y229973D01*
X387978Y229973D01*
X387983Y229974D01*
X387988Y229973D01*
X388081Y229994D01*
X388175Y230012D01*
X388179Y230015D01*
X388184Y230016D01*
X388262Y230072D01*
X388340Y230125D01*
X388343Y230129D01*
X388347Y230132D01*
X388398Y230214D01*
X388450Y230293D01*
X388450Y230298D01*
X388453Y230303D01*
X388485Y230480D01*
X388485Y233802D01*
X389378Y234695D01*
X405642Y234695D01*
X406535Y233802D01*
X406535Y232482D01*
X406536Y232477D01*
X406535Y232472D01*
X406556Y232379D01*
X406574Y232286D01*
X406577Y232282D01*
X406578Y232277D01*
X406634Y232199D01*
X406687Y232120D01*
X406691Y232117D01*
X406694Y232113D01*
X406776Y232062D01*
X406855Y232011D01*
X406860Y232010D01*
X406865Y232007D01*
X407042Y231975D01*
X411585Y231975D01*
X411593Y231977D01*
X411601Y231975D01*
X411691Y231996D01*
X411782Y232015D01*
X411788Y232019D01*
X411796Y232021D01*
X411944Y232124D01*
X414997Y235177D01*
X419393Y235177D01*
X422502Y232068D01*
X422502Y227672D01*
X419393Y224563D01*
X414997Y224563D01*
X414339Y225221D01*
X414332Y225226D01*
X414328Y225232D01*
X414249Y225281D01*
X414172Y225332D01*
X414164Y225334D01*
X414158Y225338D01*
X413980Y225370D01*
X407042Y225370D01*
X407037Y225369D01*
X407032Y225370D01*
X406939Y225349D01*
X406845Y225330D01*
X406841Y225327D01*
X406836Y225326D01*
X406758Y225271D01*
X406680Y225218D01*
X406677Y225213D01*
X406673Y225210D01*
X406622Y225129D01*
X406570Y225049D01*
X406570Y225044D01*
X406567Y225040D01*
X406535Y224863D01*
X406535Y219538D01*
X405642Y218645D01*
X389378Y218645D01*
X388485Y219538D01*
X388485Y222860D01*
X388484Y222865D01*
X388485Y222870D01*
X388464Y222963D01*
X388446Y223057D01*
X388443Y223061D01*
X388442Y223066D01*
X388387Y223143D01*
X388333Y223222D01*
X388329Y223225D01*
X388326Y223229D01*
X388244Y223280D01*
X388165Y223332D01*
X388160Y223332D01*
X388155Y223335D01*
X387978Y223367D01*
X384222Y223367D01*
X384217Y223366D01*
X384212Y223367D01*
X384119Y223346D01*
X384025Y223328D01*
X384021Y223325D01*
X384016Y223324D01*
X383938Y223268D01*
X383860Y223215D01*
X383857Y223211D01*
X383853Y223208D01*
X383802Y223126D01*
X383750Y223047D01*
X383750Y223042D01*
X383747Y223037D01*
X383715Y222860D01*
X383715Y219538D01*
X382822Y218645D01*
X371558Y218645D01*
X370665Y219538D01*
X370665Y221860D01*
X370664Y221865D01*
X370665Y221870D01*
X370644Y221963D01*
X370626Y222057D01*
X370623Y222061D01*
X370622Y222066D01*
X370566Y222144D01*
X370513Y222222D01*
X370509Y222225D01*
X370506Y222229D01*
X370424Y222280D01*
X370345Y222332D01*
X370340Y222332D01*
X370335Y222335D01*
X370158Y222367D01*
X356620Y222367D01*
X356612Y222366D01*
X356604Y222367D01*
X356514Y222346D01*
X356423Y222328D01*
X356417Y222323D01*
X356409Y222321D01*
X356261Y222219D01*
X354898Y220855D01*
X351672Y220855D01*
X350954Y221574D01*
X350951Y221575D01*
X350950Y221578D01*
X350870Y221630D01*
X350787Y221685D01*
X350784Y221685D01*
X350782Y221687D01*
X350686Y221704D01*
X350590Y221722D01*
X350587Y221722D01*
X350585Y221722D01*
X350488Y221701D01*
X350394Y221681D01*
X350392Y221679D01*
X350389Y221679D01*
X350309Y221622D01*
X350229Y221567D01*
X350228Y221564D01*
X350226Y221563D01*
X350174Y221480D01*
X350122Y221397D01*
X350121Y221395D01*
X350120Y221393D01*
X350088Y221215D01*
X350088Y220322D01*
X348005Y218239D01*
X348004Y218239D01*
X341271Y211506D01*
X339188Y209422D01*
X322482Y209422D01*
X316380Y215525D01*
X316373Y215529D01*
X316368Y215535D01*
X316290Y215584D01*
X316213Y215636D01*
X316205Y215637D01*
X316198Y215641D01*
X316021Y215673D01*
X314032Y215673D01*
X310923Y218782D01*
X310923Y223178D01*
X314032Y226287D01*
X318428Y226287D01*
X320951Y223764D01*
X320956Y223761D01*
X320959Y223756D01*
X321039Y223705D01*
X321118Y223653D01*
X321123Y223652D01*
X321128Y223649D01*
X321222Y223633D01*
X321315Y223615D01*
X321320Y223616D01*
X321325Y223615D01*
X321418Y223637D01*
X321511Y223657D01*
X321516Y223660D01*
X321521Y223661D01*
X321669Y223764D01*
X324192Y226287D01*
X328588Y226287D01*
X329096Y225779D01*
X329100Y225776D01*
X329103Y225772D01*
X329184Y225721D01*
X329263Y225668D01*
X329268Y225667D01*
X329272Y225664D01*
X329366Y225648D01*
X329460Y225630D01*
X329465Y225632D01*
X329470Y225631D01*
X329562Y225652D01*
X329656Y225672D01*
X329660Y225675D01*
X329665Y225676D01*
X329813Y225779D01*
X330362Y226327D01*
X330366Y226334D01*
X330372Y226339D01*
X330421Y226417D01*
X330473Y226494D01*
X330474Y226502D01*
X330478Y226509D01*
X330510Y226686D01*
X330510Y230243D01*
X332172Y231905D01*
X335398Y231905D01*
X337060Y230243D01*
X337060Y226686D01*
X337061Y226678D01*
X337060Y226671D01*
X337081Y226581D01*
X337088Y226547D01*
X337088Y223629D01*
X337060Y223474D01*
X337060Y222517D01*
X335398Y220855D01*
X334441Y220855D01*
X334433Y220854D01*
X334426Y220855D01*
X334336Y220834D01*
X334245Y220816D01*
X334238Y220811D01*
X334230Y220809D01*
X334082Y220707D01*
X331053Y217677D01*
X330802Y217677D01*
X330794Y217676D01*
X330787Y217677D01*
X330697Y217656D01*
X330606Y217638D01*
X330599Y217633D01*
X330592Y217631D01*
X330444Y217529D01*
X329809Y216894D01*
X329807Y216891D01*
X329805Y216890D01*
X329751Y216807D01*
X329698Y216727D01*
X329697Y216724D01*
X329696Y216722D01*
X329678Y216625D01*
X329660Y216530D01*
X329660Y216527D01*
X329660Y216525D01*
X329682Y216428D01*
X329702Y216334D01*
X329703Y216332D01*
X329704Y216329D01*
X329761Y216249D01*
X329816Y216169D01*
X329818Y216168D01*
X329820Y216166D01*
X329903Y216114D01*
X329985Y216062D01*
X329988Y216061D01*
X329990Y216060D01*
X330167Y216028D01*
X336242Y216028D01*
X336250Y216029D01*
X336257Y216028D01*
X336347Y216049D01*
X336438Y216067D01*
X336445Y216072D01*
X336453Y216074D01*
X336601Y216176D01*
X343334Y222909D01*
X343338Y222916D01*
X343344Y222921D01*
X343393Y222999D01*
X343445Y223076D01*
X343446Y223084D01*
X343450Y223091D01*
X343482Y223268D01*
X343482Y227831D01*
X343510Y227986D01*
X343510Y230243D01*
X345172Y231905D01*
X348398Y231905D01*
X349676Y230626D01*
X349681Y230623D01*
X349684Y230619D01*
X349764Y230568D01*
X349843Y230515D01*
X349848Y230514D01*
X349853Y230511D01*
X349947Y230495D01*
X350040Y230478D01*
X350045Y230479D01*
X350051Y230478D01*
X350143Y230499D01*
X350236Y230519D01*
X350241Y230522D01*
X350246Y230523D01*
X350394Y230626D01*
X351672Y231905D01*
X354898Y231905D01*
X356560Y230243D01*
X356560Y229480D01*
X356561Y229475D01*
X356560Y229470D01*
X356581Y229377D01*
X356599Y229283D01*
X356602Y229279D01*
X356603Y229274D01*
X356659Y229196D01*
X356712Y229118D01*
X356716Y229115D01*
X356719Y229111D01*
X356801Y229060D01*
X356880Y229008D01*
X356885Y229008D01*
X356890Y229005D01*
X357067Y228973D01*
X370158Y228973D01*
X370163Y228974D01*
X370168Y228973D01*
X370261Y228994D01*
X370355Y229012D01*
X370359Y229015D01*
X370364Y229016D01*
X370442Y229072D01*
X370520Y229125D01*
X370523Y229129D01*
X370527Y229132D01*
X370578Y229214D01*
X370630Y229293D01*
X370630Y229298D01*
X370633Y229303D01*
X370665Y229480D01*
X370665Y231802D01*
X371325Y232461D01*
X371327Y232464D01*
X371329Y232465D01*
X371381Y232545D01*
X371436Y232628D01*
X371437Y232631D01*
X371438Y232633D01*
X371455Y232727D01*
X371474Y232825D01*
X371473Y232828D01*
X371474Y232830D01*
X371452Y232925D01*
X371432Y233021D01*
X371431Y233023D01*
X371430Y233026D01*
X371373Y233106D01*
X371318Y233186D01*
X371315Y233187D01*
X371314Y233189D01*
X371231Y233241D01*
X371149Y233293D01*
X371146Y233294D01*
X371144Y233295D01*
X370966Y233327D01*
X362084Y233327D01*
X361929Y233355D01*
X359672Y233355D01*
X358010Y235017D01*
X358010Y238243D01*
X359289Y239521D01*
X359292Y239526D01*
X359296Y239529D01*
X359347Y239609D01*
X359400Y239688D01*
X359401Y239693D01*
X359404Y239698D01*
X359420Y239792D01*
X359437Y239885D01*
X359436Y239890D01*
X359437Y239896D01*
X359416Y239988D01*
X359396Y240081D01*
X359393Y240086D01*
X359392Y240091D01*
X359289Y240239D01*
X358010Y241517D01*
X358010Y244743D01*
X359289Y246021D01*
X359292Y246026D01*
X359296Y246029D01*
X359347Y246109D01*
X359400Y246188D01*
X359401Y246193D01*
X359404Y246198D01*
X359420Y246292D01*
X359437Y246385D01*
X359436Y246390D01*
X359437Y246396D01*
X359416Y246488D01*
X359396Y246581D01*
X359393Y246586D01*
X359392Y246591D01*
X359289Y246739D01*
X358010Y248017D01*
X358010Y251243D01*
X359672Y252905D01*
X361929Y252905D01*
X361937Y252906D01*
X361944Y252905D01*
X362034Y252926D01*
X362125Y252944D01*
X362132Y252949D01*
X362140Y252951D01*
X362288Y253053D01*
X362345Y253111D01*
X365286Y253111D01*
X365293Y253112D01*
X365301Y253111D01*
X365391Y253132D01*
X365482Y253150D01*
X365489Y253155D01*
X365496Y253157D01*
X365644Y253259D01*
X367386Y255001D01*
X367390Y255007D01*
X367396Y255012D01*
X367445Y255090D01*
X367497Y255168D01*
X367498Y255175D01*
X367502Y255182D01*
X367534Y255359D01*
X367534Y265383D01*
X376596Y274445D01*
X376601Y274452D01*
X376607Y274456D01*
X376656Y274535D01*
X376707Y274612D01*
X376709Y274620D01*
X376713Y274627D01*
X376745Y274804D01*
X376745Y316818D01*
X376744Y316823D01*
X376745Y316828D01*
X376724Y316921D01*
X376705Y317015D01*
X376702Y317019D01*
X376701Y317024D01*
X376646Y317102D01*
X376593Y317180D01*
X376588Y317183D01*
X376585Y317187D01*
X376504Y317238D01*
X376424Y317290D01*
X376419Y317290D01*
X376415Y317293D01*
X376238Y317325D01*
X373916Y317325D01*
X373023Y318218D01*
X373023Y329482D01*
X373916Y330375D01*
X384310Y330375D01*
X384312Y330375D01*
X384315Y330375D01*
X384410Y330395D01*
X384506Y330414D01*
X384509Y330416D01*
X384511Y330416D01*
X384592Y330472D01*
X384672Y330527D01*
X384674Y330529D01*
X384676Y330531D01*
X384729Y330614D01*
X384781Y330695D01*
X384782Y330698D01*
X384783Y330700D01*
X384800Y330796D01*
X384817Y330892D01*
X384816Y330895D01*
X384817Y330897D01*
X384795Y330991D01*
X384773Y331088D01*
X384772Y331090D01*
X384771Y331093D01*
X384669Y331241D01*
X381733Y334177D01*
X381726Y334181D01*
X381721Y334187D01*
X381643Y334236D01*
X381566Y334288D01*
X381558Y334289D01*
X381551Y334293D01*
X381374Y334325D01*
X373916Y334325D01*
X373023Y335218D01*
X373023Y336660D01*
X373022Y336665D01*
X373023Y336670D01*
X373002Y336763D01*
X372983Y336857D01*
X372980Y336861D01*
X372979Y336866D01*
X372924Y336944D01*
X372871Y337022D01*
X372866Y337025D01*
X372863Y337029D01*
X372782Y337080D01*
X372702Y337132D01*
X372697Y337132D01*
X372693Y337135D01*
X372516Y337167D01*
X366043Y337167D01*
X366036Y337166D01*
X366028Y337167D01*
X365938Y337146D01*
X365847Y337128D01*
X365840Y337123D01*
X365833Y337121D01*
X365685Y337019D01*
X361591Y332925D01*
X354289Y332925D01*
X350371Y336843D01*
X350368Y336845D01*
X350367Y336847D01*
X350286Y336900D01*
X350204Y336954D01*
X350201Y336955D01*
X350199Y336956D01*
X350103Y336974D01*
X350007Y336992D01*
X350004Y336991D01*
X350002Y336992D01*
X349905Y336970D01*
X349811Y336950D01*
X349809Y336949D01*
X349806Y336948D01*
X349726Y336892D01*
X349646Y336836D01*
X349645Y336834D01*
X349643Y336832D01*
X349591Y336750D01*
X349539Y336667D01*
X349538Y336664D01*
X349537Y336662D01*
X349505Y336485D01*
X349505Y311780D01*
X349506Y311772D01*
X349505Y311765D01*
X349526Y311675D01*
X349544Y311584D01*
X349549Y311577D01*
X349551Y311570D01*
X349653Y311422D01*
X350747Y310328D01*
X350747Y305932D01*
X347638Y302823D01*
X343242Y302823D01*
X340133Y305932D01*
X340133Y310328D01*
X343242Y313437D01*
X343408Y313437D01*
X343413Y313438D01*
X343418Y313437D01*
X343511Y313458D01*
X343605Y313476D01*
X343609Y313479D01*
X343614Y313480D01*
X343692Y313536D01*
X343770Y313589D01*
X343773Y313593D01*
X343777Y313596D01*
X343828Y313678D01*
X343880Y313757D01*
X343880Y313762D01*
X343883Y313767D01*
X343915Y313944D01*
X343915Y348658D01*
X360759Y365501D01*
X360763Y365508D01*
X360769Y365512D01*
X360818Y365591D01*
X360870Y365668D01*
X360871Y365676D01*
X360875Y365682D01*
X360907Y365860D01*
X360907Y376020D01*
X360906Y376025D01*
X360907Y376030D01*
X360886Y376123D01*
X360868Y376216D01*
X360865Y376221D01*
X360864Y376226D01*
X360808Y376304D01*
X360755Y376382D01*
X360751Y376385D01*
X360748Y376389D01*
X360666Y376440D01*
X360587Y376491D01*
X360582Y376492D01*
X360577Y376495D01*
X360400Y376527D01*
X357187Y376527D01*
X356561Y377153D01*
X356556Y377156D01*
X356553Y377160D01*
X356473Y377211D01*
X356394Y377264D01*
X356389Y377265D01*
X356384Y377268D01*
X356290Y377284D01*
X356197Y377302D01*
X356192Y377301D01*
X356187Y377301D01*
X356094Y377280D01*
X356001Y377260D01*
X355996Y377257D01*
X355991Y377256D01*
X355843Y377153D01*
X355217Y376527D01*
X352187Y376527D01*
X351561Y377153D01*
X351556Y377156D01*
X351553Y377160D01*
X351473Y377211D01*
X351394Y377264D01*
X351389Y377265D01*
X351384Y377268D01*
X351290Y377284D01*
X351197Y377302D01*
X351192Y377301D01*
X351187Y377301D01*
X351094Y377280D01*
X351001Y377260D01*
X350996Y377257D01*
X350991Y377256D01*
X350843Y377153D01*
X350217Y376527D01*
X347212Y376527D01*
X347210Y376527D01*
X347207Y376527D01*
X347112Y376507D01*
X347016Y376488D01*
X347014Y376486D01*
X347011Y376486D01*
X346930Y376430D01*
X346850Y376375D01*
X346849Y376373D01*
X346846Y376371D01*
X346793Y376288D01*
X346741Y376207D01*
X346740Y376204D01*
X346739Y376202D01*
X346722Y376106D01*
X346705Y376010D01*
X346706Y376007D01*
X346705Y376004D01*
X346727Y375911D01*
X346749Y375814D01*
X346750Y375812D01*
X346751Y375809D01*
X346854Y375661D01*
X349477Y373038D01*
X349477Y368642D01*
X346368Y365533D01*
X341972Y365533D01*
X338863Y368642D01*
X338863Y373038D01*
X340759Y374934D01*
X340763Y374940D01*
X340769Y374945D01*
X340818Y375023D01*
X340870Y375101D01*
X340871Y375108D01*
X340875Y375115D01*
X340907Y375292D01*
X340907Y382829D01*
X340927Y382940D01*
X340927Y385317D01*
X342187Y386577D01*
X345217Y386577D01*
X345843Y385951D01*
X345848Y385948D01*
X345851Y385944D01*
X345931Y385892D01*
X346010Y385840D01*
X346015Y385839D01*
X346020Y385836D01*
X346114Y385820D01*
X346207Y385802D01*
X346212Y385803D01*
X346218Y385802D01*
X346310Y385824D01*
X346403Y385844D01*
X346408Y385847D01*
X346413Y385848D01*
X346561Y385951D01*
X347187Y386577D01*
X350217Y386577D01*
X350843Y385951D01*
X350848Y385948D01*
X350851Y385944D01*
X350931Y385892D01*
X351010Y385840D01*
X351015Y385839D01*
X351020Y385836D01*
X351114Y385820D01*
X351207Y385802D01*
X351212Y385803D01*
X351218Y385802D01*
X351310Y385824D01*
X351403Y385844D01*
X351408Y385847D01*
X351413Y385848D01*
X351561Y385951D01*
X352187Y386577D01*
X355217Y386577D01*
X355843Y385951D01*
X355848Y385948D01*
X355851Y385944D01*
X355931Y385892D01*
X356010Y385840D01*
X356015Y385839D01*
X356020Y385836D01*
X356114Y385820D01*
X356207Y385802D01*
X356212Y385803D01*
X356218Y385802D01*
X356310Y385824D01*
X356403Y385844D01*
X356408Y385847D01*
X356413Y385848D01*
X356561Y385951D01*
X357187Y386577D01*
X360217Y386577D01*
X360843Y385951D01*
X360848Y385948D01*
X360851Y385944D01*
X360931Y385892D01*
X361010Y385840D01*
X361015Y385839D01*
X361020Y385836D01*
X361114Y385820D01*
X361207Y385802D01*
X361212Y385803D01*
X361218Y385802D01*
X361310Y385824D01*
X361403Y385844D01*
X361408Y385847D01*
X361413Y385848D01*
X361561Y385951D01*
X362187Y386577D01*
X365217Y386577D01*
X365843Y385951D01*
X365848Y385948D01*
X365851Y385944D01*
X365931Y385892D01*
X366010Y385840D01*
X366015Y385839D01*
X366020Y385836D01*
X366114Y385820D01*
X366207Y385802D01*
X366212Y385803D01*
X366218Y385802D01*
X366310Y385824D01*
X366403Y385844D01*
X366408Y385847D01*
X366413Y385848D01*
X366561Y385951D01*
X367187Y386577D01*
X370217Y386577D01*
X370843Y385951D01*
X370848Y385948D01*
X370851Y385944D01*
X370931Y385892D01*
X371010Y385840D01*
X371015Y385839D01*
X371020Y385836D01*
X371114Y385820D01*
X371207Y385802D01*
X371212Y385803D01*
X371218Y385802D01*
X371310Y385824D01*
X371403Y385844D01*
X371408Y385847D01*
X371413Y385848D01*
X371561Y385951D01*
X372187Y386577D01*
X374860Y386577D01*
X374865Y386578D01*
X374870Y386577D01*
X374963Y386598D01*
X375057Y386616D01*
X375061Y386619D01*
X375066Y386620D01*
X375144Y386676D01*
X375222Y386729D01*
X375225Y386733D01*
X375230Y386736D01*
X375280Y386818D01*
X375332Y386897D01*
X375333Y386902D01*
X375335Y386907D01*
X375367Y387084D01*
X375367Y387170D01*
X375529Y387331D01*
X375533Y387338D01*
X375540Y387342D01*
X375588Y387421D01*
X375640Y387498D01*
X375641Y387506D01*
X375645Y387512D01*
X375677Y387690D01*
X375677Y390067D01*
X376303Y390693D01*
X376306Y390698D01*
X376310Y390701D01*
X376362Y390781D01*
X376414Y390860D01*
X376415Y390865D01*
X376418Y390870D01*
X376434Y390964D01*
X376452Y391057D01*
X376451Y391062D01*
X376452Y391068D01*
X376430Y391160D01*
X376410Y391253D01*
X376407Y391258D01*
X376406Y391263D01*
X376303Y391411D01*
X375677Y392037D01*
X375677Y395067D01*
X376303Y395693D01*
X376306Y395698D01*
X376310Y395701D01*
X376362Y395781D01*
X376414Y395860D01*
X376415Y395865D01*
X376418Y395870D01*
X376434Y395963D01*
X376452Y396057D01*
X376451Y396062D01*
X376452Y396068D01*
X376430Y396160D01*
X376410Y396253D01*
X376407Y396258D01*
X376406Y396263D01*
X376303Y396411D01*
X375677Y397037D01*
X375677Y400067D01*
X376303Y400693D01*
X376306Y400698D01*
X376310Y400701D01*
X376362Y400781D01*
X376414Y400860D01*
X376415Y400865D01*
X376418Y400870D01*
X376434Y400964D01*
X376452Y401057D01*
X376451Y401062D01*
X376452Y401068D01*
X376430Y401160D01*
X376410Y401253D01*
X376407Y401258D01*
X376406Y401263D01*
X376303Y401411D01*
X375677Y402037D01*
X375677Y405067D01*
X376303Y405693D01*
X376306Y405698D01*
X376310Y405701D01*
X376362Y405781D01*
X376414Y405860D01*
X376415Y405865D01*
X376418Y405870D01*
X376434Y405964D01*
X376452Y406057D01*
X376451Y406062D01*
X376452Y406068D01*
X376430Y406159D01*
X376410Y406253D01*
X376407Y406258D01*
X376406Y406263D01*
X376303Y406411D01*
X375677Y407037D01*
X375677Y410067D01*
X376303Y410693D01*
X376306Y410698D01*
X376310Y410701D01*
X376362Y410781D01*
X376414Y410860D01*
X376415Y410865D01*
X376418Y410870D01*
X376434Y410964D01*
X376452Y411057D01*
X376451Y411062D01*
X376452Y411068D01*
X376430Y411160D01*
X376410Y411253D01*
X376407Y411258D01*
X376406Y411263D01*
X376303Y411411D01*
X375677Y412037D01*
X375677Y415067D01*
X376303Y415693D01*
X376306Y415698D01*
X376310Y415701D01*
X376362Y415781D01*
X376414Y415860D01*
X376415Y415865D01*
X376418Y415870D01*
X376434Y415964D01*
X376452Y416057D01*
X376451Y416062D01*
X376452Y416068D01*
X376430Y416160D01*
X376410Y416253D01*
X376407Y416258D01*
X376406Y416263D01*
X376303Y416411D01*
X375677Y417037D01*
X375677Y420067D01*
X376303Y420693D01*
X376306Y420698D01*
X376310Y420701D01*
X376362Y420781D01*
X376414Y420860D01*
X376415Y420865D01*
X376418Y420870D01*
X376434Y420964D01*
X376452Y421057D01*
X376451Y421062D01*
X376452Y421068D01*
X376430Y421160D01*
X376410Y421253D01*
X376407Y421258D01*
X376406Y421263D01*
X376303Y421411D01*
X375677Y422037D01*
X375677Y425067D01*
X376303Y425693D01*
X376306Y425698D01*
X376310Y425701D01*
X376362Y425781D01*
X376414Y425860D01*
X376415Y425865D01*
X376418Y425870D01*
X376434Y425964D01*
X376452Y426057D01*
X376451Y426062D01*
X376452Y426068D01*
X376430Y426160D01*
X376410Y426253D01*
X376407Y426258D01*
X376406Y426263D01*
X376303Y426411D01*
X375677Y427037D01*
X375677Y430067D01*
X376303Y430693D01*
X376306Y430698D01*
X376310Y430701D01*
X376362Y430781D01*
X376414Y430860D01*
X376415Y430865D01*
X376418Y430870D01*
X376434Y430964D01*
X376452Y431057D01*
X376451Y431062D01*
X376452Y431068D01*
X376430Y431160D01*
X376410Y431253D01*
X376407Y431258D01*
X376406Y431263D01*
X376303Y431411D01*
X375677Y432037D01*
X375677Y435067D01*
X376937Y436327D01*
X384468Y436327D01*
X385727Y435067D01*
X385727Y432037D01*
X385101Y431411D01*
X385100Y431409D01*
X385099Y431409D01*
X385097Y431406D01*
X385094Y431403D01*
X385043Y431323D01*
X384990Y431244D01*
X384989Y431239D01*
X384986Y431234D01*
X384970Y431140D01*
X384952Y431047D01*
X384953Y431042D01*
X384953Y431037D01*
X384974Y430944D01*
X384994Y430851D01*
X384997Y430846D01*
X384998Y430841D01*
X385101Y430693D01*
X385727Y430067D01*
X385727Y426854D01*
X385728Y426849D01*
X385727Y426844D01*
X385748Y426751D01*
X385766Y426657D01*
X385769Y426653D01*
X385770Y426648D01*
X385826Y426570D01*
X385879Y426492D01*
X385883Y426489D01*
X385886Y426485D01*
X385968Y426434D01*
X386047Y426382D01*
X386052Y426382D01*
X386057Y426379D01*
X386234Y426347D01*
X388044Y426347D01*
X388083Y426340D01*
X401907Y426340D01*
X401915Y426341D01*
X401923Y426340D01*
X402013Y426361D01*
X402104Y426379D01*
X402110Y426384D01*
X402118Y426386D01*
X402266Y426488D01*
X408997Y433219D01*
X409001Y433226D01*
X409008Y433230D01*
X409057Y433309D01*
X409108Y433386D01*
X409109Y433394D01*
X409114Y433401D01*
X409146Y433578D01*
X409146Y435492D01*
X410039Y436385D01*
X425302Y436385D01*
X426195Y435492D01*
X426195Y430229D01*
X425302Y429335D01*
X413228Y429335D01*
X413220Y429334D01*
X413213Y429335D01*
X413123Y429314D01*
X413031Y429296D01*
X413025Y429291D01*
X413017Y429290D01*
X412869Y429187D01*
X405061Y421378D01*
X405058Y421374D01*
X405053Y421371D01*
X405002Y421291D01*
X404950Y421211D01*
X404949Y421206D01*
X404946Y421202D01*
X404930Y421108D01*
X404912Y421014D01*
X404913Y421009D01*
X404912Y421004D01*
X404934Y420912D01*
X404954Y420818D01*
X404957Y420814D01*
X404958Y420809D01*
X405061Y420661D01*
X413188Y412534D01*
X413195Y412529D01*
X413199Y412523D01*
X413278Y412474D01*
X413355Y412423D01*
X413363Y412421D01*
X413369Y412417D01*
X413547Y412385D01*
X425302Y412385D01*
X426195Y411492D01*
X426195Y406352D01*
X426195Y406350D01*
X426195Y406347D01*
X426215Y406252D01*
X426235Y406156D01*
X426236Y406153D01*
X426237Y406151D01*
X426293Y406070D01*
X426347Y405990D01*
X426349Y405988D01*
X426351Y405986D01*
X426435Y405933D01*
X426515Y405881D01*
X426518Y405880D01*
X426520Y405879D01*
X426617Y405862D01*
X426713Y405845D01*
X426715Y405846D01*
X426718Y405845D01*
X426811Y405867D01*
X426908Y405889D01*
X426910Y405890D01*
X426913Y405891D01*
X427061Y405993D01*
X428698Y407631D01*
X428701Y407635D01*
X428705Y407638D01*
X428744Y407699D01*
X429659Y408591D01*
X429660Y408594D01*
X429663Y408596D01*
X430616Y409548D01*
X437729Y416662D01*
X437733Y416668D01*
X437740Y416673D01*
X437789Y416751D01*
X437840Y416828D01*
X437841Y416836D01*
X437846Y416843D01*
X437878Y417020D01*
X437878Y433883D01*
X437876Y433890D01*
X437877Y433898D01*
X437856Y433988D01*
X437838Y434079D01*
X437833Y434086D01*
X437832Y434093D01*
X437729Y434241D01*
X435383Y436587D01*
X435383Y440983D01*
X436827Y442427D01*
X436832Y442434D01*
X436838Y442438D01*
X436887Y442517D01*
X436938Y442594D01*
X436940Y442602D01*
X436944Y442608D01*
X436976Y442786D01*
X436976Y445520D01*
X436975Y445525D01*
X436976Y445530D01*
X436955Y445623D01*
X436936Y445716D01*
X436933Y445721D01*
X436932Y445726D01*
X436877Y445804D01*
X436824Y445882D01*
X436819Y445885D01*
X436816Y445889D01*
X436735Y445940D01*
X436655Y445991D01*
X436650Y445992D01*
X436646Y445995D01*
X436469Y446027D01*
X433111Y446027D01*
X430754Y448385D01*
X430754Y456719D01*
X433111Y459077D01*
X447446Y459077D01*
X449803Y456719D01*
X449803Y448385D01*
X447446Y446027D01*
X444088Y446027D01*
X444083Y446026D01*
X444078Y446027D01*
X443985Y446006D01*
X443892Y445988D01*
X443888Y445985D01*
X443883Y445983D01*
X443805Y445928D01*
X443726Y445875D01*
X443723Y445870D01*
X443719Y445867D01*
X443668Y445786D01*
X443617Y445707D01*
X443616Y445702D01*
X443613Y445697D01*
X443581Y445520D01*
X443581Y443609D01*
X443583Y443601D01*
X443581Y443593D01*
X443602Y443503D01*
X443621Y443412D01*
X443625Y443406D01*
X443627Y443398D01*
X443730Y443250D01*
X445997Y440983D01*
X445997Y436587D01*
X443616Y434206D01*
X443611Y434199D01*
X443605Y434195D01*
X443556Y434116D01*
X443505Y434039D01*
X443503Y434031D01*
X443499Y434024D01*
X443467Y433847D01*
X443467Y414495D01*
X441681Y412709D01*
X435907Y406935D01*
X435906Y406933D01*
X435904Y406932D01*
X435851Y406851D01*
X435796Y406768D01*
X435796Y406766D01*
X435794Y406764D01*
X435777Y406666D01*
X435758Y406571D01*
X435759Y406569D01*
X435758Y406567D01*
X435779Y406472D01*
X435800Y406375D01*
X435801Y406373D01*
X435802Y406371D01*
X435902Y406222D01*
X445212Y396678D01*
X445222Y396672D01*
X445228Y396663D01*
X445304Y396615D01*
X445378Y396565D01*
X445389Y396563D01*
X445398Y396557D01*
X445566Y396526D01*
X445574Y396525D01*
X445575Y396525D01*
X445576Y396525D01*
X455212Y396525D01*
X456105Y395632D01*
X456105Y383368D01*
X455212Y382475D01*
X443948Y382475D01*
X443055Y383368D01*
X443055Y390678D01*
X443054Y390683D01*
X443055Y390687D01*
X443035Y390780D01*
X443016Y390875D01*
X443013Y390878D01*
X443012Y390883D01*
X442911Y391032D01*
X439155Y394883D01*
X439150Y394886D01*
X439147Y394891D01*
X439067Y394943D01*
X438990Y394996D01*
X438984Y394997D01*
X438979Y395000D01*
X438886Y395017D01*
X438793Y395036D01*
X438787Y395035D01*
X438782Y395036D01*
X438689Y395015D01*
X438597Y394997D01*
X438592Y394993D01*
X438586Y394992D01*
X438508Y394937D01*
X438430Y394884D01*
X438427Y394880D01*
X438423Y394876D01*
X438372Y394795D01*
X438321Y394717D01*
X438320Y394711D01*
X438317Y394706D01*
X438285Y394529D01*
X438285Y382098D01*
X437392Y381205D01*
X421128Y381205D01*
X420235Y382098D01*
X420235Y385690D01*
X420234Y385695D01*
X420235Y385700D01*
X420214Y385793D01*
X420196Y385887D01*
X420193Y385891D01*
X420192Y385896D01*
X420136Y385974D01*
X420083Y386052D01*
X420079Y386055D01*
X420076Y386059D01*
X419994Y386110D01*
X419915Y386162D01*
X419910Y386162D01*
X419905Y386165D01*
X419728Y386197D01*
X415972Y386197D01*
X415967Y386196D01*
X415962Y386197D01*
X415869Y386176D01*
X415775Y386158D01*
X415771Y386155D01*
X415766Y386154D01*
X415688Y386098D01*
X415610Y386045D01*
X415607Y386041D01*
X415603Y386038D01*
X415552Y385956D01*
X415500Y385877D01*
X415500Y385872D01*
X415497Y385867D01*
X415465Y385690D01*
X415465Y383368D01*
X414572Y382475D01*
X403308Y382475D01*
X402441Y383343D01*
X402438Y383345D01*
X402437Y383347D01*
X402357Y383399D01*
X402274Y383454D01*
X402271Y383455D01*
X402269Y383456D01*
X402173Y383473D01*
X402077Y383492D01*
X402074Y383491D01*
X402072Y383492D01*
X401975Y383470D01*
X401881Y383450D01*
X401879Y383449D01*
X401876Y383448D01*
X401796Y383391D01*
X401716Y383336D01*
X401715Y383333D01*
X401713Y383332D01*
X401661Y383248D01*
X401609Y383167D01*
X401608Y383164D01*
X401607Y383162D01*
X401575Y382984D01*
X401575Y379016D01*
X401575Y379013D01*
X401575Y379010D01*
X401595Y378916D01*
X401614Y378819D01*
X401616Y378817D01*
X401616Y378814D01*
X401672Y378734D01*
X401727Y378653D01*
X401729Y378652D01*
X401731Y378650D01*
X401814Y378596D01*
X401895Y378544D01*
X401898Y378544D01*
X401900Y378542D01*
X401996Y378526D01*
X402092Y378508D01*
X402095Y378509D01*
X402097Y378509D01*
X402192Y378531D01*
X402288Y378552D01*
X402290Y378554D01*
X402293Y378554D01*
X402441Y378657D01*
X403308Y379525D01*
X414572Y379525D01*
X415465Y378632D01*
X415465Y374040D01*
X415466Y374035D01*
X415465Y374030D01*
X415486Y373937D01*
X415504Y373843D01*
X415507Y373839D01*
X415508Y373834D01*
X415564Y373756D01*
X415617Y373678D01*
X415621Y373675D01*
X415624Y373671D01*
X415706Y373620D01*
X415785Y373568D01*
X415790Y373568D01*
X415795Y373565D01*
X415972Y373533D01*
X419728Y373533D01*
X419733Y373534D01*
X419738Y373533D01*
X419831Y373554D01*
X419925Y373572D01*
X419929Y373575D01*
X419934Y373576D01*
X420012Y373632D01*
X420090Y373685D01*
X420093Y373689D01*
X420097Y373692D01*
X420148Y373774D01*
X420200Y373853D01*
X420200Y373858D01*
X420203Y373863D01*
X420235Y374040D01*
X420235Y377362D01*
X421128Y378255D01*
X437392Y378255D01*
X438285Y377362D01*
X438285Y363098D01*
X437392Y362205D01*
X421128Y362205D01*
X420235Y363098D01*
X420235Y366420D01*
X420234Y366425D01*
X420235Y366430D01*
X420214Y366523D01*
X420196Y366617D01*
X420193Y366621D01*
X420192Y366626D01*
X420136Y366704D01*
X420083Y366782D01*
X420079Y366785D01*
X420076Y366789D01*
X419994Y366840D01*
X419915Y366892D01*
X419910Y366892D01*
X419905Y366895D01*
X419728Y366927D01*
X415972Y366927D01*
X415967Y366926D01*
X415962Y366927D01*
X415869Y366906D01*
X415775Y366888D01*
X415771Y366885D01*
X415766Y366884D01*
X415688Y366828D01*
X415610Y366775D01*
X415607Y366771D01*
X415603Y366768D01*
X415552Y366686D01*
X415500Y366607D01*
X415500Y366602D01*
X415497Y366597D01*
X415465Y366420D01*
X415465Y366368D01*
X414572Y365475D01*
X411024Y365475D01*
X411019Y365474D01*
X411013Y365475D01*
X410920Y365454D01*
X410827Y365436D01*
X410823Y365433D01*
X410818Y365432D01*
X410740Y365376D01*
X410661Y365323D01*
X410659Y365319D01*
X410654Y365316D01*
X410604Y365234D01*
X410552Y365155D01*
X410551Y365150D01*
X410548Y365145D01*
X410516Y364968D01*
X410516Y353004D01*
X410517Y352999D01*
X410517Y352994D01*
X410537Y352901D01*
X410556Y352807D01*
X410559Y352803D01*
X410560Y352798D01*
X410615Y352720D01*
X410669Y352642D01*
X410673Y352639D01*
X410676Y352635D01*
X410757Y352584D01*
X410837Y352532D01*
X410842Y352532D01*
X410846Y352529D01*
X411024Y352497D01*
X412408Y352497D01*
X415517Y349388D01*
X415517Y344992D01*
X412408Y341883D01*
X408784Y341883D01*
X408781Y341883D01*
X408778Y341883D01*
X408684Y341863D01*
X408587Y341844D01*
X408585Y341842D01*
X408582Y341842D01*
X408502Y341786D01*
X408421Y341731D01*
X408420Y341729D01*
X408418Y341727D01*
X408365Y341644D01*
X408312Y341563D01*
X408312Y341560D01*
X408310Y341558D01*
X408294Y341462D01*
X408277Y341366D01*
X408277Y341363D01*
X408277Y341361D01*
X408299Y341265D01*
X408320Y341170D01*
X408322Y341168D01*
X408322Y341165D01*
X408425Y341017D01*
X408679Y340763D01*
X408686Y340759D01*
X408690Y340753D01*
X408769Y340703D01*
X408846Y340652D01*
X408854Y340651D01*
X408860Y340647D01*
X409038Y340615D01*
X430861Y340615D01*
X430869Y340616D01*
X430876Y340615D01*
X430966Y340636D01*
X431057Y340654D01*
X431064Y340659D01*
X431072Y340661D01*
X431220Y340763D01*
X467909Y377453D01*
X467914Y377460D01*
X467920Y377464D01*
X467969Y377543D01*
X468020Y377620D01*
X468022Y377628D01*
X468026Y377634D01*
X468058Y377812D01*
X468058Y383065D01*
X468056Y383073D01*
X468058Y383080D01*
X468037Y383170D01*
X468018Y383261D01*
X468014Y383268D01*
X468012Y383275D01*
X467909Y383423D01*
X465546Y385787D01*
X465546Y390183D01*
X467980Y392617D01*
X467996Y392641D01*
X468017Y392658D01*
X468051Y392723D01*
X468091Y392784D01*
X468096Y392812D01*
X468109Y392836D01*
X468115Y392909D01*
X468129Y392981D01*
X468123Y393008D01*
X468125Y393036D01*
X468102Y393106D01*
X468087Y393177D01*
X468071Y393200D01*
X468063Y393227D01*
X468015Y393282D01*
X467973Y393342D01*
X467949Y393357D01*
X467931Y393378D01*
X467851Y393419D01*
X467804Y393450D01*
X467788Y393452D01*
X467771Y393461D01*
X466423Y393877D01*
X466353Y393884D01*
X466284Y393900D01*
X466251Y393895D01*
X466223Y393897D01*
X466174Y393882D01*
X466106Y393871D01*
X466101Y393870D01*
X465516Y394151D01*
X465482Y394160D01*
X465446Y394179D01*
X464825Y394370D01*
X464823Y394375D01*
X464778Y394430D01*
X464740Y394490D01*
X464714Y394509D01*
X464696Y394531D01*
X464651Y394555D01*
X464595Y394595D01*
X462458Y395625D01*
X462390Y395642D01*
X462324Y395668D01*
X462291Y395668D01*
X462264Y395675D01*
X462213Y395667D01*
X462144Y395666D01*
X462139Y395665D01*
X461603Y396031D01*
X461571Y396045D01*
X461537Y396069D01*
X460952Y396351D01*
X460951Y396356D01*
X460915Y396417D01*
X460886Y396481D01*
X460863Y396504D01*
X460848Y396528D01*
X460807Y396559D01*
X460758Y396608D01*
X458799Y397944D01*
X458734Y397972D01*
X458672Y398007D01*
X458640Y398011D01*
X458614Y398022D01*
X458563Y398022D01*
X458494Y398032D01*
X458489Y398032D01*
X458013Y398473D01*
X457984Y398491D01*
X457954Y398521D01*
X457418Y398886D01*
X457417Y398892D01*
X457390Y398957D01*
X457372Y399025D01*
X457352Y399052D01*
X457341Y399077D01*
X457305Y399114D01*
X457263Y399169D01*
X455526Y400783D01*
X455465Y400820D01*
X455410Y400863D01*
X455379Y400873D01*
X455355Y400887D01*
X455304Y400895D01*
X455237Y400915D01*
X455232Y400916D01*
X454828Y401423D01*
X454801Y401446D01*
X454776Y401479D01*
X454300Y401920D01*
X454300Y401926D01*
X454284Y401995D01*
X454276Y402065D01*
X454260Y402093D01*
X454253Y402121D01*
X454223Y402162D01*
X454190Y402223D01*
X452712Y404078D01*
X452658Y404123D01*
X452610Y404175D01*
X452580Y404189D01*
X452559Y404207D01*
X452509Y404222D01*
X452447Y404251D01*
X452442Y404253D01*
X452117Y404815D01*
X452094Y404841D01*
X452075Y404878D01*
X451670Y405385D01*
X451671Y405390D01*
X451665Y405461D01*
X451667Y405531D01*
X451656Y405562D01*
X451654Y405590D01*
X451630Y405636D01*
X451606Y405701D01*
X450421Y407755D01*
X450374Y407808D01*
X450334Y407866D01*
X450307Y407884D01*
X450289Y407905D01*
X450242Y407928D01*
X450185Y407966D01*
X450180Y407969D01*
X449943Y408573D01*
X449924Y408602D01*
X449910Y408641D01*
X449586Y409203D01*
X449587Y409208D01*
X449592Y409279D01*
X449604Y409348D01*
X449598Y409380D01*
X449600Y409408D01*
X449583Y409457D01*
X449569Y409525D01*
X448704Y411733D01*
X448666Y411792D01*
X448635Y411855D01*
X448610Y411878D01*
X448595Y411901D01*
X448553Y411930D01*
X448502Y411977D01*
X448497Y411980D01*
X448353Y412613D01*
X448338Y412644D01*
X448330Y412685D01*
X448093Y413289D01*
X448096Y413294D01*
X448111Y413363D01*
X448134Y413430D01*
X448132Y413463D01*
X448138Y413490D01*
X448129Y413541D01*
X448125Y413610D01*
X447598Y415922D01*
X447569Y415986D01*
X447548Y416054D01*
X447528Y416079D01*
X447516Y416105D01*
X447478Y416140D01*
X447435Y416194D01*
X447431Y416197D01*
X447382Y416844D01*
X447373Y416878D01*
X447371Y416919D01*
X447227Y417552D01*
X447230Y417557D01*
X447255Y417623D01*
X447288Y417685D01*
X447291Y417718D01*
X447301Y417744D01*
X447299Y417796D01*
X447306Y417864D01*
X447130Y420229D01*
X447111Y420297D01*
X447100Y420367D01*
X447083Y420395D01*
X447076Y420422D01*
X447044Y420463D01*
X447009Y420522D01*
X447005Y420526D01*
X447054Y421173D01*
X447049Y421208D01*
X447054Y421249D01*
X447005Y421896D01*
X447009Y421900D01*
X447044Y421962D01*
X447085Y422019D01*
X447094Y422051D01*
X447107Y422075D01*
X447113Y422127D01*
X447131Y422193D01*
X447308Y424558D01*
X447300Y424628D01*
X447299Y424699D01*
X447287Y424729D01*
X447284Y424757D01*
X447258Y424802D01*
X447232Y424866D01*
X447229Y424871D01*
X447374Y425503D01*
X447375Y425538D01*
X447385Y425578D01*
X447434Y426225D01*
X447438Y426229D01*
X447482Y426285D01*
X447531Y426335D01*
X447544Y426365D01*
X447561Y426387D01*
X447575Y426437D01*
X447602Y426500D01*
X448130Y428812D01*
X448132Y428883D01*
X448142Y428953D01*
X448135Y428984D01*
X448135Y429012D01*
X448117Y429061D01*
X448101Y429128D01*
X448099Y429133D01*
X448336Y429737D01*
X448342Y429771D01*
X448358Y429809D01*
X448503Y430442D01*
X448507Y430445D01*
X448559Y430493D01*
X448615Y430536D01*
X448632Y430563D01*
X448653Y430583D01*
X448674Y430630D01*
X448710Y430689D01*
X449577Y432896D01*
X449589Y432966D01*
X449610Y433033D01*
X449607Y433066D01*
X449612Y433093D01*
X449601Y433144D01*
X449595Y433213D01*
X449593Y433218D01*
X449918Y433780D01*
X449929Y433813D01*
X449951Y433848D01*
X450188Y434452D01*
X450193Y434454D01*
X450251Y434495D01*
X450313Y434528D01*
X450335Y434553D01*
X450358Y434569D01*
X450385Y434613D01*
X450430Y434665D01*
X451616Y436719D01*
X451639Y436786D01*
X451669Y436849D01*
X451671Y436882D01*
X451680Y436909D01*
X451676Y436960D01*
X451681Y437029D01*
X451680Y437035D01*
X452085Y437542D01*
X452101Y437573D01*
X452128Y437604D01*
X452452Y438166D01*
X452458Y438168D01*
X452502Y438190D01*
X452527Y438195D01*
X452547Y438208D01*
X452588Y438223D01*
X452612Y438244D01*
X452637Y438257D01*
X452665Y438288D01*
X452693Y438307D01*
X452704Y438324D01*
X452723Y438341D01*
X454202Y440195D01*
X454234Y440258D01*
X454274Y440316D01*
X454281Y440348D01*
X454294Y440373D01*
X454298Y440425D01*
X454313Y440492D01*
X454313Y440498D01*
X454789Y440939D01*
X454809Y440967D01*
X454840Y440994D01*
X455245Y441502D01*
X455250Y441502D01*
X455318Y441524D01*
X455387Y441537D01*
X455415Y441555D01*
X455441Y441564D01*
X455480Y441597D01*
X455539Y441634D01*
X457278Y443247D01*
X457319Y443304D01*
X457367Y443356D01*
X457378Y443387D01*
X457395Y443409D01*
X457406Y443460D01*
X457431Y443524D01*
X457432Y443530D01*
X457968Y443895D01*
X457993Y443920D01*
X458028Y443942D01*
X458503Y444383D01*
X458509Y444383D01*
X458579Y444395D01*
X458649Y444398D01*
X458679Y444411D01*
X458707Y444415D01*
X458751Y444443D01*
X458814Y444471D01*
X459934Y445234D01*
X459994Y445296D01*
X460058Y445355D01*
X460064Y445368D01*
X460074Y445378D01*
X460106Y445458D01*
X460142Y445537D01*
X460143Y445551D01*
X460148Y445564D01*
X460146Y445650D01*
X460149Y445737D01*
X460144Y445751D01*
X460143Y445764D01*
X460121Y445815D01*
X460088Y445907D01*
X441197Y478627D01*
X442516Y479251D01*
X442538Y479268D01*
X442565Y479278D01*
X442617Y479327D01*
X442675Y479370D01*
X442689Y479395D01*
X442710Y479414D01*
X442739Y479480D01*
X442775Y479542D01*
X442778Y479570D01*
X442790Y479596D01*
X442791Y479668D01*
X442800Y479739D01*
X442792Y479766D01*
X442793Y479795D01*
X442757Y479890D01*
X442746Y479930D01*
X442739Y479939D01*
X442735Y479951D01*
X433235Y496451D01*
X433183Y496510D01*
X433137Y496572D01*
X433118Y496583D01*
X433103Y496600D01*
X433033Y496634D01*
X432966Y496674D01*
X432942Y496678D01*
X432924Y496686D01*
X432879Y496688D01*
X432802Y496701D01*
X413802Y496701D01*
X413774Y496696D01*
X413746Y496698D01*
X413678Y496676D01*
X413607Y496662D01*
X413584Y496646D01*
X413557Y496637D01*
X413502Y496590D01*
X413443Y496549D01*
X413428Y496525D01*
X413407Y496507D01*
X413375Y496442D01*
X413336Y496382D01*
X413331Y496354D01*
X413319Y496328D01*
X413310Y496227D01*
X413303Y496185D01*
X413305Y496175D01*
X413304Y496162D01*
X413422Y494685D01*
X375589Y494685D01*
X375504Y494668D01*
X375419Y494656D01*
X375407Y494648D01*
X375393Y494646D01*
X375321Y494597D01*
X375247Y494552D01*
X375239Y494541D01*
X375227Y494533D01*
X375180Y494461D01*
X375129Y494390D01*
X375125Y494376D01*
X375118Y494365D01*
X375108Y494310D01*
X375084Y494216D01*
X374982Y492857D01*
X374991Y492787D01*
X374991Y492717D01*
X375003Y492686D01*
X375007Y492658D01*
X375032Y492614D01*
X375058Y492550D01*
X375061Y492545D01*
X374917Y491912D01*
X374916Y491878D01*
X374905Y491837D01*
X374857Y491190D01*
X374853Y491187D01*
X374809Y491131D01*
X374760Y491081D01*
X374747Y491051D01*
X374730Y491029D01*
X374716Y490979D01*
X374689Y490915D01*
X374162Y488605D01*
X374160Y488535D01*
X374150Y488465D01*
X374157Y488433D01*
X374157Y488405D01*
X374175Y488357D01*
X374191Y488290D01*
X374194Y488285D01*
X373957Y487681D01*
X373950Y487646D01*
X373934Y487608D01*
X373790Y486975D01*
X373785Y486973D01*
X373734Y486924D01*
X373677Y486882D01*
X373660Y486854D01*
X373640Y486834D01*
X373619Y486787D01*
X373583Y486728D01*
X372717Y484523D01*
X372705Y484453D01*
X372685Y484386D01*
X372687Y484353D01*
X372682Y484326D01*
X372694Y484275D01*
X372700Y484206D01*
X372701Y484201D01*
X372377Y483639D01*
X372365Y483606D01*
X372344Y483571D01*
X372107Y482967D01*
X372101Y482965D01*
X372044Y482924D01*
X371981Y482891D01*
X371960Y482866D01*
X371937Y482850D01*
X371910Y482806D01*
X371865Y482753D01*
X370680Y480702D01*
X370658Y480635D01*
X370628Y480571D01*
X370625Y480538D01*
X370617Y480512D01*
X370620Y480460D01*
X370616Y480391D01*
X370616Y480386D01*
X370212Y479878D01*
X370196Y479847D01*
X370169Y479816D01*
X369845Y479254D01*
X369839Y479252D01*
X369776Y479221D01*
X369710Y479197D01*
X369685Y479176D01*
X369660Y479163D01*
X369626Y479124D01*
X369590Y479092D01*
X369587Y479090D01*
X369586Y479089D01*
X369574Y479079D01*
X368097Y477226D01*
X368065Y477164D01*
X368025Y477105D01*
X368018Y477073D01*
X368005Y477048D01*
X368001Y476997D01*
X367987Y476929D01*
X367986Y476924D01*
X367511Y476482D01*
X367490Y476454D01*
X367459Y476427D01*
X367055Y475919D01*
X367049Y475919D01*
X366982Y475897D01*
X366913Y475884D01*
X366885Y475866D01*
X366858Y475857D01*
X366819Y475824D01*
X366761Y475786D01*
X365024Y474175D01*
X364983Y474118D01*
X364935Y474066D01*
X364923Y474035D01*
X364907Y474012D01*
X364895Y473962D01*
X364871Y473897D01*
X364870Y473892D01*
X364334Y473527D01*
X364309Y473502D01*
X364274Y473479D01*
X363799Y473038D01*
X363793Y473038D01*
X363724Y473027D01*
X363653Y473024D01*
X363623Y473010D01*
X363595Y473006D01*
X363552Y472979D01*
X363488Y472950D01*
X361531Y471616D01*
X361482Y471565D01*
X361427Y471521D01*
X361411Y471492D01*
X361391Y471472D01*
X361372Y471424D01*
X361338Y471364D01*
X361336Y471359D01*
X360751Y471077D01*
X360724Y471056D01*
X360686Y471039D01*
X360150Y470674D01*
X360144Y470675D01*
X360074Y470674D01*
X360003Y470682D01*
X359972Y470673D01*
X359944Y470673D01*
X359897Y470652D01*
X359830Y470634D01*
X357695Y469606D01*
X357639Y469563D01*
X357578Y469527D01*
X357558Y469502D01*
X357536Y469485D01*
X357510Y469440D01*
X357467Y469386D01*
X357464Y469381D01*
X356844Y469190D01*
X356814Y469173D01*
X356774Y469162D01*
X356189Y468880D01*
X356184Y468882D01*
X356114Y468892D01*
X356046Y468910D01*
X356013Y468906D01*
X355985Y468910D01*
X355935Y468896D01*
X355867Y468888D01*
X353603Y468190D01*
X353541Y468156D01*
X353475Y468130D01*
X353452Y468107D01*
X353427Y468094D01*
X353395Y468054D01*
X353344Y468006D01*
X353341Y468002D01*
X352700Y467905D01*
X352667Y467893D01*
X352626Y467888D01*
X352005Y467697D01*
X352001Y467700D01*
X351933Y467720D01*
X351868Y467747D01*
X351835Y467748D01*
X351808Y467756D01*
X351757Y467751D01*
X351688Y467753D01*
X349345Y467400D01*
X349279Y467375D01*
X349210Y467359D01*
X349183Y467341D01*
X349157Y467331D01*
X349119Y467296D01*
X349062Y467257D01*
X349058Y467253D01*
X348409Y467253D01*
X348375Y467246D01*
X348334Y467247D01*
X347692Y467150D01*
X347688Y467154D01*
X347624Y467183D01*
X347564Y467221D01*
X347532Y467227D01*
X347506Y467238D01*
X347455Y467240D01*
X347387Y467253D01*
X345017Y467253D01*
X344948Y467239D01*
X344878Y467233D01*
X344848Y467219D01*
X344821Y467213D01*
X344778Y467184D01*
X344716Y467154D01*
X344712Y467150D01*
X344070Y467247D01*
X344035Y467245D01*
X343995Y467253D01*
X343346Y467253D01*
X343342Y467257D01*
X343283Y467296D01*
X343229Y467342D01*
X343198Y467352D01*
X343175Y467368D01*
X343124Y467377D01*
X343059Y467400D01*
X341125Y467691D01*
X341079Y467689D01*
X341034Y467696D01*
X340980Y467684D01*
X340925Y467681D01*
X340883Y467661D01*
X340838Y467651D01*
X340787Y467615D01*
X340744Y467594D01*
X340722Y467570D01*
X340690Y467548D01*
X336645Y463503D01*
X336641Y463496D01*
X336635Y463492D01*
X336586Y463413D01*
X336534Y463336D01*
X336533Y463328D01*
X336529Y463322D01*
X336497Y463144D01*
X336497Y456084D01*
X336498Y456079D01*
X336497Y456074D01*
X336518Y455981D01*
X336536Y455888D01*
X336539Y455883D01*
X336540Y455878D01*
X336596Y455800D01*
X336649Y455722D01*
X336653Y455719D01*
X336656Y455715D01*
X336738Y455664D01*
X336817Y455613D01*
X336822Y455612D01*
X336827Y455609D01*
X337004Y455577D01*
X340217Y455577D01*
X340843Y454951D01*
X340848Y454948D01*
X340851Y454944D01*
X340931Y454893D01*
X341010Y454840D01*
X341015Y454839D01*
X341020Y454836D01*
X341114Y454820D01*
X341207Y454802D01*
X341212Y454803D01*
X341217Y454803D01*
X341310Y454824D01*
X341403Y454844D01*
X341408Y454847D01*
X341413Y454848D01*
X341561Y454951D01*
X342187Y455577D01*
X345217Y455577D01*
X345843Y454951D01*
X345848Y454948D01*
X345851Y454944D01*
X345931Y454893D01*
X346010Y454840D01*
X346015Y454839D01*
X346020Y454836D01*
X346114Y454820D01*
X346207Y454802D01*
X346212Y454803D01*
X346217Y454803D01*
X346310Y454824D01*
X346403Y454844D01*
X346408Y454847D01*
X346413Y454848D01*
X346561Y454951D01*
X347187Y455577D01*
X350400Y455577D01*
X350405Y455578D01*
X350410Y455577D01*
X350503Y455598D01*
X350597Y455616D01*
X350601Y455619D01*
X350606Y455620D01*
X350684Y455676D01*
X350762Y455729D01*
X350765Y455733D01*
X350769Y455736D01*
X350820Y455818D01*
X350872Y455897D01*
X350872Y455902D01*
X350875Y455907D01*
X350907Y456084D01*
X350907Y456674D01*
X352693Y458460D01*
X356887Y462654D01*
X358673Y464440D01*
X361222Y464440D01*
X361229Y464441D01*
X361237Y464440D01*
X361327Y464461D01*
X361418Y464479D01*
X361425Y464484D01*
X361432Y464486D01*
X361580Y464588D01*
X363944Y466952D01*
X368340Y466952D01*
X371449Y463843D01*
X371449Y459447D01*
X368340Y456338D01*
X365681Y456338D01*
X365678Y456338D01*
X365675Y456338D01*
X365580Y456318D01*
X365484Y456299D01*
X365482Y456297D01*
X365479Y456297D01*
X365399Y456241D01*
X365318Y456186D01*
X365317Y456184D01*
X365315Y456182D01*
X365261Y456099D01*
X365209Y456018D01*
X365209Y456015D01*
X365207Y456013D01*
X365191Y455917D01*
X365173Y455821D01*
X365174Y455818D01*
X365174Y455816D01*
X365195Y455721D01*
X365217Y455625D01*
X365218Y455623D01*
X365219Y455620D01*
X365322Y455472D01*
X366477Y454318D01*
X366477Y446787D01*
X365217Y445527D01*
X362187Y445527D01*
X361561Y446153D01*
X361556Y446156D01*
X361553Y446160D01*
X361473Y446212D01*
X361394Y446264D01*
X361389Y446265D01*
X361384Y446268D01*
X361290Y446284D01*
X361197Y446302D01*
X361192Y446301D01*
X361186Y446302D01*
X361094Y446280D01*
X361001Y446260D01*
X360996Y446257D01*
X360991Y446256D01*
X360843Y446153D01*
X360217Y445527D01*
X357187Y445527D01*
X356561Y446153D01*
X356556Y446156D01*
X356553Y446160D01*
X356473Y446212D01*
X356394Y446264D01*
X356389Y446265D01*
X356384Y446268D01*
X356290Y446284D01*
X356197Y446302D01*
X356192Y446301D01*
X356186Y446302D01*
X356094Y446280D01*
X356001Y446260D01*
X355996Y446257D01*
X355991Y446256D01*
X355843Y446153D01*
X355217Y445527D01*
X352187Y445527D01*
X351561Y446153D01*
X351556Y446156D01*
X351553Y446160D01*
X351473Y446212D01*
X351394Y446264D01*
X351389Y446265D01*
X351384Y446268D01*
X351290Y446284D01*
X351197Y446302D01*
X351192Y446301D01*
X351186Y446302D01*
X351094Y446280D01*
X351001Y446260D01*
X350996Y446257D01*
X350991Y446256D01*
X350843Y446153D01*
X350217Y445527D01*
X347187Y445527D01*
X346561Y446153D01*
X346556Y446156D01*
X346553Y446160D01*
X346473Y446212D01*
X346394Y446264D01*
X346389Y446265D01*
X346384Y446268D01*
X346290Y446284D01*
X346197Y446302D01*
X346192Y446301D01*
X346186Y446302D01*
X346094Y446280D01*
X346001Y446260D01*
X345996Y446257D01*
X345991Y446256D01*
X345843Y446153D01*
X345217Y445527D01*
X342187Y445527D01*
X341561Y446153D01*
X341556Y446156D01*
X341553Y446160D01*
X341473Y446212D01*
X341394Y446264D01*
X341389Y446265D01*
X341384Y446268D01*
X341290Y446284D01*
X341197Y446302D01*
X341192Y446301D01*
X341186Y446302D01*
X341094Y446280D01*
X341001Y446260D01*
X340996Y446257D01*
X340991Y446256D01*
X340843Y446153D01*
X340217Y445527D01*
X337187Y445527D01*
X336561Y446153D01*
X336556Y446156D01*
X336553Y446160D01*
X336473Y446212D01*
X336394Y446264D01*
X336389Y446265D01*
X336384Y446268D01*
X336290Y446284D01*
X336197Y446302D01*
X336192Y446301D01*
X336186Y446302D01*
X336094Y446280D01*
X336001Y446260D01*
X335996Y446257D01*
X335991Y446256D01*
X335843Y446153D01*
X335217Y445527D01*
X332187Y445527D01*
X331561Y446153D01*
X331556Y446156D01*
X331553Y446160D01*
X331473Y446212D01*
X331394Y446264D01*
X331389Y446265D01*
X331384Y446268D01*
X331290Y446284D01*
X331197Y446302D01*
X331192Y446301D01*
X331186Y446302D01*
X331094Y446280D01*
X331001Y446260D01*
X330996Y446257D01*
X330991Y446256D01*
X330843Y446153D01*
X330217Y445527D01*
X327187Y445527D01*
X326561Y446153D01*
X326556Y446156D01*
X326553Y446160D01*
X326473Y446211D01*
X326394Y446264D01*
X326389Y446265D01*
X326384Y446268D01*
X326290Y446284D01*
X326197Y446302D01*
X326192Y446301D01*
X326187Y446302D01*
X326094Y446280D01*
X326001Y446260D01*
X325996Y446257D01*
X325991Y446256D01*
X325843Y446153D01*
X325217Y445527D01*
X322187Y445527D01*
X321561Y446153D01*
X321556Y446156D01*
X321553Y446160D01*
X321473Y446212D01*
X321394Y446264D01*
X321389Y446265D01*
X321384Y446268D01*
X321290Y446284D01*
X321197Y446302D01*
X321192Y446301D01*
X321186Y446302D01*
X321094Y446280D01*
X321001Y446260D01*
X320996Y446257D01*
X320991Y446256D01*
X320843Y446153D01*
X320217Y445527D01*
X317234Y445527D01*
X317229Y445526D01*
X317224Y445527D01*
X317131Y445506D01*
X317037Y445488D01*
X317033Y445485D01*
X317028Y445484D01*
X316950Y445428D01*
X316872Y445375D01*
X316869Y445371D01*
X316864Y445368D01*
X316814Y445286D01*
X316762Y445207D01*
X316761Y445202D01*
X316759Y445197D01*
X316727Y445020D01*
X316727Y442037D01*
X315467Y440777D01*
X313090Y440777D01*
X313082Y440776D01*
X313074Y440777D01*
X312989Y440757D01*
X310425Y440757D01*
X310314Y440777D01*
X307936Y440777D01*
X306677Y442037D01*
X306677Y445067D01*
X306726Y445116D01*
X306731Y445123D01*
X306737Y445128D01*
X306786Y445206D01*
X306837Y445283D01*
X306839Y445291D01*
X306843Y445298D01*
X306875Y445475D01*
X306875Y446438D01*
X306873Y446446D01*
X306875Y446453D01*
X306854Y446543D01*
X306835Y446634D01*
X306831Y446641D01*
X306829Y446648D01*
X306726Y446796D01*
X304363Y449160D01*
X304363Y453556D01*
X305188Y454381D01*
X305190Y454384D01*
X305192Y454385D01*
X305244Y454465D01*
X305299Y454548D01*
X305300Y454551D01*
X305301Y454553D01*
X305318Y454649D01*
X305337Y454745D01*
X305336Y454748D01*
X305337Y454750D01*
X305315Y454847D01*
X305295Y454941D01*
X305294Y454943D01*
X305293Y454946D01*
X305236Y455026D01*
X305181Y455106D01*
X305179Y455107D01*
X305177Y455110D01*
X305094Y455161D01*
X305012Y455213D01*
X305009Y455214D01*
X305007Y455215D01*
X304829Y455247D01*
X301570Y455247D01*
X299183Y457634D01*
X299173Y457684D01*
X299171Y457687D01*
X299171Y457689D01*
X299115Y457770D01*
X299060Y457850D01*
X299058Y457852D01*
X299056Y457854D01*
X298973Y457907D01*
X298892Y457959D01*
X298889Y457960D01*
X298887Y457961D01*
X298791Y457978D01*
X298695Y457995D01*
X298692Y457994D01*
X298690Y457995D01*
X298595Y457973D01*
X298499Y457951D01*
X298497Y457950D01*
X298494Y457949D01*
X298346Y457847D01*
X297710Y457210D01*
X297706Y457204D01*
X297700Y457199D01*
X297651Y457120D01*
X297599Y457043D01*
X297598Y457036D01*
X297594Y457029D01*
X297562Y456852D01*
X297562Y447250D01*
X297563Y447242D01*
X297562Y447234D01*
X297583Y447144D01*
X297601Y447053D01*
X297606Y447047D01*
X297608Y447039D01*
X297710Y446891D01*
X308106Y436495D01*
X308112Y436491D01*
X308117Y436485D01*
X308196Y436436D01*
X308273Y436384D01*
X308281Y436383D01*
X308287Y436379D01*
X308465Y436347D01*
X312979Y436347D01*
X313090Y436327D01*
X315467Y436327D01*
X316727Y435067D01*
X316727Y432037D01*
X316101Y431411D01*
X316100Y431409D01*
X316099Y431409D01*
X316097Y431406D01*
X316094Y431403D01*
X316042Y431323D01*
X315990Y431244D01*
X315989Y431239D01*
X315986Y431234D01*
X315970Y431140D01*
X315952Y431047D01*
X315953Y431042D01*
X315952Y431036D01*
X315974Y430944D01*
X315994Y430851D01*
X315997Y430846D01*
X315998Y430841D01*
X316101Y430693D01*
X316727Y430067D01*
X316727Y427037D01*
X316101Y426411D01*
X316098Y426406D01*
X316094Y426403D01*
X316042Y426323D01*
X315990Y426244D01*
X315989Y426239D01*
X315986Y426234D01*
X315970Y426140D01*
X315952Y426047D01*
X315953Y426042D01*
X315952Y426036D01*
X315974Y425944D01*
X315994Y425851D01*
X315997Y425846D01*
X315998Y425841D01*
X316101Y425693D01*
X316727Y425067D01*
X316727Y422037D01*
X316101Y421411D01*
X316098Y421406D01*
X316094Y421403D01*
X316042Y421323D01*
X315990Y421244D01*
X315989Y421239D01*
X315986Y421234D01*
X315970Y421140D01*
X315952Y421047D01*
X315953Y421042D01*
X315952Y421036D01*
X315974Y420944D01*
X315994Y420851D01*
X315997Y420846D01*
X315998Y420841D01*
X316101Y420693D01*
X316727Y420067D01*
X316727Y417037D01*
X316101Y416411D01*
X316098Y416406D01*
X316094Y416403D01*
X316042Y416323D01*
X315990Y416244D01*
X315989Y416239D01*
X315986Y416234D01*
X315970Y416140D01*
X315952Y416047D01*
X315953Y416042D01*
X315952Y416036D01*
X315974Y415944D01*
X315994Y415851D01*
X315997Y415846D01*
X315998Y415841D01*
X316101Y415693D01*
X316727Y415067D01*
X316727Y412037D01*
X316101Y411411D01*
X316098Y411406D01*
X316094Y411403D01*
X316042Y411323D01*
X315990Y411244D01*
X315989Y411239D01*
X315986Y411234D01*
X315970Y411140D01*
X315952Y411047D01*
X315953Y411042D01*
X315952Y411036D01*
X315974Y410944D01*
X315994Y410851D01*
X315997Y410846D01*
X315998Y410841D01*
X316101Y410693D01*
X316727Y410067D01*
X316727Y407037D01*
X316101Y406411D01*
X316098Y406406D01*
X316094Y406403D01*
X316042Y406323D01*
X315990Y406244D01*
X315989Y406239D01*
X315986Y406234D01*
X315970Y406140D01*
X315952Y406047D01*
X315953Y406042D01*
X315952Y406036D01*
X315974Y405944D01*
X315994Y405851D01*
X315997Y405846D01*
X315998Y405841D01*
X316101Y405693D01*
X316727Y405067D01*
X316727Y402037D01*
X316101Y401411D01*
X316098Y401406D01*
X316094Y401403D01*
X316042Y401323D01*
X315990Y401244D01*
X315989Y401239D01*
X315986Y401234D01*
X315970Y401140D01*
X315952Y401047D01*
X315953Y401042D01*
X315952Y401036D01*
X315974Y400944D01*
X315994Y400851D01*
X315997Y400846D01*
X315998Y400841D01*
X316101Y400693D01*
X316727Y400067D01*
X316727Y397037D01*
X316101Y396411D01*
X316100Y396409D01*
X316099Y396408D01*
X316097Y396405D01*
X316094Y396403D01*
X316042Y396323D01*
X315990Y396244D01*
X315989Y396239D01*
X315986Y396234D01*
X315970Y396140D01*
X315952Y396047D01*
X315953Y396042D01*
X315952Y396036D01*
X315974Y395944D01*
X315994Y395851D01*
X315997Y395846D01*
X315998Y395841D01*
X316101Y395693D01*
X316727Y395067D01*
X316727Y392037D01*
X316101Y391411D01*
X316098Y391406D01*
X316094Y391403D01*
X316042Y391323D01*
X315990Y391244D01*
X315989Y391239D01*
X315986Y391234D01*
X315970Y391140D01*
X315952Y391047D01*
X315953Y391042D01*
X315952Y391036D01*
X315974Y390944D01*
X315994Y390851D01*
X315997Y390846D01*
X315998Y390841D01*
X316101Y390693D01*
X316727Y390067D01*
X316727Y387084D01*
X316728Y387079D01*
X316727Y387074D01*
X316748Y386981D01*
X316766Y386887D01*
X316769Y386883D01*
X316770Y386878D01*
X316826Y386800D01*
X316879Y386722D01*
X316883Y386719D01*
X316886Y386714D01*
X316968Y386664D01*
X317047Y386612D01*
X317052Y386611D01*
X317057Y386609D01*
X317234Y386577D01*
X320217Y386577D01*
X321477Y385317D01*
X321477Y382940D01*
X321478Y382932D01*
X321477Y382924D01*
X321497Y382839D01*
X321497Y380275D01*
X321477Y380164D01*
X321477Y377786D01*
X320217Y376527D01*
X317187Y376527D01*
X315927Y377786D01*
X315927Y378250D01*
X315926Y378255D01*
X315927Y378260D01*
X315906Y378353D01*
X315888Y378446D01*
X315885Y378451D01*
X315884Y378456D01*
X315828Y378534D01*
X315775Y378612D01*
X315771Y378615D01*
X315768Y378619D01*
X315686Y378670D01*
X315607Y378721D01*
X315602Y378722D01*
X315597Y378725D01*
X315420Y378757D01*
X307145Y378757D01*
X305360Y380543D01*
X302306Y383597D01*
X302299Y383601D01*
X302295Y383607D01*
X302216Y383656D01*
X302139Y383708D01*
X302131Y383709D01*
X302125Y383713D01*
X301947Y383745D01*
X294088Y383745D01*
X293325Y384509D01*
X293318Y384513D01*
X293314Y384519D01*
X293235Y384568D01*
X293158Y384620D01*
X293150Y384621D01*
X293144Y384625D01*
X292966Y384657D01*
X288932Y384657D01*
X288927Y384656D01*
X288922Y384657D01*
X288829Y384636D01*
X288735Y384618D01*
X288731Y384615D01*
X288726Y384614D01*
X288648Y384558D01*
X288570Y384505D01*
X288567Y384501D01*
X288563Y384498D01*
X288512Y384416D01*
X288460Y384337D01*
X288460Y384332D01*
X288457Y384327D01*
X288425Y384150D01*
X288425Y382098D01*
X287532Y381205D01*
X271268Y381205D01*
X271134Y381340D01*
X271130Y381342D01*
X271127Y381347D01*
X271046Y381398D01*
X270967Y381450D01*
X270962Y381451D01*
X270958Y381454D01*
X270864Y381470D01*
X270770Y381488D01*
X270765Y381487D01*
X270760Y381488D01*
X270667Y381466D01*
X270574Y381446D01*
X270570Y381443D01*
X270565Y381442D01*
X270417Y381340D01*
X269216Y380138D01*
X264819Y380138D01*
X261711Y383247D01*
X261711Y385889D01*
X261710Y385892D01*
X261711Y385894D01*
X261691Y385989D01*
X261671Y386086D01*
X261670Y386088D01*
X261669Y386091D01*
X261613Y386171D01*
X261559Y386252D01*
X261556Y386253D01*
X261555Y386255D01*
X261471Y386308D01*
X261390Y386361D01*
X261388Y386361D01*
X261386Y386363D01*
X261289Y386379D01*
X261193Y386396D01*
X261191Y386396D01*
X261188Y386396D01*
X261094Y386374D01*
X260998Y386353D01*
X260995Y386351D01*
X260993Y386351D01*
X260845Y386248D01*
X245513Y370916D01*
X245509Y370910D01*
X245503Y370905D01*
X245454Y370827D01*
X245402Y370749D01*
X245401Y370742D01*
X245397Y370735D01*
X245365Y370558D01*
X245365Y359885D01*
X245366Y359877D01*
X245365Y359870D01*
X245386Y359780D01*
X245404Y359689D01*
X245409Y359682D01*
X245411Y359675D01*
X245513Y359527D01*
X247877Y357163D01*
X247877Y352767D01*
X244768Y349658D01*
X240372Y349658D01*
X237263Y352767D01*
X237263Y357163D01*
X239627Y359527D01*
X239631Y359533D01*
X239637Y359538D01*
X239686Y359616D01*
X239738Y359694D01*
X239739Y359701D01*
X239743Y359708D01*
X239775Y359885D01*
X239775Y371055D01*
X239775Y371057D01*
X239775Y371060D01*
X239755Y371155D01*
X239736Y371251D01*
X239734Y371253D01*
X239734Y371256D01*
X239678Y371336D01*
X239623Y371417D01*
X239621Y371418D01*
X239619Y371421D01*
X239536Y371474D01*
X239455Y371526D01*
X239452Y371527D01*
X239450Y371528D01*
X239354Y371544D01*
X239258Y371562D01*
X239255Y371561D01*
X239253Y371562D01*
X239159Y371540D01*
X239062Y371518D01*
X239060Y371517D01*
X239057Y371516D01*
X238909Y371413D01*
X230273Y362777D01*
X230269Y362771D01*
X230263Y362766D01*
X230214Y362688D01*
X230162Y362610D01*
X230161Y362603D01*
X230157Y362596D01*
X230125Y362419D01*
X230125Y352524D01*
X230126Y352519D01*
X230125Y352514D01*
X230146Y352420D01*
X230164Y352327D01*
X230167Y352323D01*
X230168Y352318D01*
X230224Y352240D01*
X230277Y352162D01*
X230281Y352159D01*
X230284Y352155D01*
X230366Y352104D01*
X230445Y352052D01*
X230450Y352052D01*
X230455Y352049D01*
X230632Y352017D01*
X233973Y352017D01*
X237082Y348908D01*
X237082Y344512D01*
X233973Y341403D01*
X229577Y341403D01*
X226736Y344244D01*
X226732Y344247D01*
X226729Y344251D01*
X226648Y344302D01*
X226569Y344355D01*
X226564Y344356D01*
X226560Y344359D01*
X226466Y344375D01*
X226372Y344393D01*
X226367Y344391D01*
X226362Y344392D01*
X226270Y344371D01*
X226176Y344351D01*
X226172Y344348D01*
X226167Y344347D01*
X226019Y344244D01*
X223178Y341403D01*
X218782Y341403D01*
X215673Y344512D01*
X215673Y348908D01*
X218037Y351272D01*
X218041Y351278D01*
X218047Y351283D01*
X218096Y351361D01*
X218148Y351439D01*
X218149Y351446D01*
X218153Y351453D01*
X218185Y351630D01*
X218185Y363619D01*
X218185Y363622D01*
X218185Y363624D01*
X218166Y363716D01*
X218146Y363816D01*
X218144Y363818D01*
X218144Y363820D01*
X218088Y363901D01*
X218033Y363981D01*
X218031Y363983D01*
X218029Y363985D01*
X217946Y364038D01*
X217865Y364091D01*
X217862Y364091D01*
X217860Y364093D01*
X217764Y364109D01*
X217668Y364126D01*
X217665Y364126D01*
X217663Y364126D01*
X217569Y364104D01*
X217472Y364083D01*
X217470Y364081D01*
X217467Y364081D01*
X217319Y363978D01*
X208683Y355342D01*
X208679Y355335D01*
X208673Y355331D01*
X208624Y355252D01*
X208572Y355175D01*
X208571Y355167D01*
X208567Y355160D01*
X208535Y354983D01*
X208535Y351630D01*
X208536Y351622D01*
X208535Y351615D01*
X208556Y351525D01*
X208574Y351434D01*
X208579Y351427D01*
X208581Y351420D01*
X208683Y351272D01*
X211047Y348908D01*
X211047Y344512D01*
X207938Y341403D01*
X203542Y341403D01*
X200433Y344512D01*
X200433Y348908D01*
X202797Y351272D01*
X202801Y351278D01*
X202807Y351283D01*
X202856Y351361D01*
X202908Y351438D01*
X202909Y351446D01*
X202913Y351453D01*
X202945Y351630D01*
X202945Y357508D01*
X204731Y359294D01*
X274998Y429561D01*
X275693Y430256D01*
X275695Y430259D01*
X275697Y430260D01*
X275749Y430341D01*
X275804Y430423D01*
X275805Y430426D01*
X275806Y430428D01*
X275823Y430524D01*
X275842Y430620D01*
X275841Y430623D01*
X275842Y430625D01*
X275820Y430722D01*
X275800Y430816D01*
X275799Y430819D01*
X275798Y430821D01*
X275742Y430901D01*
X275686Y430981D01*
X275684Y430982D01*
X275682Y430985D01*
X275599Y431036D01*
X275517Y431089D01*
X275514Y431089D01*
X275512Y431090D01*
X275335Y431122D01*
X264532Y431122D01*
X263639Y432016D01*
X263639Y434711D01*
X263637Y434719D01*
X263639Y434726D01*
X263618Y434816D01*
X263599Y434907D01*
X263595Y434914D01*
X263593Y434922D01*
X263490Y435070D01*
X263089Y435471D01*
X263085Y435474D01*
X263082Y435478D01*
X263080Y435480D01*
X263079Y435481D01*
X263013Y435522D01*
X263001Y435529D01*
X262922Y435582D01*
X262917Y435583D01*
X262912Y435586D01*
X262909Y435586D01*
X262908Y435587D01*
X262731Y435619D01*
X262730Y435619D01*
X262729Y435619D01*
X262725Y435620D01*
X262720Y435619D01*
X262715Y435619D01*
X262622Y435598D01*
X262579Y435589D01*
X262533Y435579D01*
X262532Y435579D01*
X262529Y435578D01*
X262525Y435575D01*
X262520Y435574D01*
X262372Y435471D01*
X261944Y435043D01*
X245681Y435043D01*
X244787Y435936D01*
X244787Y450199D01*
X245681Y451093D01*
X250256Y451093D01*
X250261Y451094D01*
X250266Y451093D01*
X250360Y451113D01*
X250453Y451132D01*
X250457Y451135D01*
X250462Y451136D01*
X250540Y451191D01*
X250618Y451245D01*
X250621Y451249D01*
X250626Y451252D01*
X250676Y451334D01*
X250728Y451413D01*
X250729Y451418D01*
X250731Y451423D01*
X250763Y451600D01*
X250763Y456849D01*
X250762Y456857D01*
X250763Y456865D01*
X250742Y456955D01*
X250724Y457046D01*
X250719Y457052D01*
X250718Y457060D01*
X250615Y457208D01*
X249011Y458812D01*
X249011Y463208D01*
X252119Y466317D01*
X256516Y466317D01*
X259624Y463208D01*
X259624Y458812D01*
X257009Y456197D01*
X257005Y456190D01*
X256999Y456186D01*
X256950Y456107D01*
X256898Y456030D01*
X256897Y456022D01*
X256893Y456016D01*
X256861Y455838D01*
X256861Y451600D01*
X256862Y451595D01*
X256861Y451590D01*
X256882Y451496D01*
X256900Y451403D01*
X256903Y451399D01*
X256905Y451394D01*
X256960Y451316D01*
X257013Y451238D01*
X257017Y451235D01*
X257021Y451230D01*
X257102Y451180D01*
X257181Y451128D01*
X257186Y451127D01*
X257191Y451125D01*
X257368Y451093D01*
X261944Y451093D01*
X262837Y450199D01*
X262837Y445275D01*
X262838Y445267D01*
X262837Y445259D01*
X262858Y445170D01*
X262876Y445078D01*
X262881Y445072D01*
X262883Y445064D01*
X262985Y444916D01*
X263772Y444129D01*
X263777Y444126D01*
X263780Y444122D01*
X263860Y444071D01*
X263939Y444018D01*
X263944Y444017D01*
X263949Y444015D01*
X264043Y443999D01*
X264136Y443981D01*
X264141Y443982D01*
X264146Y443981D01*
X264239Y444003D01*
X264332Y444022D01*
X264337Y444025D01*
X264342Y444027D01*
X264490Y444129D01*
X264532Y444172D01*
X276795Y444172D01*
X277689Y443279D01*
X277689Y431854D01*
X277690Y431849D01*
X277689Y431844D01*
X277709Y431751D01*
X277728Y431657D01*
X277731Y431653D01*
X277732Y431648D01*
X277787Y431570D01*
X277841Y431492D01*
X277845Y431489D01*
X277848Y431485D01*
X277930Y431434D01*
X278009Y431382D01*
X278014Y431382D01*
X278018Y431379D01*
X278196Y431347D01*
X304125Y431347D01*
X304128Y431347D01*
X304130Y431347D01*
X304225Y431367D01*
X304322Y431386D01*
X304324Y431388D01*
X304326Y431388D01*
X304407Y431444D01*
X304487Y431499D01*
X304489Y431501D01*
X304491Y431503D01*
X304544Y431586D01*
X304597Y431667D01*
X304597Y431670D01*
X304599Y431672D01*
X304615Y431768D01*
X304632Y431864D01*
X304632Y431867D01*
X304632Y431869D01*
X304610Y431963D01*
X304589Y432060D01*
X304587Y432062D01*
X304587Y432065D01*
X304484Y432213D01*
X293758Y442939D01*
X291972Y444724D01*
X291972Y456598D01*
X291971Y456606D01*
X291972Y456613D01*
X291951Y456703D01*
X291933Y456794D01*
X291928Y456801D01*
X291926Y456808D01*
X291824Y456956D01*
X289333Y459447D01*
X289333Y463843D01*
X292442Y466952D01*
X296838Y466952D01*
X298346Y465443D01*
X298349Y465442D01*
X298350Y465440D01*
X298431Y465387D01*
X298513Y465333D01*
X298516Y465332D01*
X298518Y465331D01*
X298614Y465313D01*
X298710Y465295D01*
X298713Y465295D01*
X298715Y465295D01*
X298812Y465316D01*
X298906Y465337D01*
X298908Y465338D01*
X298911Y465339D01*
X298991Y465395D01*
X299071Y465451D01*
X299072Y465453D01*
X299075Y465455D01*
X299127Y465538D01*
X299178Y465620D01*
X299179Y465623D01*
X299180Y465625D01*
X299212Y465802D01*
X299212Y465939D01*
X301570Y468297D01*
X315196Y468297D01*
X315199Y468297D01*
X315202Y468297D01*
X315296Y468317D01*
X315393Y468336D01*
X315395Y468338D01*
X315398Y468338D01*
X315478Y468394D01*
X315559Y468449D01*
X315560Y468451D01*
X315562Y468453D01*
X315616Y468536D01*
X315668Y468617D01*
X315668Y468620D01*
X315670Y468622D01*
X315686Y468718D01*
X315704Y468814D01*
X315703Y468817D01*
X315703Y468819D01*
X315681Y468913D01*
X315660Y469010D01*
X315658Y469012D01*
X315658Y469015D01*
X315555Y469163D01*
X310141Y474577D01*
X310134Y474581D01*
X310130Y474587D01*
X310051Y474636D01*
X309974Y474688D01*
X309966Y474689D01*
X309960Y474693D01*
X309782Y474725D01*
X306545Y474725D01*
X306537Y474724D01*
X306530Y474725D01*
X306440Y474704D01*
X306349Y474686D01*
X306342Y474681D01*
X306335Y474679D01*
X306187Y474577D01*
X303823Y472213D01*
X299427Y472213D01*
X296318Y475322D01*
X296318Y479718D01*
X299127Y482527D01*
X299132Y482534D01*
X299138Y482538D01*
X299187Y482617D01*
X299238Y482694D01*
X299240Y482702D01*
X299244Y482708D01*
X299276Y482886D01*
X299276Y491339D01*
X301756Y493819D01*
X301758Y493822D01*
X301760Y493823D01*
X301812Y493904D01*
X301867Y493986D01*
X301868Y493989D01*
X301869Y493991D01*
X301886Y494087D01*
X301905Y494183D01*
X301904Y494186D01*
X301905Y494188D01*
X301883Y494285D01*
X301863Y494379D01*
X301862Y494381D01*
X301861Y494384D01*
X301804Y494464D01*
X301749Y494544D01*
X301746Y494545D01*
X301745Y494547D01*
X301662Y494599D01*
X301580Y494651D01*
X301577Y494652D01*
X301575Y494653D01*
X301397Y494685D01*
X278982Y494685D01*
X279100Y496162D01*
X279096Y496191D01*
X279101Y496219D01*
X279084Y496288D01*
X279076Y496360D01*
X279062Y496384D01*
X279055Y496412D01*
X279012Y496470D01*
X278977Y496532D01*
X278954Y496549D01*
X278937Y496572D01*
X278875Y496609D01*
X278818Y496652D01*
X278790Y496659D01*
X278766Y496674D01*
X278666Y496690D01*
X278625Y496701D01*
X278615Y496699D01*
X278602Y496701D01*
X259602Y496701D01*
X259526Y496686D01*
X259448Y496677D01*
X259429Y496666D01*
X259407Y496662D01*
X259343Y496618D01*
X259275Y496579D01*
X259259Y496560D01*
X259243Y496549D01*
X259219Y496511D01*
X259169Y496451D01*
X249669Y479951D01*
X249660Y479924D01*
X249644Y479900D01*
X249629Y479830D01*
X249606Y479762D01*
X249609Y479734D01*
X249603Y479706D01*
X249617Y479636D01*
X249622Y479564D01*
X249635Y479539D01*
X249641Y479511D01*
X249681Y479451D01*
X249714Y479388D01*
X249736Y479370D01*
X249752Y479346D01*
X249835Y479288D01*
X249867Y479261D01*
X249878Y479258D01*
X249889Y479251D01*
X251207Y478627D01*
X232316Y445907D01*
X232289Y445825D01*
X232257Y445744D01*
X232257Y445730D01*
X232252Y445717D01*
X232259Y445630D01*
X232260Y445544D01*
X232266Y445531D01*
X232267Y445517D01*
X232306Y445440D01*
X232342Y445360D01*
X232352Y445350D01*
X232358Y445338D01*
X232401Y445303D01*
X232470Y445234D01*
X233590Y444471D01*
X233655Y444444D01*
X233717Y444409D01*
X233749Y444404D01*
X233775Y444393D01*
X233827Y444393D01*
X233895Y444383D01*
X233901Y444384D01*
X234376Y443942D01*
X234406Y443924D01*
X234436Y443895D01*
X234972Y443530D01*
X234973Y443524D01*
X235000Y443459D01*
X235018Y443391D01*
X235038Y443365D01*
X235048Y443339D01*
X235085Y443302D01*
X235126Y443247D01*
X236865Y441634D01*
X236925Y441598D01*
X236981Y441554D01*
X237012Y441544D01*
X237036Y441530D01*
X237087Y441522D01*
X237154Y441502D01*
X237159Y441502D01*
X237564Y440994D01*
X237590Y440972D01*
X237615Y440939D01*
X238091Y440498D01*
X238091Y440492D01*
X238108Y440424D01*
X238116Y440353D01*
X238132Y440325D01*
X238138Y440297D01*
X238169Y440256D01*
X238202Y440195D01*
X239681Y438341D01*
X239708Y438319D01*
X239726Y438293D01*
X239754Y438276D01*
X239783Y438245D01*
X239813Y438231D01*
X239834Y438213D01*
X239877Y438199D01*
X239896Y438187D01*
X239910Y438185D01*
X239946Y438168D01*
X239952Y438166D01*
X240276Y437604D01*
X240299Y437578D01*
X240319Y437542D01*
X240724Y437035D01*
X240723Y437029D01*
X240729Y436959D01*
X240727Y436888D01*
X240738Y436857D01*
X240740Y436829D01*
X240764Y436784D01*
X240788Y436719D01*
X241974Y434665D01*
X242021Y434612D01*
X242061Y434554D01*
X242088Y434536D01*
X242107Y434515D01*
X242153Y434493D01*
X242211Y434454D01*
X242216Y434452D01*
X242453Y433848D01*
X242472Y433819D01*
X242486Y433780D01*
X242811Y433218D01*
X242809Y433213D01*
X242805Y433142D01*
X242792Y433073D01*
X242798Y433041D01*
X242797Y433013D01*
X242814Y432964D01*
X242827Y432896D01*
X243694Y430689D01*
X243732Y430630D01*
X243763Y430566D01*
X243788Y430544D01*
X243803Y430520D01*
X243845Y430491D01*
X243897Y430445D01*
X243901Y430442D01*
X244046Y429809D01*
X244060Y429778D01*
X244068Y429737D01*
X244305Y429133D01*
X244303Y429128D01*
X244288Y429059D01*
X244265Y428992D01*
X244267Y428959D01*
X244261Y428932D01*
X244271Y428881D01*
X244274Y428812D01*
X244802Y426500D01*
X244831Y426436D01*
X244852Y426369D01*
X244873Y426343D01*
X244885Y426318D01*
X244922Y426283D01*
X244966Y426229D01*
X244970Y426225D01*
X245019Y425578D01*
X245028Y425545D01*
X245030Y425503D01*
X245175Y424871D01*
X245172Y424866D01*
X245147Y424800D01*
X245114Y424737D01*
X245111Y424705D01*
X245101Y424678D01*
X245103Y424627D01*
X245096Y424558D01*
X245273Y422193D01*
X245293Y422126D01*
X245303Y422056D01*
X245320Y422027D01*
X245328Y422000D01*
X245360Y421960D01*
X245395Y421900D01*
X245399Y421896D01*
X245350Y421249D01*
X245355Y421215D01*
X245350Y421173D01*
X245399Y420526D01*
X245395Y420522D01*
X245361Y420461D01*
X245319Y420404D01*
X245311Y420372D01*
X245297Y420347D01*
X245291Y420296D01*
X245274Y420229D01*
X245098Y417864D01*
X245106Y417794D01*
X245107Y417724D01*
X245119Y417693D01*
X245123Y417665D01*
X245148Y417621D01*
X245174Y417557D01*
X245177Y417552D01*
X245033Y416919D01*
X245032Y416885D01*
X245022Y416844D01*
X244973Y416197D01*
X244969Y416194D01*
X244926Y416138D01*
X244876Y416088D01*
X244863Y416058D01*
X244846Y416035D01*
X244833Y415985D01*
X244806Y415922D01*
X244279Y413610D01*
X244277Y413539D01*
X244267Y413469D01*
X244274Y413438D01*
X244274Y413410D01*
X244292Y413361D01*
X244308Y413294D01*
X244311Y413289D01*
X244074Y412685D01*
X244068Y412651D01*
X244051Y412613D01*
X243907Y411980D01*
X243902Y411977D01*
X243851Y411928D01*
X243795Y411886D01*
X243778Y411858D01*
X243757Y411839D01*
X243737Y411792D01*
X243700Y411733D01*
X242835Y409525D01*
X242822Y409455D01*
X242802Y409388D01*
X242805Y409355D01*
X242800Y409328D01*
X242811Y409277D01*
X242817Y409208D01*
X242818Y409203D01*
X242494Y408641D01*
X242483Y408608D01*
X242461Y408573D01*
X242224Y407969D01*
X242219Y407966D01*
X242161Y407926D01*
X242099Y407893D01*
X242078Y407868D01*
X242055Y407851D01*
X242028Y407808D01*
X241983Y407755D01*
X240798Y405701D01*
X240775Y405634D01*
X240745Y405570D01*
X240743Y405538D01*
X240734Y405511D01*
X240738Y405460D01*
X240733Y405390D01*
X240734Y405385D01*
X240329Y404878D01*
X240313Y404847D01*
X240287Y404815D01*
X239962Y404253D01*
X239957Y404251D01*
X239894Y404220D01*
X239827Y404196D01*
X239803Y404175D01*
X239778Y404162D01*
X239744Y404123D01*
X239692Y404078D01*
X238214Y402223D01*
X238182Y402160D01*
X238142Y402102D01*
X238135Y402070D01*
X238122Y402045D01*
X238119Y401993D01*
X238104Y401926D01*
X238104Y401920D01*
X237628Y401479D01*
X237608Y401451D01*
X237576Y401423D01*
X237172Y400916D01*
X237167Y400915D01*
X237099Y400893D01*
X237030Y400880D01*
X237002Y400862D01*
X236976Y400854D01*
X236937Y400820D01*
X236878Y400783D01*
X235141Y399169D01*
X235099Y399112D01*
X235052Y399060D01*
X235040Y399029D01*
X235024Y399007D01*
X235012Y398956D01*
X234987Y398892D01*
X234986Y398886D01*
X234450Y398521D01*
X234426Y398496D01*
X234391Y398473D01*
X233915Y398032D01*
X233910Y398032D01*
X233840Y398021D01*
X233770Y398018D01*
X233740Y398004D01*
X233712Y398000D01*
X233668Y397972D01*
X233605Y397944D01*
X231646Y396608D01*
X231597Y396557D01*
X231542Y396513D01*
X231526Y396484D01*
X231506Y396464D01*
X231487Y396416D01*
X231453Y396356D01*
X231452Y396351D01*
X230867Y396069D01*
X230839Y396048D01*
X230801Y396031D01*
X230265Y395665D01*
X230260Y395666D01*
X230189Y395666D01*
X230119Y395673D01*
X230088Y395664D01*
X230059Y395664D01*
X230012Y395643D01*
X229946Y395625D01*
X227809Y394595D01*
X227753Y394553D01*
X227692Y394517D01*
X227672Y394491D01*
X227650Y394474D01*
X227624Y394430D01*
X227581Y394375D01*
X227578Y394370D01*
X226958Y394179D01*
X226928Y394162D01*
X226888Y394151D01*
X226303Y393870D01*
X226298Y393871D01*
X226228Y393881D01*
X226160Y393899D01*
X226127Y393895D01*
X226100Y393899D01*
X226050Y393886D01*
X225981Y393877D01*
X223715Y393178D01*
X223653Y393144D01*
X223588Y393118D01*
X223564Y393095D01*
X223539Y393082D01*
X223507Y393041D01*
X223457Y392994D01*
X223454Y392989D01*
X222812Y392893D01*
X222779Y392881D01*
X222738Y392876D01*
X222118Y392684D01*
X222113Y392687D01*
X222045Y392707D01*
X221981Y392735D01*
X221948Y392736D01*
X221921Y392744D01*
X221870Y392738D01*
X221800Y392740D01*
X219456Y392386D01*
X219389Y392361D01*
X219321Y392345D01*
X219294Y392327D01*
X219267Y392317D01*
X219229Y392282D01*
X219173Y392243D01*
X219169Y392239D01*
X218520Y392239D01*
X218486Y392232D01*
X218472Y392232D01*
X218444Y392233D01*
X218401Y392226D01*
X218340Y392204D01*
X218276Y392190D01*
X218247Y392170D01*
X218213Y392158D01*
X218165Y392113D01*
X218111Y392076D01*
X218092Y392046D01*
X218066Y392022D01*
X218039Y391962D01*
X218004Y391907D01*
X217998Y391872D01*
X217983Y391839D01*
X217981Y391774D01*
X217970Y391709D01*
X217978Y391675D01*
X217977Y391639D01*
X218001Y391578D01*
X218016Y391514D01*
X218038Y391482D01*
X218050Y391452D01*
X218083Y391417D01*
X218119Y391366D01*
X219302Y390183D01*
X219302Y385787D01*
X216193Y382678D01*
X211797Y382678D01*
X208688Y385787D01*
X208688Y390183D01*
X210430Y391925D01*
X210445Y391948D01*
X210467Y391966D01*
X210500Y392031D01*
X210541Y392092D01*
X210546Y392119D01*
X210559Y392144D01*
X210565Y392216D01*
X210578Y392288D01*
X210572Y392316D01*
X210575Y392344D01*
X210552Y392413D01*
X210537Y392484D01*
X210521Y392507D01*
X210512Y392534D01*
X210464Y392589D01*
X210422Y392649D01*
X210399Y392664D01*
X210380Y392685D01*
X210301Y392726D01*
X210253Y392757D01*
X210237Y392759D01*
X210220Y392768D01*
X209884Y392872D01*
X209850Y392875D01*
X209810Y392888D01*
X209169Y392985D01*
X209165Y392989D01*
X209113Y393037D01*
X209067Y393090D01*
X209038Y393105D01*
X209017Y393124D01*
X208968Y393141D01*
X208907Y393173D01*
X206640Y393871D01*
X206570Y393878D01*
X206501Y393893D01*
X206469Y393888D01*
X206441Y393891D01*
X206392Y393876D01*
X206323Y393865D01*
X206318Y393863D01*
X205733Y394145D01*
X205700Y394153D01*
X205663Y394172D01*
X205043Y394363D01*
X205040Y394368D01*
X204995Y394423D01*
X204958Y394482D01*
X204931Y394502D01*
X204913Y394523D01*
X204868Y394547D01*
X204812Y394588D01*
X203574Y395184D01*
X203490Y395205D01*
X203407Y395231D01*
X203393Y395230D01*
X203380Y395233D01*
X203294Y395220D01*
X203208Y395212D01*
X203195Y395206D01*
X203181Y395204D01*
X203107Y395159D01*
X203031Y395118D01*
X203021Y395106D01*
X203010Y395099D01*
X202977Y395055D01*
X202915Y394980D01*
X184023Y362259D01*
X182786Y363113D01*
X182759Y363124D01*
X182737Y363143D01*
X182668Y363163D01*
X182603Y363191D01*
X182574Y363191D01*
X182546Y363199D01*
X182475Y363191D01*
X182404Y363192D01*
X182377Y363180D01*
X182348Y363177D01*
X182286Y363142D01*
X182221Y363114D01*
X182200Y363094D01*
X182175Y363079D01*
X182112Y363002D01*
X182082Y362972D01*
X182078Y362962D01*
X182069Y362951D01*
X172569Y346451D01*
X172545Y346378D01*
X172514Y346308D01*
X172514Y346284D01*
X172506Y346262D01*
X172513Y346186D01*
X172512Y346109D01*
X172521Y346085D01*
X172522Y346064D01*
X172543Y346025D01*
X172562Y345973D01*
X172563Y345967D01*
X172565Y345965D01*
X172569Y345953D01*
X182069Y329453D01*
X182088Y329431D01*
X182101Y329405D01*
X182154Y329357D01*
X182201Y329304D01*
X182227Y329291D01*
X182249Y329272D01*
X182316Y329249D01*
X182380Y329218D01*
X182409Y329217D01*
X182436Y329207D01*
X182508Y329212D01*
X182579Y329209D01*
X182606Y329219D01*
X182635Y329221D01*
X182725Y329263D01*
X182765Y329278D01*
X182773Y329285D01*
X182786Y329291D01*
X184023Y330145D01*
X202915Y297424D01*
X202972Y297359D01*
X203026Y297291D01*
X203038Y297284D01*
X203047Y297273D01*
X203125Y297236D01*
X203201Y297194D01*
X203215Y297192D01*
X203228Y297186D01*
X203314Y297182D01*
X203400Y297172D01*
X203415Y297176D01*
X203428Y297176D01*
X203480Y297194D01*
X203574Y297220D01*
X204812Y297816D01*
X204868Y297859D01*
X204929Y297894D01*
X204949Y297920D01*
X204972Y297937D01*
X204998Y297982D01*
X205040Y298036D01*
X205043Y298041D01*
X205179Y298083D01*
X205206Y298097D01*
X205236Y298104D01*
X205294Y298145D01*
X205355Y298179D01*
X205375Y298202D01*
X205399Y298220D01*
X205437Y298280D01*
X205481Y298335D01*
X205489Y298364D01*
X205505Y298390D01*
X205520Y298474D01*
X205536Y298528D01*
X205533Y298546D01*
X205537Y298568D01*
X205537Y306010D01*
X262367Y362840D01*
X315512Y362840D01*
X315520Y362841D01*
X315528Y362840D01*
X315618Y362861D01*
X315709Y362879D01*
X315715Y362884D01*
X315723Y362886D01*
X315871Y362988D01*
X325759Y372876D01*
X325763Y372882D01*
X325769Y372887D01*
X325818Y372966D01*
X325870Y373043D01*
X325871Y373051D01*
X325875Y373057D01*
X325907Y373235D01*
X325907Y382829D01*
X325927Y382940D01*
X325927Y385317D01*
X327187Y386577D01*
X330217Y386577D01*
X330843Y385951D01*
X330848Y385948D01*
X330851Y385944D01*
X330931Y385892D01*
X331010Y385840D01*
X331015Y385839D01*
X331020Y385836D01*
X331114Y385820D01*
X331207Y385802D01*
X331212Y385803D01*
X331218Y385802D01*
X331310Y385824D01*
X331403Y385844D01*
X331408Y385847D01*
X331413Y385848D01*
X331561Y385951D01*
X332187Y386577D01*
X335217Y386577D01*
X336477Y385317D01*
X336477Y382940D01*
X336478Y382932D01*
X336477Y382924D01*
X336497Y382839D01*
X336497Y366834D01*
X322468Y352805D01*
X304845Y352805D01*
X304843Y352805D01*
X304840Y352805D01*
X304746Y352785D01*
X304649Y352766D01*
X304646Y352764D01*
X304644Y352764D01*
X304564Y352708D01*
X304483Y352653D01*
X304481Y352651D01*
X304479Y352649D01*
X304426Y352566D01*
X304374Y352485D01*
X304373Y352482D01*
X304372Y352480D01*
X304355Y352384D01*
X304338Y352288D01*
X304339Y352285D01*
X304338Y352282D01*
X304360Y352189D01*
X304382Y352092D01*
X304383Y352090D01*
X304384Y352087D01*
X304486Y351939D01*
X304686Y351739D01*
X308512Y347913D01*
X308519Y347909D01*
X308524Y347903D01*
X308602Y347854D01*
X308679Y347802D01*
X308687Y347801D01*
X308694Y347797D01*
X308871Y347765D01*
X317282Y347765D01*
X318175Y346872D01*
X318175Y345050D01*
X318176Y345045D01*
X318175Y345040D01*
X318196Y344947D01*
X318214Y344853D01*
X318217Y344849D01*
X318218Y344844D01*
X318274Y344766D01*
X318327Y344688D01*
X318331Y344685D01*
X318334Y344681D01*
X318416Y344630D01*
X318495Y344578D01*
X318500Y344578D01*
X318505Y344575D01*
X318682Y344543D01*
X323618Y344543D01*
X323623Y344544D01*
X323628Y344543D01*
X323721Y344564D01*
X323815Y344582D01*
X323819Y344585D01*
X323824Y344586D01*
X323902Y344642D01*
X323980Y344695D01*
X323983Y344699D01*
X323987Y344702D01*
X324038Y344784D01*
X324090Y344863D01*
X324090Y344868D01*
X324093Y344873D01*
X324125Y345050D01*
X324125Y345391D01*
X329289Y350555D01*
X336591Y350555D01*
X341755Y345391D01*
X341755Y338089D01*
X336591Y332925D01*
X329289Y332925D01*
X324425Y337789D01*
X324419Y337793D01*
X324414Y337799D01*
X324336Y337848D01*
X324258Y337900D01*
X324251Y337901D01*
X324244Y337905D01*
X324067Y337937D01*
X318682Y337937D01*
X318677Y337936D01*
X318672Y337937D01*
X318579Y337916D01*
X318485Y337898D01*
X318481Y337895D01*
X318476Y337894D01*
X318398Y337838D01*
X318320Y337785D01*
X318317Y337781D01*
X318313Y337778D01*
X318262Y337696D01*
X318210Y337617D01*
X318210Y337612D01*
X318207Y337607D01*
X318175Y337430D01*
X318175Y336479D01*
X318176Y336474D01*
X318175Y336469D01*
X318196Y336376D01*
X318214Y336282D01*
X318217Y336278D01*
X318218Y336273D01*
X318274Y336195D01*
X318327Y336117D01*
X318331Y336114D01*
X318334Y336110D01*
X318416Y336059D01*
X318495Y336007D01*
X318500Y336007D01*
X318505Y336004D01*
X318682Y335972D01*
X322749Y335972D01*
X324832Y333889D01*
X324832Y333888D01*
X328369Y330352D01*
X328373Y330349D01*
X328376Y330345D01*
X328456Y330294D01*
X328536Y330241D01*
X328541Y330240D01*
X328545Y330237D01*
X328639Y330221D01*
X328733Y330203D01*
X328738Y330205D01*
X328743Y330204D01*
X328835Y330225D01*
X328929Y330245D01*
X328933Y330248D01*
X328938Y330249D01*
X329086Y330352D01*
X329289Y330555D01*
X336591Y330555D01*
X341755Y325391D01*
X341755Y318089D01*
X336591Y312925D01*
X329289Y312925D01*
X324125Y318089D01*
X324125Y325044D01*
X324125Y325046D01*
X324125Y325049D01*
X324124Y325054D01*
X324125Y325059D01*
X324104Y325149D01*
X324086Y325240D01*
X324081Y325247D01*
X324079Y325255D01*
X323977Y325403D01*
X320162Y329218D01*
X320155Y329222D01*
X320150Y329228D01*
X320072Y329277D01*
X319995Y329329D01*
X319987Y329330D01*
X319980Y329334D01*
X319803Y329366D01*
X318682Y329366D01*
X318677Y329365D01*
X318672Y329366D01*
X318579Y329345D01*
X318485Y329327D01*
X318481Y329324D01*
X318476Y329323D01*
X318398Y329267D01*
X318320Y329214D01*
X318317Y329210D01*
X318313Y329207D01*
X318262Y329125D01*
X318210Y329046D01*
X318210Y329041D01*
X318207Y329036D01*
X318175Y328859D01*
X318175Y321814D01*
X318175Y321813D01*
X318194Y321720D01*
X318214Y321617D01*
X318215Y321617D01*
X318215Y321616D01*
X318313Y321466D01*
X325579Y313773D01*
X325584Y313769D01*
X325589Y313762D01*
X326555Y312796D01*
X326557Y312786D01*
X326518Y311425D01*
X326519Y311418D01*
X326518Y311411D01*
X326518Y280572D01*
X316760Y270815D01*
X316756Y270808D01*
X316750Y270803D01*
X316701Y270725D01*
X316649Y270648D01*
X316648Y270640D01*
X316644Y270633D01*
X316612Y270456D01*
X316612Y256923D01*
X316613Y256915D01*
X316612Y256907D01*
X316633Y256818D01*
X316651Y256726D01*
X316656Y256720D01*
X316658Y256712D01*
X316760Y256564D01*
X317144Y256180D01*
X317147Y256179D01*
X317148Y256176D01*
X317229Y256124D01*
X317311Y256069D01*
X317314Y256069D01*
X317316Y256067D01*
X317412Y256050D01*
X317508Y256032D01*
X317511Y256032D01*
X317513Y256032D01*
X317610Y256053D01*
X317704Y256073D01*
X317706Y256075D01*
X317709Y256075D01*
X317790Y256133D01*
X317869Y256187D01*
X317870Y256190D01*
X317872Y256191D01*
X317925Y256275D01*
X317976Y256357D01*
X317977Y256359D01*
X317978Y256361D01*
X318010Y256539D01*
X318010Y257743D01*
X319672Y259405D01*
X321929Y259405D01*
X321937Y259406D01*
X321944Y259405D01*
X322034Y259426D01*
X322125Y259444D01*
X322132Y259449D01*
X322140Y259451D01*
X322288Y259553D01*
X330334Y267599D01*
X330334Y267600D01*
X330361Y267627D01*
X330366Y267634D01*
X330372Y267639D01*
X330421Y267717D01*
X330473Y267794D01*
X330474Y267802D01*
X330478Y267809D01*
X330510Y267986D01*
X330510Y270243D01*
X330969Y270701D01*
X330973Y270708D01*
X330979Y270712D01*
X331028Y270791D01*
X331080Y270868D01*
X331081Y270876D01*
X331085Y270883D01*
X331117Y271060D01*
X331117Y277338D01*
X331116Y277343D01*
X331117Y277348D01*
X331096Y277441D01*
X331078Y277535D01*
X331075Y277539D01*
X331074Y277544D01*
X331018Y277622D01*
X330965Y277700D01*
X330961Y277703D01*
X330958Y277707D01*
X330876Y277758D01*
X330797Y277810D01*
X330792Y277810D01*
X330787Y277813D01*
X330610Y277845D01*
X329331Y277845D01*
X328438Y278738D01*
X328438Y291002D01*
X329331Y291895D01*
X340594Y291895D01*
X341487Y291002D01*
X341487Y288680D01*
X341488Y288675D01*
X341487Y288670D01*
X341508Y288577D01*
X341527Y288483D01*
X341530Y288479D01*
X341531Y288474D01*
X341586Y288396D01*
X341639Y288318D01*
X341644Y288315D01*
X341647Y288311D01*
X341728Y288260D01*
X341808Y288208D01*
X341813Y288208D01*
X341817Y288205D01*
X341994Y288173D01*
X349521Y288173D01*
X349526Y288174D01*
X349531Y288173D01*
X349624Y288194D01*
X349717Y288212D01*
X349721Y288215D01*
X349726Y288216D01*
X349804Y288272D01*
X349883Y288325D01*
X349886Y288329D01*
X349890Y288332D01*
X349941Y288414D01*
X349992Y288493D01*
X349993Y288498D01*
X349996Y288503D01*
X350028Y288680D01*
X350028Y291002D01*
X350921Y291895D01*
X362184Y291895D01*
X363077Y291002D01*
X363077Y288290D01*
X363078Y288285D01*
X363077Y288280D01*
X363098Y288187D01*
X363117Y288093D01*
X363120Y288089D01*
X363121Y288084D01*
X363176Y288006D01*
X363229Y287928D01*
X363234Y287925D01*
X363237Y287921D01*
X363318Y287870D01*
X363398Y287818D01*
X363403Y287818D01*
X363407Y287815D01*
X363584Y287783D01*
X363716Y287783D01*
X363724Y287784D01*
X363732Y287783D01*
X363822Y287804D01*
X363913Y287822D01*
X363919Y287827D01*
X363927Y287829D01*
X364075Y287931D01*
X365930Y289787D01*
X370327Y289787D01*
X373435Y286678D01*
X373435Y282282D01*
X370327Y279173D01*
X365930Y279173D01*
X364075Y281029D01*
X364068Y281033D01*
X364064Y281039D01*
X363985Y281088D01*
X363908Y281140D01*
X363900Y281141D01*
X363894Y281145D01*
X363716Y281177D01*
X363584Y281177D01*
X363579Y281176D01*
X363574Y281177D01*
X363481Y281156D01*
X363388Y281138D01*
X363384Y281135D01*
X363379Y281134D01*
X363301Y281078D01*
X363222Y281025D01*
X363219Y281021D01*
X363215Y281018D01*
X363164Y280936D01*
X363113Y280857D01*
X363112Y280852D01*
X363109Y280847D01*
X363077Y280670D01*
X363077Y278704D01*
X363035Y278640D01*
X363034Y278635D01*
X363031Y278630D01*
X363015Y278536D01*
X362997Y278443D01*
X362998Y278438D01*
X362997Y278433D01*
X363019Y278339D01*
X363039Y278247D01*
X363042Y278243D01*
X363043Y278237D01*
X363145Y278089D01*
X365987Y275248D01*
X365987Y270852D01*
X362878Y267743D01*
X358482Y267743D01*
X357426Y268800D01*
X357423Y268801D01*
X357422Y268803D01*
X357342Y268855D01*
X357259Y268910D01*
X357256Y268911D01*
X357254Y268912D01*
X357158Y268930D01*
X357062Y268948D01*
X357059Y268948D01*
X357057Y268948D01*
X356960Y268927D01*
X356866Y268906D01*
X356864Y268905D01*
X356861Y268904D01*
X356781Y268848D01*
X356701Y268792D01*
X356700Y268790D01*
X356698Y268788D01*
X356645Y268704D01*
X356594Y268623D01*
X356593Y268620D01*
X356592Y268618D01*
X356560Y268441D01*
X356560Y262517D01*
X354898Y260855D01*
X351672Y260855D01*
X350394Y262134D01*
X350389Y262137D01*
X350386Y262141D01*
X350306Y262192D01*
X350227Y262245D01*
X350222Y262246D01*
X350217Y262249D01*
X350123Y262265D01*
X350030Y262282D01*
X350025Y262281D01*
X350019Y262282D01*
X349927Y262261D01*
X349834Y262241D01*
X349829Y262238D01*
X349824Y262237D01*
X349676Y262134D01*
X348398Y260855D01*
X345172Y260855D01*
X343894Y262134D01*
X343889Y262137D01*
X343886Y262141D01*
X343806Y262192D01*
X343727Y262245D01*
X343722Y262246D01*
X343717Y262249D01*
X343623Y262265D01*
X343530Y262282D01*
X343525Y262281D01*
X343519Y262282D01*
X343427Y262261D01*
X343334Y262241D01*
X343329Y262238D01*
X343324Y262237D01*
X343176Y262134D01*
X341898Y260855D01*
X338672Y260855D01*
X337394Y262134D01*
X337389Y262137D01*
X337386Y262141D01*
X337306Y262192D01*
X337227Y262245D01*
X337222Y262246D01*
X337217Y262249D01*
X337123Y262265D01*
X337030Y262282D01*
X337025Y262281D01*
X337019Y262282D01*
X336927Y262261D01*
X336834Y262241D01*
X336829Y262238D01*
X336824Y262237D01*
X336676Y262134D01*
X335398Y260855D01*
X333141Y260855D01*
X333133Y260854D01*
X333126Y260855D01*
X333036Y260834D01*
X332945Y260816D01*
X332938Y260811D01*
X332930Y260809D01*
X332782Y260707D01*
X329208Y257133D01*
X329204Y257126D01*
X329198Y257121D01*
X329149Y257043D01*
X329097Y256966D01*
X329096Y256958D01*
X329092Y256951D01*
X329060Y256774D01*
X329060Y254517D01*
X327781Y253239D01*
X327778Y253234D01*
X327774Y253231D01*
X327722Y253150D01*
X327670Y253072D01*
X327669Y253067D01*
X327666Y253062D01*
X327650Y252968D01*
X327633Y252875D01*
X327634Y252870D01*
X327633Y252864D01*
X327654Y252772D01*
X327674Y252679D01*
X327677Y252674D01*
X327678Y252669D01*
X327781Y252521D01*
X329060Y251243D01*
X329060Y248017D01*
X327781Y246739D01*
X327778Y246734D01*
X327774Y246731D01*
X327723Y246651D01*
X327670Y246572D01*
X327669Y246567D01*
X327666Y246562D01*
X327650Y246468D01*
X327633Y246375D01*
X327634Y246370D01*
X327633Y246364D01*
X327654Y246272D01*
X327674Y246179D01*
X327677Y246174D01*
X327678Y246169D01*
X327781Y246021D01*
X329060Y244743D01*
X329060Y241517D01*
X327781Y240239D01*
X327778Y240234D01*
X327774Y240231D01*
X327723Y240151D01*
X327670Y240072D01*
X327669Y240067D01*
X327666Y240062D01*
X327650Y239968D01*
X327633Y239875D01*
X327634Y239870D01*
X327633Y239864D01*
X327654Y239772D01*
X327674Y239679D01*
X327677Y239674D01*
X327678Y239669D01*
X327781Y239521D01*
X329060Y238243D01*
X329060Y235017D01*
X327398Y233355D01*
X325141Y233355D01*
X325133Y233354D01*
X325125Y233355D01*
X325036Y233334D01*
X325002Y233327D01*
X308902Y233327D01*
X308897Y233326D01*
X308892Y233327D01*
X308799Y233306D01*
X308705Y233288D01*
X308701Y233285D01*
X308696Y233284D01*
X308618Y233228D01*
X308540Y233175D01*
X308537Y233171D01*
X308533Y233168D01*
X308482Y233086D01*
X308430Y233007D01*
X308430Y233002D01*
X308427Y232997D01*
X308395Y232820D01*
X308395Y230088D01*
X307502Y229195D01*
X296238Y229195D01*
X295345Y230088D01*
X295345Y242352D01*
X296238Y243245D01*
X307502Y243245D01*
X308395Y242352D01*
X308395Y240440D01*
X308396Y240435D01*
X308395Y240430D01*
X308416Y240337D01*
X308434Y240243D01*
X308437Y240239D01*
X308438Y240234D01*
X308494Y240156D01*
X308547Y240078D01*
X308551Y240075D01*
X308554Y240071D01*
X308636Y240020D01*
X308715Y239968D01*
X308720Y239968D01*
X308725Y239965D01*
X308902Y239933D01*
X312337Y239933D01*
X312339Y239933D01*
X312342Y239933D01*
X312437Y239953D01*
X312533Y239972D01*
X312536Y239974D01*
X312538Y239974D01*
X312618Y240030D01*
X312699Y240085D01*
X312701Y240087D01*
X312703Y240089D01*
X312756Y240172D01*
X312808Y240253D01*
X312809Y240256D01*
X312810Y240258D01*
X312827Y240354D01*
X312844Y240450D01*
X312843Y240453D01*
X312844Y240455D01*
X312822Y240549D01*
X312800Y240646D01*
X312799Y240648D01*
X312798Y240651D01*
X312696Y240799D01*
X304128Y249367D01*
X304121Y249371D01*
X304116Y249377D01*
X304038Y249426D01*
X303961Y249478D01*
X303953Y249479D01*
X303946Y249483D01*
X303769Y249515D01*
X296238Y249515D01*
X295345Y250408D01*
X295345Y261137D01*
X295345Y261140D01*
X295345Y261142D01*
X295325Y261237D01*
X295306Y261333D01*
X295304Y261336D01*
X295303Y261338D01*
X295249Y261417D01*
X295193Y261499D01*
X295191Y261501D01*
X295189Y261503D01*
X295106Y261555D01*
X295025Y261608D01*
X295022Y261609D01*
X295020Y261610D01*
X294924Y261627D01*
X294828Y261644D01*
X294825Y261643D01*
X294822Y261644D01*
X294728Y261622D01*
X294632Y261600D01*
X294630Y261599D01*
X294627Y261598D01*
X294479Y261495D01*
X291543Y258552D01*
X291539Y258546D01*
X291533Y258541D01*
X291484Y258463D01*
X291432Y258385D01*
X291431Y258378D01*
X291427Y258371D01*
X291395Y258194D01*
X291395Y250408D01*
X290502Y249515D01*
X279238Y249515D01*
X278345Y250408D01*
X278345Y262672D01*
X279238Y263565D01*
X287003Y263565D01*
X287011Y263566D01*
X287019Y263565D01*
X287109Y263586D01*
X287199Y263604D01*
X287206Y263609D01*
X287214Y263611D01*
X287362Y263714D01*
X312779Y289190D01*
X312783Y289196D01*
X312789Y289201D01*
X312839Y289280D01*
X312890Y289357D01*
X312891Y289364D01*
X312895Y289371D01*
X312927Y289548D01*
X312927Y298602D01*
X312926Y298610D01*
X312927Y298618D01*
X312906Y298707D01*
X312888Y298799D01*
X312883Y298805D01*
X312881Y298813D01*
X312779Y298961D01*
X297775Y313964D01*
X297775Y328859D01*
X297774Y328864D01*
X297775Y328869D01*
X297754Y328962D01*
X297736Y329056D01*
X297733Y329060D01*
X297732Y329065D01*
X297676Y329143D01*
X297623Y329221D01*
X297619Y329224D01*
X297616Y329228D01*
X297534Y329279D01*
X297455Y329331D01*
X297450Y329331D01*
X297445Y329334D01*
X297268Y329366D01*
X296376Y329366D01*
X291676Y334067D01*
X291669Y334071D01*
X291664Y334077D01*
X291586Y334126D01*
X291509Y334178D01*
X291501Y334179D01*
X291494Y334183D01*
X291317Y334215D01*
X283928Y334215D01*
X283035Y335108D01*
X283035Y346710D01*
X283034Y346715D01*
X283035Y346720D01*
X283014Y346813D01*
X282996Y346907D01*
X282993Y346911D01*
X282992Y346916D01*
X282936Y346994D01*
X282883Y347072D01*
X282879Y347075D01*
X282876Y347079D01*
X282794Y347130D01*
X282715Y347182D01*
X282710Y347182D01*
X282705Y347185D01*
X282528Y347217D01*
X279146Y347217D01*
X279138Y347216D01*
X279130Y347217D01*
X279040Y347196D01*
X278949Y347178D01*
X278943Y347173D01*
X278935Y347171D01*
X278787Y347069D01*
X274961Y343243D01*
X274956Y343236D01*
X274950Y343231D01*
X274901Y343153D01*
X274850Y343076D01*
X274848Y343068D01*
X274844Y343061D01*
X274812Y342884D01*
X274812Y335108D01*
X273919Y334215D01*
X262656Y334215D01*
X261763Y335108D01*
X261763Y344851D01*
X261762Y344853D01*
X261763Y344856D01*
X261743Y344951D01*
X261723Y345047D01*
X261722Y345050D01*
X261721Y345052D01*
X261665Y345133D01*
X261611Y345213D01*
X261608Y345215D01*
X261607Y345217D01*
X261523Y345270D01*
X261442Y345322D01*
X261440Y345323D01*
X261438Y345324D01*
X261341Y345341D01*
X261245Y345358D01*
X261243Y345357D01*
X261240Y345358D01*
X261146Y345336D01*
X261050Y345314D01*
X261047Y345313D01*
X261045Y345312D01*
X260897Y345210D01*
X227067Y311380D01*
X227064Y311376D01*
X227060Y311373D01*
X227009Y311292D01*
X226956Y311213D01*
X226955Y311208D01*
X226953Y311203D01*
X226937Y311110D01*
X226919Y311016D01*
X226920Y311011D01*
X226919Y311006D01*
X226941Y310913D01*
X226960Y310820D01*
X226963Y310816D01*
X226965Y310811D01*
X227067Y310663D01*
X228192Y309538D01*
X228192Y305142D01*
X225083Y302033D01*
X220687Y302033D01*
X217578Y305142D01*
X217578Y308921D01*
X217578Y308924D01*
X217578Y308926D01*
X217558Y309021D01*
X217539Y309118D01*
X217537Y309120D01*
X217537Y309123D01*
X217481Y309203D01*
X217426Y309284D01*
X217424Y309285D01*
X217422Y309287D01*
X217339Y309340D01*
X217258Y309393D01*
X217255Y309393D01*
X217253Y309395D01*
X217157Y309411D01*
X217061Y309428D01*
X217058Y309428D01*
X217056Y309428D01*
X216962Y309406D01*
X216865Y309385D01*
X216863Y309383D01*
X216860Y309383D01*
X216712Y309280D01*
X211275Y303843D01*
X211271Y303836D01*
X211265Y303832D01*
X211216Y303753D01*
X211164Y303676D01*
X211163Y303668D01*
X211159Y303662D01*
X211127Y303484D01*
X211127Y300303D01*
X211135Y300260D01*
X211134Y300217D01*
X211155Y300163D01*
X211166Y300106D01*
X211191Y300070D01*
X211206Y300030D01*
X211246Y299988D01*
X211279Y299941D01*
X211315Y299917D01*
X211345Y299886D01*
X211398Y299863D01*
X211447Y299831D01*
X211490Y299824D01*
X211529Y299806D01*
X211595Y299805D01*
X211644Y299796D01*
X211674Y299802D01*
X211709Y299801D01*
X213167Y300020D01*
X213233Y300044D01*
X213302Y300061D01*
X213329Y300079D01*
X213355Y300089D01*
X213393Y300124D01*
X213450Y300163D01*
X213454Y300167D01*
X214103Y300167D01*
X214137Y300174D01*
X214178Y300173D01*
X214820Y300269D01*
X214824Y300266D01*
X214888Y300236D01*
X214948Y300199D01*
X214981Y300193D01*
X215006Y300181D01*
X215058Y300179D01*
X215126Y300167D01*
X217497Y300166D01*
X217566Y300180D01*
X217637Y300185D01*
X217666Y300200D01*
X217693Y300205D01*
X217736Y300234D01*
X217798Y300265D01*
X217803Y300268D01*
X218444Y300171D01*
X218479Y300173D01*
X218520Y300165D01*
X219169Y300165D01*
X219173Y300161D01*
X219231Y300122D01*
X219285Y300077D01*
X219316Y300066D01*
X219340Y300050D01*
X219390Y300041D01*
X219456Y300018D01*
X221800Y299664D01*
X221871Y299668D01*
X221941Y299663D01*
X221973Y299673D01*
X222001Y299674D01*
X222047Y299696D01*
X222113Y299717D01*
X222118Y299720D01*
X222738Y299528D01*
X222772Y299525D01*
X222812Y299511D01*
X223454Y299415D01*
X223457Y299410D01*
X223509Y299363D01*
X223555Y299309D01*
X223585Y299294D01*
X223605Y299275D01*
X223654Y299258D01*
X223715Y299226D01*
X225981Y298527D01*
X226051Y298520D01*
X226120Y298504D01*
X226153Y298509D01*
X226181Y298507D01*
X226230Y298522D01*
X226298Y298533D01*
X226303Y298534D01*
X226888Y298253D01*
X226922Y298244D01*
X226958Y298225D01*
X227579Y298034D01*
X227581Y298029D01*
X227626Y297974D01*
X227664Y297914D01*
X227690Y297895D01*
X227708Y297873D01*
X227753Y297849D01*
X227809Y297809D01*
X229946Y296779D01*
X230014Y296762D01*
X230080Y296736D01*
X230113Y296736D01*
X230140Y296729D01*
X230191Y296737D01*
X230260Y296738D01*
X230265Y296739D01*
X230801Y296373D01*
X230833Y296359D01*
X230867Y296335D01*
X231452Y296053D01*
X231453Y296048D01*
X231489Y295987D01*
X231518Y295923D01*
X231541Y295900D01*
X231556Y295876D01*
X231597Y295845D01*
X231646Y295796D01*
X233605Y294460D01*
X233670Y294432D01*
X233732Y294397D01*
X233764Y294393D01*
X233790Y294382D01*
X233841Y294382D01*
X233910Y294372D01*
X233915Y294372D01*
X234391Y293931D01*
X234420Y293913D01*
X234450Y293883D01*
X234986Y293518D01*
X234987Y293512D01*
X235014Y293447D01*
X235032Y293379D01*
X235052Y293353D01*
X235063Y293327D01*
X235099Y293290D01*
X235141Y293235D01*
X236878Y291621D01*
X236938Y291584D01*
X236994Y291541D01*
X237025Y291531D01*
X237049Y291517D01*
X237100Y291509D01*
X237167Y291489D01*
X237172Y291488D01*
X237576Y290981D01*
X237603Y290958D01*
X237628Y290925D01*
X238104Y290484D01*
X238104Y290478D01*
X238120Y290409D01*
X238128Y290339D01*
X238144Y290311D01*
X238151Y290283D01*
X238181Y290242D01*
X238214Y290181D01*
X239692Y288326D01*
X239746Y288281D01*
X239794Y288229D01*
X239824Y288215D01*
X239845Y288197D01*
X239894Y288182D01*
X239957Y288153D01*
X239962Y288151D01*
X240287Y287589D01*
X240310Y287563D01*
X240329Y287526D01*
X240734Y287019D01*
X240733Y287014D01*
X240735Y286989D01*
X240734Y286984D01*
X240737Y286975D01*
X240739Y286943D01*
X240737Y286873D01*
X240748Y286842D01*
X240750Y286814D01*
X240774Y286768D01*
X240798Y286703D01*
X241983Y284649D01*
X242030Y284596D01*
X242070Y284538D01*
X242097Y284520D01*
X242115Y284499D01*
X242162Y284476D01*
X242219Y284438D01*
X242224Y284435D01*
X242461Y283831D01*
X242480Y283802D01*
X242494Y283763D01*
X242818Y283201D01*
X242817Y283196D01*
X242812Y283125D01*
X242800Y283056D01*
X242806Y283024D01*
X242804Y282996D01*
X242821Y282947D01*
X242835Y282879D01*
X243700Y280671D01*
X243738Y280612D01*
X243769Y280549D01*
X243794Y280526D01*
X243809Y280503D01*
X243851Y280474D01*
X243902Y280427D01*
X243907Y280424D01*
X244051Y279791D01*
X244066Y279760D01*
X244074Y279719D01*
X244311Y279115D01*
X244308Y279110D01*
X244293Y279041D01*
X244270Y278974D01*
X244272Y278941D01*
X244266Y278914D01*
X244273Y278874D01*
X244272Y278868D01*
X244276Y278853D01*
X244279Y278794D01*
X244806Y276482D01*
X244835Y276418D01*
X244856Y276350D01*
X244876Y276325D01*
X244888Y276299D01*
X244926Y276264D01*
X244969Y276210D01*
X244973Y276207D01*
X245022Y275560D01*
X245031Y275526D01*
X245033Y275485D01*
X245177Y274852D01*
X245174Y274847D01*
X245149Y274781D01*
X245116Y274719D01*
X245113Y274686D01*
X245103Y274660D01*
X245105Y274608D01*
X245098Y274540D01*
X245274Y272175D01*
X245293Y272107D01*
X245304Y272037D01*
X245321Y272009D01*
X245328Y271982D01*
X245360Y271941D01*
X245395Y271882D01*
X245399Y271878D01*
X245350Y271231D01*
X245355Y271196D01*
X245350Y271155D01*
X245399Y270508D01*
X245395Y270504D01*
X245360Y270442D01*
X245319Y270385D01*
X245310Y270353D01*
X245297Y270329D01*
X245291Y270277D01*
X245273Y270211D01*
X245096Y267846D01*
X245104Y267776D01*
X245105Y267705D01*
X245117Y267675D01*
X245120Y267647D01*
X245146Y267602D01*
X245172Y267538D01*
X245175Y267533D01*
X245030Y266901D01*
X245029Y266866D01*
X245019Y266826D01*
X244970Y266179D01*
X244966Y266175D01*
X244922Y266119D01*
X244873Y266069D01*
X244860Y266039D01*
X244843Y266017D01*
X244829Y265967D01*
X244802Y265904D01*
X244274Y263592D01*
X244272Y263521D01*
X244262Y263451D01*
X244269Y263420D01*
X244269Y263392D01*
X244287Y263343D01*
X244303Y263276D01*
X244305Y263271D01*
X244068Y262667D01*
X244062Y262633D01*
X244046Y262595D01*
X243901Y261962D01*
X243897Y261959D01*
X243845Y261911D01*
X243789Y261868D01*
X243772Y261841D01*
X243751Y261821D01*
X243730Y261774D01*
X243694Y261715D01*
X242827Y259508D01*
X242815Y259438D01*
X242794Y259371D01*
X242797Y259338D01*
X242792Y259311D01*
X242803Y259260D01*
X242809Y259191D01*
X242811Y259186D01*
X242486Y258624D01*
X242475Y258591D01*
X242453Y258556D01*
X242216Y257952D01*
X242211Y257950D01*
X242153Y257909D01*
X242091Y257876D01*
X242069Y257851D01*
X242046Y257835D01*
X242019Y257791D01*
X241974Y257739D01*
X240788Y255685D01*
X240765Y255618D01*
X240735Y255555D01*
X240733Y255522D01*
X240724Y255495D01*
X240728Y255444D01*
X240723Y255375D01*
X240724Y255369D01*
X240319Y254862D01*
X240303Y254831D01*
X240276Y254800D01*
X239952Y254238D01*
X239946Y254236D01*
X239883Y254205D01*
X239816Y254181D01*
X239792Y254160D01*
X239767Y254147D01*
X239733Y254108D01*
X239681Y254063D01*
X238202Y252209D01*
X238169Y252146D01*
X238130Y252088D01*
X238123Y252056D01*
X238110Y252031D01*
X238106Y251979D01*
X238091Y251912D01*
X238091Y251906D01*
X237615Y251465D01*
X237595Y251437D01*
X237564Y251410D01*
X237159Y250902D01*
X237154Y250902D01*
X237086Y250880D01*
X237017Y250867D01*
X236989Y250849D01*
X236963Y250840D01*
X236923Y250807D01*
X236865Y250770D01*
X235126Y249157D01*
X235085Y249100D01*
X235037Y249048D01*
X235026Y249017D01*
X235009Y248995D01*
X234998Y248944D01*
X234973Y248880D01*
X234972Y248874D01*
X234436Y248509D01*
X234411Y248484D01*
X234376Y248462D01*
X233901Y248021D01*
X233895Y248021D01*
X233825Y248009D01*
X233755Y248006D01*
X233725Y247993D01*
X233697Y247989D01*
X233653Y247961D01*
X233590Y247933D01*
X232470Y247170D01*
X232409Y247108D01*
X232346Y247049D01*
X232340Y247036D01*
X232330Y247026D01*
X232298Y246946D01*
X232262Y246867D01*
X232261Y246853D01*
X232256Y246840D01*
X232258Y246754D01*
X232255Y246667D01*
X232260Y246653D01*
X232261Y246640D01*
X232283Y246589D01*
X232316Y246497D01*
X251207Y213777D01*
X249889Y213153D01*
X249866Y213136D01*
X249839Y213126D01*
X249787Y213077D01*
X249729Y213034D01*
X249715Y213009D01*
X249694Y212990D01*
X249665Y212924D01*
X249629Y212862D01*
X249626Y212834D01*
X249614Y212808D01*
X249613Y212736D01*
X249604Y212665D01*
X249612Y212638D01*
X249612Y212609D01*
X249647Y212514D01*
X249658Y212474D01*
X249665Y212465D01*
X249669Y212453D01*
X259169Y195953D01*
X259221Y195895D01*
X259267Y195832D01*
X259286Y195821D01*
X259301Y195804D01*
X259371Y195770D01*
X259438Y195730D01*
X259463Y195726D01*
X259480Y195718D01*
X259525Y195716D01*
X259602Y195703D01*
X278602Y195703D01*
X278630Y195708D01*
G37*
G36*
X478143Y393769D02*
X478143Y393769D01*
X478186Y393768D01*
X482179Y394369D01*
X482209Y394380D01*
X482252Y394385D01*
X486111Y395574D01*
X486139Y395589D01*
X486180Y395601D01*
X489818Y397352D01*
X489840Y397369D01*
X489866Y397378D01*
X489919Y397428D01*
X489977Y397472D01*
X489990Y397496D01*
X490010Y397515D01*
X490040Y397581D01*
X490076Y397645D01*
X490079Y397672D01*
X490090Y397697D01*
X490091Y397770D01*
X490100Y397842D01*
X490092Y397868D01*
X490092Y397896D01*
X490056Y397994D01*
X490044Y398033D01*
X490038Y398041D01*
X490034Y398052D01*
X463034Y444852D01*
X463016Y444872D01*
X463005Y444897D01*
X462951Y444946D01*
X462903Y445001D01*
X462878Y445012D01*
X462858Y445031D01*
X462789Y445055D01*
X462723Y445086D01*
X462696Y445088D01*
X462671Y445097D01*
X462598Y445092D01*
X462525Y445095D01*
X462499Y445086D01*
X462472Y445084D01*
X462376Y445040D01*
X462338Y445026D01*
X462331Y445019D01*
X462321Y445015D01*
X458984Y442741D01*
X458962Y442718D01*
X458926Y442695D01*
X455965Y439949D01*
X455946Y439923D01*
X455914Y439895D01*
X453396Y436739D01*
X453381Y436710D01*
X453354Y436677D01*
X451334Y433181D01*
X451324Y433151D01*
X451301Y433114D01*
X449825Y429356D01*
X449820Y429324D01*
X449803Y429284D01*
X448903Y425348D01*
X448903Y425316D01*
X448892Y425274D01*
X448589Y421248D01*
X448592Y421225D01*
X448589Y421205D01*
X448591Y421195D01*
X448589Y421174D01*
X448890Y417147D01*
X448898Y417116D01*
X448901Y417073D01*
X449798Y413137D01*
X449811Y413108D01*
X449820Y413065D01*
X451294Y409306D01*
X451311Y409279D01*
X451326Y409239D01*
X453344Y405742D01*
X453365Y405718D01*
X453386Y405680D01*
X455902Y402522D01*
X455927Y402502D01*
X455953Y402468D01*
X458912Y399720D01*
X458939Y399704D01*
X458970Y399674D01*
X462306Y397398D01*
X462335Y397386D01*
X462370Y397361D01*
X466008Y395608D01*
X466038Y395600D01*
X466077Y395581D01*
X469935Y394389D01*
X469967Y394386D01*
X470008Y394373D01*
X474000Y393770D01*
X474032Y393771D01*
X474074Y393764D01*
X478112Y393763D01*
X478143Y393769D01*
G37*
G36*
X218330Y393764D02*
X218330Y393764D01*
X218361Y393770D01*
X218404Y393770D01*
X222396Y394373D01*
X222426Y394384D01*
X222469Y394389D01*
X226327Y395581D01*
X226355Y395596D01*
X226397Y395608D01*
X230034Y397361D01*
X230059Y397380D01*
X230098Y397398D01*
X233434Y399674D01*
X233456Y399697D01*
X233492Y399720D01*
X236451Y402468D01*
X236470Y402493D01*
X236502Y402522D01*
X239018Y405680D01*
X239033Y405708D01*
X239060Y405742D01*
X241078Y409239D01*
X241088Y409269D01*
X241110Y409306D01*
X242584Y413065D01*
X242590Y413097D01*
X242606Y413137D01*
X243503Y417073D01*
X243504Y417105D01*
X243514Y417147D01*
X243815Y421174D01*
X243811Y421205D01*
X243812Y421221D01*
X243815Y421238D01*
X243814Y421242D01*
X243815Y421248D01*
X243512Y425274D01*
X243503Y425305D01*
X243501Y425348D01*
X242601Y429284D01*
X242588Y429313D01*
X242579Y429356D01*
X241103Y433114D01*
X241085Y433141D01*
X241070Y433181D01*
X239050Y436677D01*
X239029Y436701D01*
X239008Y436739D01*
X236490Y439895D01*
X236465Y439915D01*
X236439Y439949D01*
X233478Y442695D01*
X233451Y442711D01*
X233420Y442741D01*
X230083Y445015D01*
X230058Y445025D01*
X230037Y445042D01*
X229967Y445063D01*
X229900Y445092D01*
X229872Y445092D01*
X229846Y445099D01*
X229774Y445091D01*
X229701Y445091D01*
X229676Y445080D01*
X229649Y445077D01*
X229585Y445041D01*
X229518Y445013D01*
X229499Y444993D01*
X229476Y444980D01*
X229409Y444899D01*
X229380Y444869D01*
X229377Y444860D01*
X229370Y444852D01*
X202370Y398052D01*
X202361Y398026D01*
X202345Y398003D01*
X202330Y397932D01*
X202306Y397863D01*
X202309Y397836D01*
X202303Y397809D01*
X202316Y397738D01*
X202322Y397665D01*
X202335Y397640D01*
X202340Y397614D01*
X202380Y397553D01*
X202414Y397488D01*
X202435Y397471D01*
X202450Y397448D01*
X202536Y397387D01*
X202567Y397362D01*
X202576Y397359D01*
X202586Y397352D01*
X206224Y395601D01*
X206255Y395594D01*
X206293Y395574D01*
X210152Y394385D01*
X210184Y394382D01*
X210225Y394369D01*
X214218Y393768D01*
X214249Y393770D01*
X214292Y393763D01*
X218330Y393764D01*
G37*
G36*
X462630Y247313D02*
X462630Y247313D01*
X462703Y247313D01*
X462728Y247324D01*
X462755Y247327D01*
X462819Y247363D01*
X462886Y247391D01*
X462905Y247411D01*
X462928Y247424D01*
X462996Y247505D01*
X463024Y247535D01*
X463027Y247544D01*
X463034Y247553D01*
X490034Y294353D01*
X490043Y294378D01*
X490059Y294401D01*
X490074Y294472D01*
X490098Y294541D01*
X490095Y294568D01*
X490101Y294595D01*
X490088Y294666D01*
X490082Y294739D01*
X490069Y294764D01*
X490064Y294790D01*
X490024Y294851D01*
X489990Y294916D01*
X489969Y294933D01*
X489954Y294956D01*
X489868Y295017D01*
X489837Y295042D01*
X489828Y295045D01*
X489818Y295052D01*
X486180Y296803D01*
X486149Y296810D01*
X486111Y296830D01*
X482252Y298019D01*
X482220Y298022D01*
X482179Y298035D01*
X478186Y298636D01*
X478155Y298634D01*
X478112Y298641D01*
X474074Y298640D01*
X474043Y298634D01*
X474000Y298634D01*
X470008Y298031D01*
X469978Y298020D01*
X469935Y298015D01*
X466077Y296823D01*
X466049Y296808D01*
X466008Y296796D01*
X462370Y295043D01*
X462345Y295024D01*
X462306Y295006D01*
X458970Y292730D01*
X458948Y292707D01*
X458912Y292684D01*
X455953Y289936D01*
X455934Y289911D01*
X455902Y289882D01*
X453386Y286724D01*
X453371Y286696D01*
X453344Y286662D01*
X451326Y283165D01*
X451316Y283135D01*
X451294Y283098D01*
X449820Y279339D01*
X449814Y279307D01*
X449798Y279267D01*
X448901Y275331D01*
X448900Y275299D01*
X448890Y275257D01*
X448589Y271231D01*
X448593Y271199D01*
X448589Y271156D01*
X448892Y267130D01*
X448901Y267099D01*
X448903Y267056D01*
X449803Y263120D01*
X449816Y263091D01*
X449825Y263048D01*
X451301Y259290D01*
X451319Y259263D01*
X451334Y259223D01*
X453354Y255727D01*
X453375Y255703D01*
X453396Y255665D01*
X455914Y252509D01*
X455939Y252489D01*
X455965Y252455D01*
X458926Y249709D01*
X458953Y249693D01*
X458984Y249663D01*
X462321Y247389D01*
X462346Y247379D01*
X462367Y247362D01*
X462437Y247341D01*
X462504Y247312D01*
X462532Y247313D01*
X462558Y247305D01*
X462630Y247313D01*
G37*
G36*
X229806Y247312D02*
X229806Y247312D01*
X229879Y247309D01*
X229905Y247318D01*
X229932Y247320D01*
X230028Y247364D01*
X230066Y247378D01*
X230073Y247385D01*
X230083Y247389D01*
X233420Y249663D01*
X233442Y249686D01*
X233478Y249709D01*
X236439Y252455D01*
X236458Y252481D01*
X236490Y252509D01*
X239008Y255665D01*
X239023Y255694D01*
X239050Y255727D01*
X241070Y259223D01*
X241080Y259253D01*
X241103Y259290D01*
X242579Y263048D01*
X242584Y263080D01*
X242601Y263120D01*
X243501Y267056D01*
X243501Y267088D01*
X243512Y267130D01*
X243815Y271156D01*
X243811Y271187D01*
X243815Y271231D01*
X243514Y275257D01*
X243506Y275288D01*
X243503Y275331D01*
X242606Y279267D01*
X242593Y279296D01*
X242584Y279339D01*
X241110Y283098D01*
X241093Y283125D01*
X241078Y283165D01*
X239060Y286662D01*
X239039Y286686D01*
X239018Y286724D01*
X236502Y289882D01*
X236477Y289902D01*
X236451Y289936D01*
X233492Y292684D01*
X233465Y292700D01*
X233434Y292730D01*
X230098Y295006D01*
X230069Y295018D01*
X230034Y295043D01*
X226397Y296796D01*
X226366Y296804D01*
X226327Y296823D01*
X222469Y298015D01*
X222437Y298018D01*
X222396Y298031D01*
X218404Y298634D01*
X218372Y298633D01*
X218330Y298640D01*
X214292Y298641D01*
X214261Y298635D01*
X214218Y298636D01*
X210225Y298035D01*
X210195Y298024D01*
X210152Y298019D01*
X206293Y296830D01*
X206265Y296815D01*
X206224Y296803D01*
X202586Y295052D01*
X202564Y295035D01*
X202538Y295026D01*
X202485Y294976D01*
X202427Y294932D01*
X202414Y294908D01*
X202394Y294889D01*
X202364Y294823D01*
X202328Y294759D01*
X202325Y294732D01*
X202314Y294707D01*
X202313Y294634D01*
X202304Y294562D01*
X202312Y294536D01*
X202312Y294508D01*
X202348Y294410D01*
X202360Y294371D01*
X202366Y294363D01*
X202370Y294353D01*
X229370Y247553D01*
X229388Y247532D01*
X229399Y247507D01*
X229453Y247458D01*
X229501Y247404D01*
X229526Y247392D01*
X229546Y247373D01*
X229615Y247349D01*
X229681Y247318D01*
X229708Y247317D01*
X229733Y247307D01*
X229806Y247312D01*
G37*
G36*
X348251Y468785D02*
X348251Y468785D01*
X348294Y468784D01*
X352284Y469385D01*
X352314Y469396D01*
X352357Y469402D01*
X356213Y470591D01*
X356241Y470607D01*
X356283Y470619D01*
X359919Y472370D01*
X359944Y472389D01*
X359983Y472407D01*
X363317Y474680D01*
X363340Y474703D01*
X363376Y474727D01*
X366334Y477471D01*
X366353Y477497D01*
X366385Y477526D01*
X368901Y480681D01*
X368915Y480709D01*
X368943Y480743D01*
X370961Y484238D01*
X370971Y484268D01*
X370993Y484305D01*
X372467Y488061D01*
X372468Y488068D01*
X372470Y488069D01*
X372474Y488096D01*
X372489Y488133D01*
X373387Y492067D01*
X373388Y492099D01*
X373398Y492141D01*
X373700Y496165D01*
X373696Y496192D01*
X373701Y496219D01*
X373684Y496289D01*
X373675Y496362D01*
X373661Y496386D01*
X373655Y496412D01*
X373612Y496471D01*
X373575Y496534D01*
X373553Y496550D01*
X373537Y496572D01*
X373474Y496609D01*
X373416Y496653D01*
X373389Y496660D01*
X373366Y496674D01*
X373262Y496691D01*
X373223Y496701D01*
X373213Y496699D01*
X373202Y496701D01*
X319202Y496701D01*
X319175Y496696D01*
X319148Y496698D01*
X319079Y496676D01*
X319007Y496662D01*
X318985Y496646D01*
X318959Y496638D01*
X318903Y496590D01*
X318843Y496549D01*
X318829Y496526D01*
X318808Y496508D01*
X318776Y496443D01*
X318736Y496382D01*
X318732Y496355D01*
X318720Y496330D01*
X318710Y496226D01*
X318703Y496185D01*
X318705Y496176D01*
X318704Y496165D01*
X319006Y492141D01*
X319014Y492110D01*
X319017Y492067D01*
X319915Y488133D01*
X319928Y488104D01*
X319937Y488061D01*
X321411Y484305D01*
X321428Y484278D01*
X321443Y484238D01*
X323461Y480743D01*
X323482Y480719D01*
X323503Y480681D01*
X326019Y477526D01*
X326044Y477506D01*
X326070Y477471D01*
X329028Y474727D01*
X329055Y474710D01*
X329087Y474680D01*
X332421Y472407D01*
X332450Y472394D01*
X332485Y472370D01*
X336121Y470619D01*
X336152Y470611D01*
X336191Y470591D01*
X340047Y469402D01*
X340078Y469399D01*
X340120Y469385D01*
X344110Y468784D01*
X344142Y468785D01*
X344184Y468778D01*
X348220Y468778D01*
X348251Y468785D01*
G37*
%LPC*%
G36*
X379425Y440757D02*
X379425Y440757D01*
X379314Y440777D01*
X376937Y440777D01*
X375677Y442037D01*
X375677Y444414D01*
X375676Y444422D01*
X375677Y444430D01*
X375656Y444520D01*
X375638Y444611D01*
X375633Y444617D01*
X375632Y444625D01*
X375529Y444773D01*
X374923Y445379D01*
X374916Y445383D01*
X374912Y445390D01*
X374833Y445438D01*
X374756Y445490D01*
X374748Y445491D01*
X374742Y445495D01*
X374564Y445527D01*
X372187Y445527D01*
X370927Y446787D01*
X370927Y449164D01*
X370926Y449172D01*
X370927Y449180D01*
X370907Y449265D01*
X370907Y451829D01*
X370927Y451940D01*
X370927Y454318D01*
X372187Y455577D01*
X375217Y455577D01*
X376192Y454603D01*
X376196Y454600D01*
X376199Y454595D01*
X376279Y454544D01*
X376359Y454492D01*
X376364Y454491D01*
X376368Y454488D01*
X376462Y454472D01*
X376555Y454454D01*
X376561Y454455D01*
X376566Y454454D01*
X376658Y454476D01*
X376752Y454496D01*
X376756Y454499D01*
X376761Y454500D01*
X376909Y454603D01*
X387407Y465100D01*
X387411Y465107D01*
X387417Y465111D01*
X387466Y465190D01*
X387518Y465267D01*
X387519Y465275D01*
X387523Y465282D01*
X387555Y465459D01*
X387555Y474262D01*
X388448Y475155D01*
X400712Y475155D01*
X401605Y474262D01*
X401605Y472564D01*
X401605Y472562D01*
X401605Y472559D01*
X401625Y472464D01*
X401644Y472368D01*
X401646Y472365D01*
X401646Y472363D01*
X401702Y472282D01*
X401757Y472202D01*
X401759Y472200D01*
X401761Y472198D01*
X401844Y472145D01*
X401925Y472093D01*
X401928Y472092D01*
X401930Y472091D01*
X402026Y472074D01*
X402122Y472057D01*
X402125Y472058D01*
X402127Y472057D01*
X402222Y472079D01*
X402318Y472101D01*
X402320Y472102D01*
X402323Y472103D01*
X402471Y472205D01*
X404202Y473937D01*
X408598Y473937D01*
X411707Y470828D01*
X411707Y466432D01*
X408598Y463323D01*
X404202Y463323D01*
X402471Y465055D01*
X402468Y465056D01*
X402467Y465058D01*
X402386Y465111D01*
X402304Y465165D01*
X402301Y465166D01*
X402299Y465167D01*
X402203Y465185D01*
X402107Y465203D01*
X402104Y465203D01*
X402102Y465203D01*
X402005Y465182D01*
X401911Y465161D01*
X401909Y465160D01*
X401906Y465159D01*
X401826Y465103D01*
X401746Y465047D01*
X401745Y465045D01*
X401743Y465043D01*
X401691Y464961D01*
X401639Y464878D01*
X401638Y464875D01*
X401637Y464873D01*
X401605Y464696D01*
X401605Y462998D01*
X400712Y462105D01*
X392527Y462105D01*
X392519Y462104D01*
X392511Y462105D01*
X392421Y462084D01*
X392330Y462066D01*
X392324Y462061D01*
X392316Y462059D01*
X392168Y461957D01*
X379754Y449543D01*
X379567Y449356D01*
X379565Y449352D01*
X379560Y449349D01*
X379509Y449269D01*
X379457Y449189D01*
X379456Y449184D01*
X379453Y449180D01*
X379437Y449086D01*
X379419Y448993D01*
X379420Y448987D01*
X379419Y448982D01*
X379441Y448889D01*
X379461Y448796D01*
X379463Y448792D01*
X379465Y448787D01*
X379567Y448639D01*
X381711Y446495D01*
X381718Y446491D01*
X381722Y446485D01*
X381801Y446436D01*
X381878Y446384D01*
X381886Y446383D01*
X381892Y446379D01*
X382070Y446347D01*
X387938Y446347D01*
X387943Y446348D01*
X387948Y446347D01*
X388041Y446368D01*
X388135Y446386D01*
X388139Y446389D01*
X388144Y446390D01*
X388222Y446446D01*
X388300Y446499D01*
X388303Y446503D01*
X388307Y446506D01*
X388358Y446588D01*
X388410Y446667D01*
X388410Y446672D01*
X388413Y446677D01*
X388445Y446854D01*
X388445Y456592D01*
X389338Y457485D01*
X400602Y457485D01*
X401495Y456592D01*
X401495Y444328D01*
X400602Y443435D01*
X393638Y443435D01*
X393630Y443434D01*
X393622Y443435D01*
X393532Y443414D01*
X393441Y443396D01*
X393435Y443391D01*
X393427Y443389D01*
X393279Y443287D01*
X390750Y440757D01*
X379425Y440757D01*
G37*
%LPD*%
%LPC*%
G36*
X463523Y309595D02*
X463523Y309595D01*
X462630Y310488D01*
X462630Y327052D01*
X463523Y327945D01*
X480087Y327945D01*
X480980Y327052D01*
X480980Y310488D01*
X480087Y309595D01*
X463523Y309595D01*
G37*
%LPD*%
%LPC*%
G36*
X279238Y229195D02*
X279238Y229195D01*
X278345Y230088D01*
X278345Y232410D01*
X278344Y232415D01*
X278345Y232420D01*
X278325Y232513D01*
X278306Y232607D01*
X278303Y232611D01*
X278302Y232616D01*
X278246Y232694D01*
X278193Y232772D01*
X278189Y232775D01*
X278186Y232779D01*
X278104Y232830D01*
X278025Y232882D01*
X278020Y232882D01*
X278015Y232885D01*
X277838Y232917D01*
X276192Y232917D01*
X276184Y232916D01*
X276177Y232917D01*
X276087Y232896D01*
X275996Y232878D01*
X275989Y232873D01*
X275982Y232871D01*
X275834Y232769D01*
X273978Y230913D01*
X269582Y230913D01*
X266473Y234022D01*
X266473Y238418D01*
X269582Y241527D01*
X273978Y241527D01*
X275834Y239671D01*
X275840Y239667D01*
X275845Y239661D01*
X275923Y239612D01*
X276001Y239560D01*
X276008Y239559D01*
X276015Y239555D01*
X276192Y239523D01*
X277838Y239523D01*
X277843Y239524D01*
X277848Y239523D01*
X277941Y239544D01*
X278035Y239562D01*
X278039Y239565D01*
X278044Y239566D01*
X278122Y239622D01*
X278200Y239675D01*
X278203Y239679D01*
X278207Y239682D01*
X278258Y239764D01*
X278310Y239843D01*
X278310Y239848D01*
X278313Y239853D01*
X278345Y240030D01*
X278345Y242352D01*
X279238Y243245D01*
X290502Y243245D01*
X291395Y242352D01*
X291395Y230088D01*
X290502Y229195D01*
X279238Y229195D01*
G37*
%LPD*%
D10*
X449580Y389500D03*
X449580Y372500D03*
D11*
X429260Y370230D03*
X429260Y389230D03*
D12*
X377827Y442927D02*
X377827Y444177D01*
X383577Y444177D01*
X383577Y442927D01*
X377827Y442927D01*
X377827Y444114D02*
X383577Y444114D01*
X377827Y439177D02*
X377827Y437927D01*
X377827Y439177D02*
X383577Y439177D01*
X383577Y437927D01*
X377827Y437927D01*
X377827Y439114D02*
X383577Y439114D01*
X377827Y434177D02*
X377827Y432927D01*
X377827Y434177D02*
X383577Y434177D01*
X383577Y432927D01*
X377827Y432927D01*
X377827Y434114D02*
X383577Y434114D01*
X377827Y429177D02*
X377827Y427927D01*
X377827Y429177D02*
X383577Y429177D01*
X383577Y427927D01*
X377827Y427927D01*
X377827Y429114D02*
X383577Y429114D01*
X377827Y424177D02*
X377827Y422927D01*
X377827Y424177D02*
X383577Y424177D01*
X383577Y422927D01*
X377827Y422927D01*
X377827Y424114D02*
X383577Y424114D01*
X377827Y419177D02*
X377827Y417927D01*
X377827Y419177D02*
X383577Y419177D01*
X383577Y417927D01*
X377827Y417927D01*
X377827Y419114D02*
X383577Y419114D01*
X377827Y414177D02*
X377827Y412927D01*
X377827Y414177D02*
X383577Y414177D01*
X383577Y412927D01*
X377827Y412927D01*
X377827Y414114D02*
X383577Y414114D01*
X377827Y409177D02*
X377827Y407927D01*
X377827Y409177D02*
X383577Y409177D01*
X383577Y407927D01*
X377827Y407927D01*
X377827Y409114D02*
X383577Y409114D01*
X377827Y404177D02*
X377827Y402927D01*
X377827Y404177D02*
X383577Y404177D01*
X383577Y402927D01*
X377827Y402927D01*
X377827Y404114D02*
X383577Y404114D01*
X377827Y399177D02*
X377827Y397927D01*
X377827Y399177D02*
X383577Y399177D01*
X383577Y397927D01*
X377827Y397927D01*
X377827Y399114D02*
X383577Y399114D01*
X377827Y394177D02*
X377827Y392927D01*
X377827Y394177D02*
X383577Y394177D01*
X383577Y392927D01*
X377827Y392927D01*
X377827Y394114D02*
X383577Y394114D01*
X377827Y389177D02*
X377827Y387927D01*
X377827Y389177D02*
X383577Y389177D01*
X383577Y387927D01*
X377827Y387927D01*
X377827Y389114D02*
X383577Y389114D01*
X374327Y384427D02*
X373077Y384427D01*
X374327Y384427D02*
X374327Y378677D01*
X373077Y378677D01*
X373077Y384427D01*
X373077Y379864D02*
X374327Y379864D01*
X374327Y381051D02*
X373077Y381051D01*
X373077Y382238D02*
X374327Y382238D01*
X374327Y383425D02*
X373077Y383425D01*
X369327Y384427D02*
X368077Y384427D01*
X369327Y384427D02*
X369327Y378677D01*
X368077Y378677D01*
X368077Y384427D01*
X368077Y379864D02*
X369327Y379864D01*
X369327Y381051D02*
X368077Y381051D01*
X368077Y382238D02*
X369327Y382238D01*
X369327Y383425D02*
X368077Y383425D01*
X364327Y384427D02*
X363077Y384427D01*
X364327Y384427D02*
X364327Y378677D01*
X363077Y378677D01*
X363077Y384427D01*
X363077Y379864D02*
X364327Y379864D01*
X364327Y381051D02*
X363077Y381051D01*
X363077Y382238D02*
X364327Y382238D01*
X364327Y383425D02*
X363077Y383425D01*
X359327Y384427D02*
X358077Y384427D01*
X359327Y384427D02*
X359327Y378677D01*
X358077Y378677D01*
X358077Y384427D01*
X358077Y379864D02*
X359327Y379864D01*
X359327Y381051D02*
X358077Y381051D01*
X358077Y382238D02*
X359327Y382238D01*
X359327Y383425D02*
X358077Y383425D01*
X354327Y384427D02*
X353077Y384427D01*
X354327Y384427D02*
X354327Y378677D01*
X353077Y378677D01*
X353077Y384427D01*
X353077Y379864D02*
X354327Y379864D01*
X354327Y381051D02*
X353077Y381051D01*
X353077Y382238D02*
X354327Y382238D01*
X354327Y383425D02*
X353077Y383425D01*
X349327Y384427D02*
X348077Y384427D01*
X349327Y384427D02*
X349327Y378677D01*
X348077Y378677D01*
X348077Y384427D01*
X348077Y379864D02*
X349327Y379864D01*
X349327Y381051D02*
X348077Y381051D01*
X348077Y382238D02*
X349327Y382238D01*
X349327Y383425D02*
X348077Y383425D01*
X344327Y384427D02*
X343077Y384427D01*
X344327Y384427D02*
X344327Y378677D01*
X343077Y378677D01*
X343077Y384427D01*
X343077Y379864D02*
X344327Y379864D01*
X344327Y381051D02*
X343077Y381051D01*
X343077Y382238D02*
X344327Y382238D01*
X344327Y383425D02*
X343077Y383425D01*
X339327Y384427D02*
X338077Y384427D01*
X339327Y384427D02*
X339327Y378677D01*
X338077Y378677D01*
X338077Y384427D01*
X338077Y379864D02*
X339327Y379864D01*
X339327Y381051D02*
X338077Y381051D01*
X338077Y382238D02*
X339327Y382238D01*
X339327Y383425D02*
X338077Y383425D01*
X334327Y384427D02*
X333077Y384427D01*
X334327Y384427D02*
X334327Y378677D01*
X333077Y378677D01*
X333077Y384427D01*
X333077Y379864D02*
X334327Y379864D01*
X334327Y381051D02*
X333077Y381051D01*
X333077Y382238D02*
X334327Y382238D01*
X334327Y383425D02*
X333077Y383425D01*
X329327Y384427D02*
X328077Y384427D01*
X329327Y384427D02*
X329327Y378677D01*
X328077Y378677D01*
X328077Y384427D01*
X328077Y379864D02*
X329327Y379864D01*
X329327Y381051D02*
X328077Y381051D01*
X328077Y382238D02*
X329327Y382238D01*
X329327Y383425D02*
X328077Y383425D01*
X324327Y384427D02*
X323077Y384427D01*
X324327Y384427D02*
X324327Y378677D01*
X323077Y378677D01*
X323077Y384427D01*
X323077Y379864D02*
X324327Y379864D01*
X324327Y381051D02*
X323077Y381051D01*
X323077Y382238D02*
X324327Y382238D01*
X324327Y383425D02*
X323077Y383425D01*
X319327Y384427D02*
X318077Y384427D01*
X319327Y384427D02*
X319327Y378677D01*
X318077Y378677D01*
X318077Y384427D01*
X318077Y379864D02*
X319327Y379864D01*
X319327Y381051D02*
X318077Y381051D01*
X318077Y382238D02*
X319327Y382238D01*
X319327Y383425D02*
X318077Y383425D01*
X314577Y387927D02*
X314577Y389177D01*
X314577Y387927D02*
X308827Y387927D01*
X308827Y389177D01*
X314577Y389177D01*
X314577Y389114D02*
X308827Y389114D01*
X314577Y392927D02*
X314577Y394177D01*
X314577Y392927D02*
X308827Y392927D01*
X308827Y394177D01*
X314577Y394177D01*
X314577Y394114D02*
X308827Y394114D01*
X314577Y397927D02*
X314577Y399177D01*
X314577Y397927D02*
X308827Y397927D01*
X308827Y399177D01*
X314577Y399177D01*
X314577Y399114D02*
X308827Y399114D01*
X314577Y402927D02*
X314577Y404177D01*
X314577Y402927D02*
X308827Y402927D01*
X308827Y404177D01*
X314577Y404177D01*
X314577Y404114D02*
X308827Y404114D01*
X314577Y407927D02*
X314577Y409177D01*
X314577Y407927D02*
X308827Y407927D01*
X308827Y409177D01*
X314577Y409177D01*
X314577Y409114D02*
X308827Y409114D01*
X314577Y412927D02*
X314577Y414177D01*
X314577Y412927D02*
X308827Y412927D01*
X308827Y414177D01*
X314577Y414177D01*
X314577Y414114D02*
X308827Y414114D01*
X314577Y417927D02*
X314577Y419177D01*
X314577Y417927D02*
X308827Y417927D01*
X308827Y419177D01*
X314577Y419177D01*
X314577Y419114D02*
X308827Y419114D01*
X314577Y422927D02*
X314577Y424177D01*
X314577Y422927D02*
X308827Y422927D01*
X308827Y424177D01*
X314577Y424177D01*
X314577Y424114D02*
X308827Y424114D01*
X314577Y427927D02*
X314577Y429177D01*
X314577Y427927D02*
X308827Y427927D01*
X308827Y429177D01*
X314577Y429177D01*
X314577Y429114D02*
X308827Y429114D01*
X314577Y432927D02*
X314577Y434177D01*
X314577Y432927D02*
X308827Y432927D01*
X308827Y434177D01*
X314577Y434177D01*
X314577Y434114D02*
X308827Y434114D01*
X314577Y437927D02*
X314577Y439177D01*
X314577Y437927D02*
X308827Y437927D01*
X308827Y439177D01*
X314577Y439177D01*
X314577Y439114D02*
X308827Y439114D01*
X314577Y442927D02*
X314577Y444177D01*
X314577Y442927D02*
X308827Y442927D01*
X308827Y444177D01*
X314577Y444177D01*
X314577Y444114D02*
X308827Y444114D01*
X318077Y447677D02*
X319327Y447677D01*
X318077Y447677D02*
X318077Y453427D01*
X319327Y453427D01*
X319327Y447677D01*
X319327Y448864D02*
X318077Y448864D01*
X318077Y450051D02*
X319327Y450051D01*
X319327Y451238D02*
X318077Y451238D01*
X318077Y452425D02*
X319327Y452425D01*
X323077Y447677D02*
X324327Y447677D01*
X323077Y447677D02*
X323077Y453427D01*
X324327Y453427D01*
X324327Y447677D01*
X324327Y448864D02*
X323077Y448864D01*
X323077Y450051D02*
X324327Y450051D01*
X324327Y451238D02*
X323077Y451238D01*
X323077Y452425D02*
X324327Y452425D01*
X328077Y447677D02*
X329327Y447677D01*
X328077Y447677D02*
X328077Y453427D01*
X329327Y453427D01*
X329327Y447677D01*
X329327Y448864D02*
X328077Y448864D01*
X328077Y450051D02*
X329327Y450051D01*
X329327Y451238D02*
X328077Y451238D01*
X328077Y452425D02*
X329327Y452425D01*
X333077Y447677D02*
X334327Y447677D01*
X333077Y447677D02*
X333077Y453427D01*
X334327Y453427D01*
X334327Y447677D01*
X334327Y448864D02*
X333077Y448864D01*
X333077Y450051D02*
X334327Y450051D01*
X334327Y451238D02*
X333077Y451238D01*
X333077Y452425D02*
X334327Y452425D01*
X338077Y447677D02*
X339327Y447677D01*
X338077Y447677D02*
X338077Y453427D01*
X339327Y453427D01*
X339327Y447677D01*
X339327Y448864D02*
X338077Y448864D01*
X338077Y450051D02*
X339327Y450051D01*
X339327Y451238D02*
X338077Y451238D01*
X338077Y452425D02*
X339327Y452425D01*
X343077Y447677D02*
X344327Y447677D01*
X343077Y447677D02*
X343077Y453427D01*
X344327Y453427D01*
X344327Y447677D01*
X344327Y448864D02*
X343077Y448864D01*
X343077Y450051D02*
X344327Y450051D01*
X344327Y451238D02*
X343077Y451238D01*
X343077Y452425D02*
X344327Y452425D01*
X348077Y447677D02*
X349327Y447677D01*
X348077Y447677D02*
X348077Y453427D01*
X349327Y453427D01*
X349327Y447677D01*
X349327Y448864D02*
X348077Y448864D01*
X348077Y450051D02*
X349327Y450051D01*
X349327Y451238D02*
X348077Y451238D01*
X348077Y452425D02*
X349327Y452425D01*
X353077Y447677D02*
X354327Y447677D01*
X353077Y447677D02*
X353077Y453427D01*
X354327Y453427D01*
X354327Y447677D01*
X354327Y448864D02*
X353077Y448864D01*
X353077Y450051D02*
X354327Y450051D01*
X354327Y451238D02*
X353077Y451238D01*
X353077Y452425D02*
X354327Y452425D01*
X358077Y447677D02*
X359327Y447677D01*
X358077Y447677D02*
X358077Y453427D01*
X359327Y453427D01*
X359327Y447677D01*
X359327Y448864D02*
X358077Y448864D01*
X358077Y450051D02*
X359327Y450051D01*
X359327Y451238D02*
X358077Y451238D01*
X358077Y452425D02*
X359327Y452425D01*
X363077Y447677D02*
X364327Y447677D01*
X363077Y447677D02*
X363077Y453427D01*
X364327Y453427D01*
X364327Y447677D01*
X364327Y448864D02*
X363077Y448864D01*
X363077Y450051D02*
X364327Y450051D01*
X364327Y451238D02*
X363077Y451238D01*
X363077Y452425D02*
X364327Y452425D01*
X368077Y447677D02*
X369327Y447677D01*
X368077Y447677D02*
X368077Y453427D01*
X369327Y453427D01*
X369327Y447677D01*
X369327Y448864D02*
X368077Y448864D01*
X368077Y450051D02*
X369327Y450051D01*
X369327Y451238D02*
X368077Y451238D01*
X368077Y452425D02*
X369327Y452425D01*
X373077Y447677D02*
X374327Y447677D01*
X373077Y447677D02*
X373077Y453427D01*
X374327Y453427D01*
X374327Y447677D01*
X374327Y448864D02*
X373077Y448864D01*
X373077Y450051D02*
X374327Y450051D01*
X374327Y451238D02*
X373077Y451238D01*
X373077Y452425D02*
X374327Y452425D01*
D13*
X346202Y416052D03*
D14*
X417670Y432860D03*
X417670Y420860D03*
X417670Y408860D03*
D11*
X253812Y443068D03*
X253812Y424068D03*
D10*
X408940Y372500D03*
X408940Y389500D03*
D15*
X270664Y437647D03*
X287664Y437647D03*
D16*
X303237Y464272D02*
X314237Y464272D01*
X314237Y459272D01*
X303237Y459272D01*
X303237Y464272D01*
X303237Y464022D02*
X314237Y464022D01*
X314301Y484672D02*
X303301Y484672D01*
X303301Y489672D01*
X314301Y489672D01*
X314301Y484672D01*
X314301Y489422D02*
X303301Y489422D01*
X469099Y353576D02*
X480099Y353576D01*
X469099Y353576D02*
X469099Y358576D01*
X480099Y358576D01*
X480099Y353576D01*
X480099Y358326D02*
X469099Y358326D01*
X445779Y450052D02*
X434779Y450052D01*
X434779Y455052D01*
X445779Y455052D01*
X445779Y450052D01*
X445779Y454802D02*
X434779Y454802D01*
D17*
X428802Y489302D03*
X511402Y346202D03*
X428802Y203102D03*
X263602Y203102D03*
X181002Y346202D03*
X263602Y489302D03*
X470102Y417702D03*
X470102Y274702D03*
X222302Y274702D03*
X222302Y417702D03*
X346202Y489302D03*
D10*
X284870Y236220D03*
X301870Y236220D03*
X301870Y256540D03*
X284870Y256540D03*
X289560Y341240D03*
X289560Y324240D03*
D15*
X380048Y340850D03*
X380048Y323850D03*
D10*
X394970Y450460D03*
X394970Y433460D03*
X299720Y390770D03*
X299720Y373770D03*
D15*
X394580Y468630D03*
X377580Y468630D03*
D10*
X334963Y284870D03*
X334963Y301870D03*
X356553Y284870D03*
X356553Y301870D03*
X377190Y225670D03*
X377190Y208670D03*
D11*
X279400Y389230D03*
X279400Y370230D03*
X397510Y226670D03*
X397510Y207670D03*
D10*
X268288Y341240D03*
X268288Y324240D03*
X425060Y257810D03*
X408060Y257810D03*
D15*
X311150Y324240D03*
X311150Y341240D03*
D18*
X471805Y318770D03*
D19*
X446405Y318770D03*
D20*
X353723Y229068D02*
X353723Y223692D01*
X352847Y223692D01*
X352847Y229068D01*
X353723Y229068D01*
X353723Y226186D02*
X352847Y226186D01*
X352847Y228680D02*
X353723Y228680D01*
X347223Y229068D02*
X347223Y223692D01*
X346347Y223692D01*
X346347Y229068D01*
X347223Y229068D01*
X347223Y226186D02*
X346347Y226186D01*
X346347Y228680D02*
X347223Y228680D01*
X340723Y229068D02*
X340723Y223692D01*
X339847Y223692D01*
X339847Y229068D01*
X340723Y229068D01*
X340723Y226186D02*
X339847Y226186D01*
X339847Y228680D02*
X340723Y228680D01*
X334223Y229068D02*
X334223Y223692D01*
X333347Y223692D01*
X333347Y229068D01*
X334223Y229068D01*
X334223Y226186D02*
X333347Y226186D01*
X333347Y228680D02*
X334223Y228680D01*
X326223Y236192D02*
X320847Y236192D01*
X320847Y237068D01*
X326223Y237068D01*
X326223Y236192D01*
X326223Y242692D02*
X320847Y242692D01*
X320847Y243568D01*
X326223Y243568D01*
X326223Y242692D01*
X326223Y249192D02*
X320847Y249192D01*
X320847Y250068D01*
X326223Y250068D01*
X326223Y249192D01*
X326223Y255692D02*
X320847Y255692D01*
X320847Y256568D01*
X326223Y256568D01*
X326223Y255692D01*
X333347Y263692D02*
X333347Y269068D01*
X334223Y269068D01*
X334223Y263692D01*
X333347Y263692D01*
X333347Y266186D02*
X334223Y266186D01*
X334223Y268680D02*
X333347Y268680D01*
X339847Y269068D02*
X339847Y263692D01*
X339847Y269068D02*
X340723Y269068D01*
X340723Y263692D01*
X339847Y263692D01*
X339847Y266186D02*
X340723Y266186D01*
X340723Y268680D02*
X339847Y268680D01*
X346347Y269068D02*
X346347Y263692D01*
X346347Y269068D02*
X347223Y269068D01*
X347223Y263692D01*
X346347Y263692D01*
X346347Y266186D02*
X347223Y266186D01*
X347223Y268680D02*
X346347Y268680D01*
X352847Y269068D02*
X352847Y263692D01*
X352847Y269068D02*
X353723Y269068D01*
X353723Y263692D01*
X352847Y263692D01*
X352847Y266186D02*
X353723Y266186D01*
X353723Y268680D02*
X352847Y268680D01*
X360847Y256568D02*
X366223Y256568D01*
X366223Y255692D01*
X360847Y255692D01*
X360847Y256568D01*
X360847Y250068D02*
X366223Y250068D01*
X366223Y249192D01*
X360847Y249192D01*
X360847Y250068D01*
X360847Y243568D02*
X366223Y243568D01*
X366223Y242692D01*
X360847Y242692D01*
X360847Y243568D01*
X360847Y237068D02*
X366223Y237068D01*
X366223Y236192D01*
X360847Y236192D01*
X360847Y237068D01*
D21*
X343535Y246380D03*
D22*
X357940Y341740D03*
X332940Y341740D03*
X332940Y321740D03*
X357940Y321740D03*
D23*
X285240Y294640D03*
X405640Y294640D03*
D24*
X406650Y479810D03*
X353822Y409702D03*
X363220Y427990D03*
X344170Y427990D03*
X363220Y392430D03*
X344170Y392430D03*
X266997Y374353D03*
D25*
X356553Y284870D02*
X356553Y283984D01*
X380702Y443552D02*
X373702Y450552D01*
D24*
X417195Y229870D03*
D26*
X356943Y284480D02*
X356553Y284870D01*
X356943Y284480D02*
X368129Y284480D01*
D24*
X368129Y284480D03*
X267018Y385445D03*
D26*
X265584Y437647D02*
X270664Y437647D01*
X265584Y437647D02*
X256988Y446243D01*
D24*
X254318Y461010D03*
D27*
X253812Y460505D02*
X253812Y443068D01*
X253812Y460505D02*
X254318Y461010D01*
X256988Y446243D02*
X253812Y443068D01*
D25*
X334963Y284870D02*
X334420Y282674D01*
D26*
X333785Y266380D02*
X323535Y256130D01*
D27*
X333785Y266380D02*
X334420Y267015D01*
D26*
X334420Y282674D01*
X333785Y266380D02*
X340285Y266380D01*
X334963Y284870D02*
X356553Y284870D01*
D25*
X394580Y468321D02*
X394580Y468630D01*
X394580Y468321D02*
X376811Y450552D01*
X373702Y450552D01*
X389592Y443552D02*
X394970Y448930D01*
X389592Y443552D02*
X380702Y443552D01*
X394970Y448930D02*
X394970Y450460D01*
D26*
X394580Y468630D02*
X406400Y468630D01*
D24*
X406400Y468630D03*
D26*
X279400Y389230D02*
X271780Y389230D01*
X267506Y384956D01*
X267018Y385445D01*
D25*
X308303Y381552D02*
X318702Y381552D01*
D26*
X378190Y226670D02*
X377190Y225670D01*
X378190Y226670D02*
X397510Y226670D01*
X399513Y228673D01*
X415998Y228673D01*
X417195Y229870D01*
X377190Y225670D02*
X353995Y225670D01*
X353285Y226380D01*
D25*
X311702Y443552D02*
X309670Y445584D01*
X309670Y451358D01*
D24*
X309670Y451358D03*
D26*
X296910Y387960D02*
X280670Y387960D01*
X279400Y389230D01*
X296910Y387960D02*
X299720Y390770D01*
D25*
X299720Y390135D02*
X308303Y381552D01*
X299720Y390135D02*
X299720Y390770D01*
X333702Y381552D02*
X333702Y367992D01*
X321310Y355600D01*
X222885Y311150D02*
X222885Y307340D01*
D24*
X222885Y307340D03*
D25*
X267335Y355600D02*
X321310Y355600D01*
X267335Y355600D02*
X222885Y311150D01*
D26*
X337820Y212725D02*
X346785Y221690D01*
X337820Y212725D02*
X323850Y212725D01*
X316230Y220345D01*
D27*
X316230Y220980D01*
D24*
X316230Y220980D03*
X242570Y354965D03*
D25*
X242570Y371926D02*
X284197Y413552D01*
X242570Y371926D02*
X242570Y354965D01*
X284197Y413552D02*
X311702Y413552D01*
D26*
X346785Y226380D02*
X346785Y221690D01*
D25*
X328702Y371867D02*
X328702Y381552D01*
X328702Y371867D02*
X316880Y360045D01*
X208332Y304852D02*
X208332Y288672D01*
D27*
X222302Y274702D01*
D25*
X263525Y360045D02*
X316880Y360045D01*
X263525Y360045D02*
X208332Y304852D01*
D26*
X369495Y243130D02*
X379730Y253365D01*
X379730Y260350D01*
X378460Y261620D01*
D24*
X378460Y261620D03*
X231775Y346710D03*
D25*
X227330Y351155D01*
X227330Y363786D02*
X282303Y418759D01*
X227330Y363786D02*
X227330Y351155D01*
X311495Y418759D02*
X311702Y418552D01*
X311495Y418759D02*
X282303Y418759D01*
D26*
X363535Y243130D02*
X369495Y243130D01*
D25*
X380702Y403552D02*
X391468Y403552D01*
D24*
X410210Y347190D03*
D25*
X398780Y396240D02*
X391468Y403552D01*
X398780Y396240D02*
X398780Y375920D01*
D26*
X407214Y350186D02*
X410210Y347190D01*
D25*
X402200Y372500D02*
X398780Y375920D01*
X402200Y372500D02*
X408940Y372500D01*
D26*
X407214Y370774D02*
X407214Y350186D01*
X407849Y370139D02*
X407940Y370230D01*
X406670Y370230D02*
X408940Y372500D01*
X407940Y370230D02*
X429260Y370230D01*
X407940Y370230D02*
X406670Y370230D01*
X407214Y370774D02*
X407849Y370139D01*
D24*
X327025Y468630D03*
D25*
X327025Y465455D02*
X329016Y463464D01*
X327025Y465455D02*
X327025Y468630D01*
X329016Y463464D02*
X329016Y450866D01*
X328702Y450552D01*
X333702Y450552D02*
X333702Y464512D01*
X346202Y477012D02*
X346202Y489302D01*
X346202Y477012D02*
X333702Y464512D01*
X380702Y423552D02*
X386708Y423552D01*
X386715Y423545D01*
X403275Y423545D01*
X412590Y432860D02*
X417670Y432860D01*
X412590Y432860D02*
X403275Y423545D01*
X412909Y408860D02*
X417670Y408860D01*
X403217Y418552D02*
X380702Y418552D01*
X403217Y418552D02*
X412909Y408860D01*
D24*
X366142Y461645D03*
D25*
X359831Y461645D01*
X353702Y455516D01*
X353702Y450552D01*
D26*
X474599Y356076D02*
X474599Y345694D01*
X473869Y344964D01*
D24*
X473869Y344964D03*
D26*
X440279Y439197D02*
X440279Y452552D01*
X440279Y439197D02*
X440690Y438785D01*
D24*
X440690Y438785D03*
D25*
X440672Y415653D02*
X431625Y406605D01*
X427308Y402288D01*
X410573Y402288D01*
D26*
X440672Y438767D02*
X440690Y438785D01*
D25*
X399309Y413552D02*
X380702Y413552D01*
X399309Y413552D02*
X410573Y402288D01*
X440672Y415653D02*
X440672Y438767D01*
X448278Y389532D02*
X449580Y389500D01*
X448278Y389532D02*
X431625Y406605D01*
D24*
X405356Y398205D03*
D25*
X395009Y408552D01*
X380702Y408552D01*
D26*
X405356Y398205D02*
X409437Y394124D01*
X408940Y389500D01*
X428990Y389500D02*
X429260Y389230D01*
X428990Y389500D02*
X408940Y389500D01*
D25*
X380702Y388552D02*
X378162Y386012D01*
X378162Y367328D01*
X407670Y337820D01*
D24*
X470853Y387985D03*
D25*
X470853Y376444D02*
X432229Y337820D01*
X470853Y376444D02*
X470853Y387985D01*
X432229Y337820D02*
X407670Y337820D01*
X368702Y350442D02*
X368702Y381552D01*
D24*
X370050Y349250D03*
D25*
X368858Y350442D01*
X368702Y350442D01*
X373702Y363634D02*
X405001Y332335D01*
X373702Y363634D02*
X373702Y381552D01*
X434364Y332335D02*
X478814Y376786D01*
X478814Y408990D02*
X470102Y417702D01*
X478814Y408990D02*
X478814Y376786D01*
X434364Y332335D02*
X405001Y332335D01*
X363702Y364492D02*
X363702Y381552D01*
X363702Y364492D02*
X346710Y347500D01*
X346710Y309400D01*
X345440Y308130D01*
D24*
X345440Y308130D03*
X442595Y290830D03*
D27*
X458723Y274702D02*
X470102Y274702D01*
D26*
X458723Y274702D02*
X442595Y290830D01*
D25*
X388848Y398552D02*
X380702Y398552D01*
X393700Y393700D02*
X393700Y367256D01*
X395831Y365125D01*
X393700Y393700D02*
X388848Y398552D01*
D24*
X395831Y365125D03*
D25*
X385307Y393552D02*
X380702Y393552D01*
X385307Y393552D02*
X388303Y390557D01*
X388303Y378512D01*
X385691Y375900D01*
D24*
X385691Y375900D03*
X213995Y387985D03*
D27*
X213995Y409395D01*
D25*
X222302Y417702D01*
D24*
X294640Y461645D03*
D26*
X294767Y461772D02*
X308737Y461772D01*
X294767Y461772D02*
X294640Y461645D01*
D25*
X307097Y433552D02*
X311702Y433552D01*
X307097Y433552D02*
X294767Y445882D01*
X294767Y461772D01*
D26*
X301625Y479997D02*
X308801Y487172D01*
X301625Y479997D02*
X301625Y477520D01*
D24*
X301625Y477520D03*
D25*
X311150Y477520D01*
X320040Y468630D01*
X320040Y456970D01*
X318702Y455632D01*
X318702Y450552D01*
D26*
X323535Y236630D02*
X302280Y236630D01*
X301870Y236220D01*
D27*
X359410Y274320D02*
X360680Y273050D01*
D26*
X359410Y274320D02*
X350520Y274320D01*
D24*
X360680Y273050D03*
D26*
X346785Y270585D02*
X346785Y266380D01*
X346785Y270585D02*
X350520Y274320D01*
X380048Y273226D02*
X380048Y323850D01*
X370837Y253781D02*
X366864Y249808D01*
X363713Y249808D01*
X363535Y249630D01*
X370837Y253781D02*
X370837Y264015D01*
X378778Y271956D02*
X380048Y273226D01*
X378778Y271956D02*
X370837Y264015D01*
X378778Y271956D02*
X378953Y271780D01*
X394970Y271780D01*
X408060Y258690D01*
X408060Y257810D01*
D24*
X271780Y236220D03*
D26*
X284870Y236220D01*
X326390Y220980D02*
X329685Y220980D01*
D24*
X326390Y220980D03*
X220980Y346710D03*
D25*
X220980Y364490D01*
X262255Y405765D01*
X280035Y423545D01*
X311695Y423545D02*
X311702Y423552D01*
X311695Y423545D02*
X280035Y423545D01*
D27*
X333785Y226380D02*
X333785Y225080D01*
D26*
X329685Y220980D01*
X388620Y252614D02*
X388620Y261620D01*
D24*
X388620Y261620D03*
D26*
X388620Y252614D02*
X372636Y236630D01*
D24*
X205740Y346710D03*
D25*
X205740Y356351D02*
X277941Y428552D01*
X205740Y356351D02*
X205740Y346710D01*
X277941Y428552D02*
X311702Y428552D01*
D26*
X363535Y236630D02*
X372636Y236630D01*
X323215Y311465D02*
X311150Y324240D01*
X313309Y255345D02*
X319024Y249630D01*
X323215Y281940D02*
X323215Y311465D01*
X323215Y281940D02*
X313309Y272034D01*
X313309Y255345D01*
X319024Y249630D02*
X323535Y249630D01*
X323535Y243130D02*
X315035Y243130D01*
X301807Y256358D01*
X301870Y256540D01*
X332740Y321310D02*
X321381Y332669D01*
X289560Y340853D02*
X289560Y341240D01*
X289560Y340853D02*
X297744Y332669D01*
X301078Y332669D01*
X316230Y287973D02*
X284870Y256540D01*
X301078Y315332D02*
X301078Y332669D01*
X301078Y315332D02*
X316230Y300180D01*
X316230Y287973D01*
X332940Y321510D02*
X332940Y321740D01*
X332940Y321510D02*
X332740Y321310D01*
X321381Y332669D02*
X301078Y332669D01*
X277568Y350520D02*
X268288Y341240D01*
X310621Y341134D02*
X311150Y341240D01*
X310621Y341134D02*
X301235Y350520D01*
X277568Y350520D01*
X332440Y341240D02*
X332940Y341740D01*
X332440Y341240D02*
X311150Y341240D01*
X380048Y340533D02*
X394970Y325610D01*
X380048Y340533D02*
X380048Y340850D01*
X439565Y325610D02*
X446405Y318770D01*
X439565Y325610D02*
X394970Y325610D01*
X359210Y340470D02*
X357940Y341740D01*
X379668Y340470D02*
X380048Y340850D01*
X379668Y340470D02*
X359210Y340470D01*
D25*
X343702Y371308D02*
X343702Y381552D01*
D26*
X343702Y371308D02*
X344170Y370840D01*
D24*
X344170Y370840D03*
M02*
