G04 EAGLE Gerber RS-274X export*
G75*
%MOMM*%
%FSLAX34Y34*%
%LPD*%
%INTop Copper*%
%IPPOS*%
%AMOC8*
5,1,8,0,0,1.08239X$1,22.5*%
G01*
%ADD10R,1.100000X1.000000*%
%ADD11R,1.000000X1.100000*%
%ADD12C,0.499997*%
%ADD13C,1.000000*%
%ADD14R,1.300000X1.500000*%
%ADD15R,0.800000X0.800000*%
%ADD16R,1.100000X2.200000*%
%ADD17R,1.530000X1.530000*%
%ADD18C,1.530000*%
%ADD19R,1.600200X0.838200*%
%ADD20R,1.600200X3.098800*%
%ADD21P,1.578125X8X22.500000*%
%ADD22C,3.316000*%
%ADD23C,0.355600*%
%ADD24C,0.756400*%
%ADD25C,0.254000*%
%ADD26C,0.304800*%

G36*
X278630Y195708D02*
X278630Y195708D01*
X278658Y195706D01*
X278726Y195728D01*
X278797Y195742D01*
X278820Y195758D01*
X278847Y195767D01*
X278902Y195814D01*
X278961Y195855D01*
X278976Y195879D01*
X278998Y195897D01*
X279029Y195962D01*
X279068Y196022D01*
X279073Y196050D01*
X279085Y196076D01*
X279094Y196177D01*
X279101Y196219D01*
X279099Y196229D01*
X279100Y196242D01*
X278982Y197719D01*
X413422Y197719D01*
X413304Y196242D01*
X413308Y196213D01*
X413303Y196185D01*
X413320Y196116D01*
X413328Y196044D01*
X413343Y196020D01*
X413349Y195992D01*
X413392Y195934D01*
X413428Y195872D01*
X413450Y195855D01*
X413467Y195832D01*
X413529Y195795D01*
X413586Y195752D01*
X413614Y195745D01*
X413638Y195730D01*
X413738Y195714D01*
X413779Y195703D01*
X413789Y195705D01*
X413802Y195703D01*
X432802Y195703D01*
X432878Y195718D01*
X432956Y195727D01*
X432975Y195738D01*
X432997Y195742D01*
X433061Y195786D01*
X433129Y195825D01*
X433145Y195844D01*
X433161Y195855D01*
X433185Y195893D01*
X433235Y195953D01*
X442735Y212453D01*
X442744Y212480D01*
X442760Y212504D01*
X442775Y212574D01*
X442798Y212642D01*
X442795Y212670D01*
X442801Y212698D01*
X442788Y212769D01*
X442782Y212840D01*
X442769Y212865D01*
X442763Y212893D01*
X442723Y212953D01*
X442690Y213016D01*
X442668Y213034D01*
X442652Y213058D01*
X442569Y213116D01*
X442537Y213143D01*
X442526Y213146D01*
X442516Y213153D01*
X441197Y213777D01*
X460088Y246497D01*
X460115Y246579D01*
X460147Y246660D01*
X460147Y246674D01*
X460152Y246687D01*
X460145Y246774D01*
X460144Y246860D01*
X460138Y246873D01*
X460137Y246887D01*
X460098Y246964D01*
X460062Y247044D01*
X460052Y247054D01*
X460046Y247066D01*
X460003Y247101D01*
X459934Y247170D01*
X458814Y247933D01*
X458749Y247960D01*
X458687Y247995D01*
X458655Y248000D01*
X458629Y248011D01*
X458577Y248011D01*
X458509Y248021D01*
X458503Y248020D01*
X458028Y248462D01*
X457998Y248480D01*
X457968Y248509D01*
X457432Y248874D01*
X457431Y248880D01*
X457404Y248945D01*
X457386Y249013D01*
X457366Y249039D01*
X457356Y249065D01*
X457319Y249102D01*
X457278Y249157D01*
X455539Y250770D01*
X455479Y250806D01*
X455423Y250850D01*
X455392Y250860D01*
X455368Y250874D01*
X455317Y250882D01*
X455250Y250902D01*
X455245Y250902D01*
X454840Y251410D01*
X454814Y251432D01*
X454789Y251465D01*
X454313Y251906D01*
X454313Y251912D01*
X454296Y251980D01*
X454288Y252051D01*
X454272Y252079D01*
X454266Y252107D01*
X454235Y252148D01*
X454202Y252209D01*
X452723Y254063D01*
X452669Y254108D01*
X452621Y254159D01*
X452591Y254173D01*
X452570Y254191D01*
X452520Y254207D01*
X452458Y254236D01*
X452452Y254238D01*
X452128Y254800D01*
X452105Y254826D01*
X452085Y254862D01*
X451680Y255369D01*
X451681Y255375D01*
X451675Y255445D01*
X451677Y255516D01*
X451666Y255547D01*
X451664Y255575D01*
X451640Y255620D01*
X451616Y255685D01*
X450430Y257739D01*
X450383Y257792D01*
X450343Y257850D01*
X450316Y257868D01*
X450297Y257889D01*
X450251Y257911D01*
X450193Y257950D01*
X450188Y257952D01*
X449951Y258556D01*
X449932Y258585D01*
X449918Y258624D01*
X449593Y259186D01*
X449595Y259191D01*
X449599Y259262D01*
X449612Y259331D01*
X449606Y259363D01*
X449607Y259391D01*
X449590Y259440D01*
X449577Y259508D01*
X448710Y261715D01*
X448672Y261774D01*
X448641Y261838D01*
X448616Y261860D01*
X448601Y261884D01*
X448559Y261913D01*
X448507Y261959D01*
X448503Y261962D01*
X448358Y262595D01*
X448344Y262626D01*
X448336Y262667D01*
X448099Y263271D01*
X448101Y263276D01*
X448116Y263345D01*
X448139Y263412D01*
X448137Y263445D01*
X448143Y263472D01*
X448133Y263523D01*
X448130Y263592D01*
X447602Y265904D01*
X447573Y265968D01*
X447552Y266035D01*
X447531Y266061D01*
X447519Y266086D01*
X447482Y266121D01*
X447438Y266175D01*
X447434Y266179D01*
X447385Y266826D01*
X447376Y266859D01*
X447374Y266901D01*
X447229Y267533D01*
X447232Y267538D01*
X447257Y267604D01*
X447290Y267667D01*
X447293Y267699D01*
X447303Y267726D01*
X447301Y267777D01*
X447308Y267846D01*
X447131Y270211D01*
X447111Y270278D01*
X447101Y270348D01*
X447084Y270377D01*
X447076Y270404D01*
X447044Y270444D01*
X447009Y270504D01*
X447005Y270508D01*
X447054Y271155D01*
X447049Y271189D01*
X447054Y271231D01*
X447005Y271878D01*
X447009Y271882D01*
X447043Y271943D01*
X447085Y272000D01*
X447093Y272032D01*
X447107Y272057D01*
X447113Y272108D01*
X447130Y272175D01*
X447306Y274540D01*
X447298Y274610D01*
X447297Y274680D01*
X447285Y274711D01*
X447281Y274739D01*
X447256Y274783D01*
X447230Y274847D01*
X447227Y274852D01*
X447371Y275485D01*
X447372Y275519D01*
X447382Y275560D01*
X447431Y276207D01*
X447435Y276210D01*
X447478Y276266D01*
X447528Y276316D01*
X447541Y276346D01*
X447558Y276369D01*
X447571Y276419D01*
X447598Y276482D01*
X448125Y278794D01*
X448127Y278864D01*
X448132Y278889D01*
X448131Y278891D01*
X448137Y278935D01*
X448130Y278966D01*
X448130Y278994D01*
X448112Y279043D01*
X448096Y279110D01*
X448093Y279115D01*
X448330Y279719D01*
X448336Y279753D01*
X448353Y279791D01*
X448497Y280424D01*
X448502Y280427D01*
X448553Y280476D01*
X448609Y280518D01*
X448626Y280546D01*
X448647Y280565D01*
X448667Y280612D01*
X448704Y280671D01*
X449569Y282879D01*
X449582Y282949D01*
X449602Y283016D01*
X449599Y283049D01*
X449604Y283076D01*
X449593Y283127D01*
X449587Y283196D01*
X449586Y283201D01*
X449910Y283763D01*
X449921Y283796D01*
X449943Y283831D01*
X450180Y284435D01*
X450185Y284438D01*
X450243Y284478D01*
X450305Y284511D01*
X450326Y284536D01*
X450349Y284553D01*
X450376Y284596D01*
X450421Y284649D01*
X451606Y286703D01*
X451629Y286770D01*
X451659Y286834D01*
X451661Y286866D01*
X451670Y286893D01*
X451666Y286944D01*
X451671Y287014D01*
X451653Y287171D01*
X451657Y287196D01*
X451652Y287219D01*
X451654Y287242D01*
X451629Y287316D01*
X451612Y287391D01*
X451598Y287412D01*
X451591Y287432D01*
X451555Y287474D01*
X451509Y287539D01*
X448768Y290281D01*
X448765Y290282D01*
X448764Y290284D01*
X448683Y290337D01*
X448601Y290392D01*
X448598Y290392D01*
X448596Y290394D01*
X448500Y290411D01*
X448404Y290429D01*
X448401Y290429D01*
X448399Y290429D01*
X448302Y290408D01*
X448208Y290388D01*
X448206Y290386D01*
X448203Y290386D01*
X448123Y290329D01*
X448043Y290273D01*
X448042Y290271D01*
X448040Y290270D01*
X447988Y290187D01*
X447936Y290104D01*
X447935Y290102D01*
X447934Y290099D01*
X447902Y289922D01*
X447902Y288632D01*
X444793Y285523D01*
X440397Y285523D01*
X437288Y288632D01*
X437288Y291256D01*
X437287Y291264D01*
X437288Y291271D01*
X437267Y291361D01*
X437249Y291452D01*
X437244Y291459D01*
X437242Y291467D01*
X437140Y291615D01*
X417246Y311509D01*
X417239Y311513D01*
X417234Y311519D01*
X417156Y311568D01*
X417079Y311620D01*
X417071Y311621D01*
X417064Y311625D01*
X416887Y311657D01*
X414417Y311657D01*
X414415Y311657D01*
X414414Y311657D01*
X414319Y311638D01*
X414220Y311618D01*
X414219Y311617D01*
X414218Y311617D01*
X414137Y311561D01*
X414054Y311505D01*
X414054Y311504D01*
X414053Y311503D01*
X413998Y311418D01*
X413945Y311337D01*
X413945Y311336D01*
X413944Y311335D01*
X413927Y311236D01*
X413910Y311140D01*
X413910Y311138D01*
X413910Y311137D01*
X413932Y311041D01*
X413953Y310944D01*
X413954Y310943D01*
X413954Y310942D01*
X414012Y310861D01*
X414069Y310781D01*
X414070Y310780D01*
X414071Y310779D01*
X414223Y310681D01*
X415896Y309988D01*
X420988Y304895D01*
X423745Y298241D01*
X423745Y291039D01*
X420988Y284385D01*
X415895Y279292D01*
X414803Y278839D01*
X413579Y278332D01*
X412354Y277825D01*
X411130Y277317D01*
X411129Y277317D01*
X409905Y276810D01*
X409241Y276535D01*
X405000Y276535D01*
X404998Y276535D01*
X404995Y276535D01*
X404900Y276515D01*
X404804Y276496D01*
X404801Y276494D01*
X404799Y276494D01*
X404718Y276438D01*
X404638Y276383D01*
X404636Y276381D01*
X404634Y276379D01*
X404581Y276296D01*
X404529Y276215D01*
X404528Y276212D01*
X404527Y276210D01*
X404510Y276114D01*
X404493Y276018D01*
X404494Y276015D01*
X404493Y276013D01*
X404515Y275919D01*
X404537Y275822D01*
X404538Y275820D01*
X404539Y275817D01*
X404641Y275669D01*
X414557Y265753D01*
X414564Y265749D01*
X414569Y265743D01*
X414647Y265694D01*
X414724Y265642D01*
X414732Y265641D01*
X414739Y265637D01*
X414916Y265605D01*
X422692Y265605D01*
X423585Y264712D01*
X423585Y253448D01*
X422692Y252555D01*
X410428Y252555D01*
X409535Y253448D01*
X409535Y261224D01*
X409534Y261232D01*
X409535Y261239D01*
X409514Y261329D01*
X409496Y261420D01*
X409491Y261427D01*
X409489Y261435D01*
X409387Y261583D01*
X399847Y271123D01*
X399841Y271127D01*
X399837Y271132D01*
X399836Y271133D01*
X399835Y271133D01*
X399757Y271182D01*
X399680Y271234D01*
X399672Y271235D01*
X399665Y271239D01*
X399488Y271271D01*
X366494Y271271D01*
X366489Y271270D01*
X366484Y271271D01*
X366391Y271250D01*
X366297Y271232D01*
X366293Y271229D01*
X366288Y271228D01*
X366210Y271172D01*
X366132Y271119D01*
X366129Y271115D01*
X366125Y271112D01*
X366074Y271030D01*
X366022Y270951D01*
X366022Y270946D01*
X366019Y270941D01*
X366006Y270871D01*
X362878Y267743D01*
X358482Y267743D01*
X355373Y270852D01*
X355373Y275248D01*
X358482Y278357D01*
X362878Y278357D01*
X363210Y278025D01*
X363216Y278021D01*
X363221Y278015D01*
X363299Y277966D01*
X363377Y277914D01*
X363384Y277913D01*
X363391Y277909D01*
X363568Y277877D01*
X396250Y277877D01*
X396251Y277877D01*
X396253Y277877D01*
X396348Y277896D01*
X396447Y277916D01*
X396448Y277917D01*
X396449Y277917D01*
X396530Y277973D01*
X396612Y278029D01*
X396613Y278030D01*
X396614Y278031D01*
X396669Y278116D01*
X396722Y278197D01*
X396722Y278198D01*
X396723Y278199D01*
X396740Y278298D01*
X396757Y278394D01*
X396757Y278396D01*
X396757Y278397D01*
X396736Y278490D01*
X396714Y278590D01*
X396713Y278591D01*
X396713Y278592D01*
X396655Y278672D01*
X396598Y278753D01*
X396597Y278754D01*
X396596Y278755D01*
X396444Y278853D01*
X395384Y279292D01*
X390292Y284385D01*
X387535Y291039D01*
X387535Y298241D01*
X390292Y304895D01*
X395384Y309988D01*
X397057Y310681D01*
X397058Y310682D01*
X397060Y310682D01*
X397142Y310738D01*
X397224Y310793D01*
X397225Y310794D01*
X397226Y310795D01*
X397278Y310875D01*
X397334Y310961D01*
X397334Y310962D01*
X397335Y310963D01*
X397352Y311060D01*
X397370Y311158D01*
X397370Y311159D01*
X397370Y311160D01*
X397348Y311260D01*
X397328Y311354D01*
X397327Y311355D01*
X397327Y311356D01*
X397268Y311438D01*
X397213Y311518D01*
X397212Y311518D01*
X397211Y311519D01*
X397126Y311572D01*
X397043Y311624D01*
X397042Y311625D01*
X397041Y311625D01*
X396863Y311657D01*
X370258Y311657D01*
X370250Y311656D01*
X370242Y311657D01*
X370152Y311636D01*
X370061Y311618D01*
X370055Y311613D01*
X370047Y311611D01*
X369899Y311509D01*
X363695Y305305D01*
X350330Y305305D01*
X350322Y305304D01*
X350315Y305305D01*
X350225Y305284D01*
X350134Y305266D01*
X350127Y305261D01*
X350120Y305259D01*
X349972Y305157D01*
X347638Y302823D01*
X343242Y302823D01*
X340133Y305932D01*
X340133Y310328D01*
X343242Y313437D01*
X347638Y313437D01*
X349016Y312059D01*
X349022Y312055D01*
X349027Y312049D01*
X349105Y312000D01*
X349183Y311948D01*
X349190Y311947D01*
X349197Y311943D01*
X349374Y311911D01*
X360749Y311911D01*
X360776Y311916D01*
X360803Y311914D01*
X360890Y311939D01*
X360946Y311950D01*
X360959Y311959D01*
X360976Y311964D01*
X361042Y312016D01*
X361112Y312063D01*
X361121Y312077D01*
X361134Y312088D01*
X361175Y312161D01*
X361221Y312231D01*
X361224Y312248D01*
X361232Y312263D01*
X361242Y312346D01*
X361256Y312428D01*
X361253Y312445D01*
X361255Y312462D01*
X361231Y312542D01*
X361213Y312624D01*
X361203Y312638D01*
X361198Y312654D01*
X361145Y312719D01*
X361097Y312787D01*
X361082Y312796D01*
X361072Y312810D01*
X360998Y312849D01*
X360927Y312893D01*
X360909Y312896D01*
X360895Y312904D01*
X360839Y312909D01*
X360749Y312925D01*
X354289Y312925D01*
X349125Y318089D01*
X349125Y325391D01*
X354289Y330555D01*
X361591Y330555D01*
X366755Y325391D01*
X366755Y318770D01*
X366756Y318765D01*
X366755Y318760D01*
X366776Y318667D01*
X366794Y318573D01*
X366797Y318569D01*
X366798Y318564D01*
X366854Y318486D01*
X366907Y318408D01*
X366911Y318405D01*
X366914Y318401D01*
X366996Y318350D01*
X367075Y318298D01*
X367080Y318298D01*
X367085Y318295D01*
X367262Y318263D01*
X395452Y318263D01*
X395454Y318263D01*
X395457Y318263D01*
X395552Y318283D01*
X395648Y318302D01*
X395651Y318304D01*
X395653Y318304D01*
X395734Y318360D01*
X395814Y318415D01*
X395816Y318417D01*
X395818Y318419D01*
X395871Y318502D01*
X395923Y318583D01*
X395924Y318586D01*
X395925Y318588D01*
X395942Y318684D01*
X395959Y318780D01*
X395958Y318783D01*
X395959Y318785D01*
X395937Y318879D01*
X395915Y318976D01*
X395914Y318978D01*
X395913Y318981D01*
X395811Y319129D01*
X395337Y319603D01*
X395336Y319603D01*
X395335Y319605D01*
X370868Y343797D01*
X370862Y343800D01*
X370859Y343805D01*
X370778Y343855D01*
X370700Y343907D01*
X370694Y343908D01*
X370688Y343911D01*
X370511Y343943D01*
X367852Y343943D01*
X367621Y344174D01*
X367619Y344176D01*
X367618Y344177D01*
X367617Y344178D01*
X367536Y344231D01*
X367454Y344285D01*
X367451Y344286D01*
X367449Y344287D01*
X367353Y344305D01*
X367257Y344323D01*
X367254Y344323D01*
X367252Y344323D01*
X367155Y344301D01*
X367061Y344281D01*
X367059Y344280D01*
X367056Y344279D01*
X366975Y344222D01*
X366896Y344167D01*
X366895Y344165D01*
X366893Y344163D01*
X366840Y344079D01*
X366789Y343998D01*
X366788Y343995D01*
X366787Y343993D01*
X366755Y343816D01*
X366755Y338089D01*
X361591Y332925D01*
X354289Y332925D01*
X349125Y338089D01*
X349125Y345391D01*
X354289Y350555D01*
X361591Y350555D01*
X363877Y348269D01*
X363880Y348267D01*
X363881Y348265D01*
X363962Y348212D01*
X364044Y348158D01*
X364047Y348157D01*
X364049Y348156D01*
X364145Y348138D01*
X364241Y348120D01*
X364244Y348121D01*
X364246Y348120D01*
X364343Y348142D01*
X364437Y348162D01*
X364439Y348163D01*
X364442Y348164D01*
X364522Y348220D01*
X364602Y348276D01*
X364603Y348278D01*
X364605Y348280D01*
X364656Y348362D01*
X364709Y348445D01*
X364710Y348448D01*
X364711Y348450D01*
X364743Y348627D01*
X364743Y351448D01*
X367852Y354557D01*
X372248Y354557D01*
X375357Y351448D01*
X375357Y348859D01*
X375359Y348850D01*
X375357Y348841D01*
X375378Y348752D01*
X375396Y348663D01*
X375402Y348655D01*
X375404Y348646D01*
X375507Y348499D01*
X398874Y325394D01*
X398879Y325391D01*
X398883Y325386D01*
X398963Y325336D01*
X399042Y325284D01*
X399048Y325283D01*
X399053Y325280D01*
X399231Y325248D01*
X423142Y325248D01*
X425225Y323164D01*
X455825Y292565D01*
X455905Y292512D01*
X455984Y292458D01*
X455988Y292457D01*
X455992Y292454D01*
X456086Y292436D01*
X456180Y292417D01*
X456184Y292418D01*
X456188Y292417D01*
X456282Y292437D01*
X456377Y292455D01*
X456381Y292457D01*
X456385Y292458D01*
X456416Y292480D01*
X456528Y292552D01*
X457263Y293235D01*
X457305Y293292D01*
X457352Y293344D01*
X457364Y293375D01*
X457380Y293397D01*
X457392Y293448D01*
X457417Y293512D01*
X457418Y293518D01*
X457954Y293883D01*
X457978Y293908D01*
X458013Y293931D01*
X458489Y294372D01*
X458494Y294372D01*
X458564Y294383D01*
X458634Y294386D01*
X458664Y294400D01*
X458692Y294404D01*
X458736Y294432D01*
X458799Y294460D01*
X460758Y295796D01*
X460807Y295847D01*
X460862Y295891D01*
X460878Y295920D01*
X460898Y295940D01*
X460917Y295988D01*
X460951Y296048D01*
X460952Y296053D01*
X461537Y296335D01*
X461565Y296356D01*
X461603Y296373D01*
X462139Y296739D01*
X462144Y296738D01*
X462215Y296738D01*
X462285Y296731D01*
X462316Y296740D01*
X462344Y296740D01*
X462392Y296761D01*
X462458Y296779D01*
X464595Y297809D01*
X464651Y297851D01*
X464712Y297887D01*
X464732Y297913D01*
X464754Y297930D01*
X464780Y297974D01*
X464823Y298029D01*
X464825Y298034D01*
X465446Y298225D01*
X465476Y298242D01*
X465516Y298253D01*
X466101Y298534D01*
X466106Y298533D01*
X466176Y298523D01*
X466244Y298505D01*
X466277Y298509D01*
X466304Y298505D01*
X466354Y298518D01*
X466423Y298527D01*
X468689Y299226D01*
X468751Y299260D01*
X468816Y299286D01*
X468840Y299309D01*
X468865Y299322D01*
X468897Y299363D01*
X468947Y299410D01*
X468950Y299415D01*
X469592Y299511D01*
X469625Y299523D01*
X469666Y299528D01*
X470286Y299720D01*
X470291Y299717D01*
X470313Y299711D01*
X470317Y299708D01*
X470330Y299706D01*
X470359Y299697D01*
X470423Y299669D01*
X470456Y299668D01*
X470483Y299660D01*
X470534Y299666D01*
X470604Y299664D01*
X472948Y300018D01*
X473015Y300043D01*
X473083Y300059D01*
X473110Y300077D01*
X473137Y300087D01*
X473175Y300122D01*
X473231Y300161D01*
X473235Y300165D01*
X473884Y300165D01*
X473918Y300172D01*
X473960Y300171D01*
X474601Y300268D01*
X474606Y300265D01*
X474670Y300235D01*
X474730Y300198D01*
X474762Y300192D01*
X474787Y300180D01*
X474839Y300178D01*
X474907Y300166D01*
X477278Y300167D01*
X477348Y300181D01*
X477418Y300186D01*
X477447Y300201D01*
X477475Y300206D01*
X477518Y300235D01*
X477580Y300266D01*
X477584Y300269D01*
X478226Y300173D01*
X478260Y300174D01*
X478301Y300167D01*
X478950Y300167D01*
X478954Y300163D01*
X479013Y300124D01*
X479067Y300078D01*
X479098Y300068D01*
X479121Y300052D01*
X479172Y300043D01*
X479237Y300020D01*
X481582Y299668D01*
X481653Y299671D01*
X481723Y299666D01*
X481754Y299676D01*
X481782Y299678D01*
X481829Y299700D01*
X481874Y299714D01*
X481880Y299716D01*
X481883Y299717D01*
X481895Y299721D01*
X481900Y299724D01*
X482520Y299532D01*
X482554Y299529D01*
X482594Y299516D01*
X483235Y299419D01*
X483239Y299415D01*
X483291Y299367D01*
X483337Y299314D01*
X483366Y299299D01*
X483387Y299280D01*
X483436Y299263D01*
X483497Y299231D01*
X485764Y298533D01*
X485834Y298526D01*
X485903Y298511D01*
X485935Y298516D01*
X485963Y298513D01*
X486012Y298528D01*
X486081Y298539D01*
X486086Y298541D01*
X486671Y298259D01*
X486704Y298251D01*
X486741Y298232D01*
X487361Y298041D01*
X487364Y298036D01*
X487409Y297981D01*
X487446Y297922D01*
X487473Y297902D01*
X487491Y297881D01*
X487536Y297857D01*
X487592Y297816D01*
X488830Y297220D01*
X488914Y297199D01*
X488997Y297173D01*
X489011Y297174D01*
X489024Y297171D01*
X489110Y297184D01*
X489196Y297192D01*
X489209Y297198D01*
X489223Y297200D01*
X489297Y297245D01*
X489373Y297286D01*
X489383Y297298D01*
X489394Y297305D01*
X489427Y297350D01*
X489489Y297424D01*
X508381Y330145D01*
X509618Y329291D01*
X509645Y329280D01*
X509667Y329261D01*
X509736Y329241D01*
X509801Y329213D01*
X509830Y329213D01*
X509858Y329205D01*
X509929Y329213D01*
X510000Y329213D01*
X510027Y329224D01*
X510056Y329227D01*
X510118Y329262D01*
X510183Y329290D01*
X510204Y329310D01*
X510229Y329325D01*
X510292Y329402D01*
X510322Y329432D01*
X510326Y329442D01*
X510335Y329453D01*
X519835Y345953D01*
X519845Y345985D01*
X519854Y345998D01*
X519858Y346022D01*
X519859Y346026D01*
X519890Y346096D01*
X519890Y346120D01*
X519898Y346142D01*
X519892Y346218D01*
X519893Y346295D01*
X519883Y346319D01*
X519882Y346340D01*
X519861Y346379D01*
X519835Y346451D01*
X510335Y362951D01*
X510316Y362973D01*
X510303Y362999D01*
X510250Y363047D01*
X510203Y363100D01*
X510177Y363113D01*
X510156Y363132D01*
X510088Y363155D01*
X510024Y363186D01*
X509995Y363188D01*
X509968Y363197D01*
X509896Y363192D01*
X509825Y363195D01*
X509798Y363185D01*
X509769Y363183D01*
X509679Y363141D01*
X509639Y363126D01*
X509631Y363119D01*
X509618Y363113D01*
X508381Y362259D01*
X489489Y394980D01*
X489432Y395045D01*
X489378Y395113D01*
X489366Y395120D01*
X489357Y395131D01*
X489279Y395168D01*
X489203Y395210D01*
X489189Y395212D01*
X489176Y395218D01*
X489090Y395222D01*
X489004Y395232D01*
X488989Y395228D01*
X488976Y395228D01*
X488924Y395210D01*
X488830Y395184D01*
X487592Y394588D01*
X487536Y394545D01*
X487475Y394510D01*
X487455Y394484D01*
X487432Y394467D01*
X487406Y394422D01*
X487364Y394368D01*
X487361Y394363D01*
X486741Y394172D01*
X486711Y394156D01*
X486671Y394145D01*
X486086Y393863D01*
X486081Y393865D01*
X486011Y393875D01*
X485942Y393893D01*
X485910Y393889D01*
X485882Y393893D01*
X485832Y393879D01*
X485764Y393871D01*
X483497Y393173D01*
X483435Y393139D01*
X483370Y393113D01*
X483346Y393090D01*
X483321Y393077D01*
X483289Y393037D01*
X483239Y392989D01*
X483235Y392985D01*
X482594Y392888D01*
X482561Y392877D01*
X482520Y392872D01*
X481900Y392680D01*
X481895Y392683D01*
X481827Y392703D01*
X481762Y392731D01*
X481730Y392732D01*
X481703Y392740D01*
X481651Y392734D01*
X481582Y392736D01*
X479237Y392384D01*
X479171Y392360D01*
X479102Y392343D01*
X479075Y392325D01*
X479049Y392315D01*
X479011Y392280D01*
X478954Y392241D01*
X478950Y392237D01*
X478301Y392237D01*
X478267Y392230D01*
X478226Y392231D01*
X477584Y392135D01*
X477580Y392138D01*
X477516Y392168D01*
X477456Y392205D01*
X477423Y392211D01*
X477398Y392223D01*
X477346Y392225D01*
X477278Y392237D01*
X475329Y392238D01*
X475326Y392238D01*
X475324Y392238D01*
X475229Y392218D01*
X475133Y392199D01*
X475130Y392197D01*
X475128Y392196D01*
X475047Y392140D01*
X474967Y392086D01*
X474965Y392084D01*
X474963Y392082D01*
X474910Y391999D01*
X474857Y391918D01*
X474857Y391915D01*
X474855Y391913D01*
X474839Y391818D01*
X474822Y391721D01*
X474822Y391718D01*
X474822Y391715D01*
X474844Y391621D01*
X474865Y391525D01*
X474867Y391523D01*
X474867Y391520D01*
X474970Y391372D01*
X476159Y390183D01*
X476159Y385787D01*
X473051Y382678D01*
X468654Y382678D01*
X465546Y385787D01*
X465546Y390183D01*
X467401Y392039D01*
X467406Y392045D01*
X467412Y392050D01*
X467461Y392128D01*
X467512Y392206D01*
X467514Y392213D01*
X467518Y392220D01*
X467550Y392397D01*
X467550Y393155D01*
X467544Y393185D01*
X467546Y393215D01*
X467524Y393282D01*
X467510Y393351D01*
X467493Y393377D01*
X467484Y393405D01*
X467437Y393459D01*
X467398Y393517D01*
X467372Y393534D01*
X467352Y393557D01*
X467276Y393596D01*
X467229Y393627D01*
X467211Y393630D01*
X467192Y393640D01*
X466423Y393877D01*
X466353Y393884D01*
X466284Y393900D01*
X466251Y393895D01*
X466223Y393897D01*
X466174Y393882D01*
X466106Y393871D01*
X466101Y393870D01*
X465516Y394151D01*
X465482Y394160D01*
X465446Y394179D01*
X464825Y394370D01*
X464823Y394375D01*
X464778Y394430D01*
X464740Y394490D01*
X464714Y394509D01*
X464696Y394531D01*
X464651Y394555D01*
X464595Y394595D01*
X462458Y395625D01*
X462390Y395642D01*
X462324Y395668D01*
X462291Y395668D01*
X462264Y395675D01*
X462213Y395667D01*
X462144Y395666D01*
X462139Y395665D01*
X461603Y396031D01*
X461571Y396045D01*
X461537Y396069D01*
X460952Y396351D01*
X460951Y396356D01*
X460915Y396417D01*
X460886Y396481D01*
X460863Y396504D01*
X460848Y396528D01*
X460807Y396559D01*
X460758Y396608D01*
X458799Y397944D01*
X458734Y397972D01*
X458672Y398007D01*
X458640Y398011D01*
X458614Y398022D01*
X458563Y398022D01*
X458494Y398032D01*
X458489Y398032D01*
X458013Y398473D01*
X457984Y398491D01*
X457954Y398521D01*
X457418Y398886D01*
X457417Y398892D01*
X457390Y398957D01*
X457372Y399025D01*
X457352Y399052D01*
X457341Y399077D01*
X457305Y399114D01*
X457263Y399169D01*
X455526Y400783D01*
X455466Y400820D01*
X455410Y400863D01*
X455379Y400873D01*
X455355Y400887D01*
X455304Y400895D01*
X455238Y400915D01*
X455232Y400916D01*
X454828Y401423D01*
X454801Y401446D01*
X454776Y401479D01*
X454301Y401920D01*
X454300Y401926D01*
X454284Y401995D01*
X454276Y402065D01*
X454260Y402093D01*
X454253Y402121D01*
X454223Y402162D01*
X454190Y402223D01*
X452712Y404078D01*
X452658Y404123D01*
X452610Y404175D01*
X452580Y404189D01*
X452559Y404207D01*
X452509Y404222D01*
X452447Y404251D01*
X452442Y404253D01*
X452117Y404815D01*
X452094Y404841D01*
X452075Y404878D01*
X451670Y405385D01*
X451671Y405390D01*
X451665Y405461D01*
X451667Y405531D01*
X451656Y405562D01*
X451654Y405590D01*
X451630Y405636D01*
X451606Y405701D01*
X450421Y407755D01*
X450374Y407808D01*
X450334Y407866D01*
X450307Y407884D01*
X450289Y407905D01*
X450242Y407928D01*
X450185Y407966D01*
X450180Y407969D01*
X449943Y408573D01*
X449924Y408602D01*
X449910Y408641D01*
X449586Y409203D01*
X449587Y409208D01*
X449592Y409279D01*
X449604Y409348D01*
X449598Y409380D01*
X449600Y409408D01*
X449583Y409457D01*
X449569Y409525D01*
X448704Y411733D01*
X448666Y411792D01*
X448635Y411855D01*
X448610Y411878D01*
X448595Y411901D01*
X448553Y411930D01*
X448502Y411977D01*
X448497Y411980D01*
X448353Y412613D01*
X448338Y412644D01*
X448330Y412685D01*
X448093Y413289D01*
X448096Y413294D01*
X448111Y413363D01*
X448134Y413430D01*
X448132Y413463D01*
X448138Y413490D01*
X448129Y413541D01*
X448125Y413610D01*
X447598Y415922D01*
X447570Y415986D01*
X447548Y416054D01*
X447528Y416079D01*
X447516Y416105D01*
X447478Y416140D01*
X447435Y416194D01*
X447431Y416197D01*
X447382Y416844D01*
X447373Y416878D01*
X447371Y416919D01*
X447227Y417552D01*
X447230Y417557D01*
X447255Y417623D01*
X447288Y417685D01*
X447291Y417718D01*
X447301Y417744D01*
X447299Y417796D01*
X447306Y417864D01*
X447130Y420229D01*
X447111Y420297D01*
X447100Y420367D01*
X447083Y420395D01*
X447076Y420422D01*
X447044Y420462D01*
X447009Y420522D01*
X447005Y420526D01*
X447054Y421173D01*
X447049Y421208D01*
X447054Y421249D01*
X447005Y421896D01*
X447009Y421900D01*
X447044Y421962D01*
X447085Y422019D01*
X447094Y422051D01*
X447107Y422075D01*
X447113Y422127D01*
X447131Y422193D01*
X447308Y424558D01*
X447300Y424628D01*
X447299Y424699D01*
X447287Y424729D01*
X447284Y424757D01*
X447258Y424802D01*
X447232Y424866D01*
X447229Y424871D01*
X447374Y425503D01*
X447375Y425538D01*
X447385Y425578D01*
X447434Y426225D01*
X447438Y426229D01*
X447482Y426285D01*
X447531Y426335D01*
X447544Y426365D01*
X447561Y426387D01*
X447575Y426437D01*
X447602Y426500D01*
X448130Y428812D01*
X448132Y428883D01*
X448142Y428953D01*
X448135Y428984D01*
X448135Y429012D01*
X448117Y429061D01*
X448101Y429128D01*
X448099Y429133D01*
X448336Y429737D01*
X448342Y429771D01*
X448358Y429809D01*
X448503Y430442D01*
X448507Y430445D01*
X448559Y430493D01*
X448615Y430536D01*
X448632Y430563D01*
X448653Y430583D01*
X448674Y430630D01*
X448710Y430689D01*
X449577Y432896D01*
X449589Y432966D01*
X449610Y433033D01*
X449607Y433066D01*
X449612Y433093D01*
X449601Y433144D01*
X449595Y433213D01*
X449593Y433218D01*
X449918Y433780D01*
X449929Y433813D01*
X449951Y433848D01*
X450188Y434452D01*
X450193Y434454D01*
X450251Y434495D01*
X450313Y434528D01*
X450335Y434553D01*
X450358Y434569D01*
X450385Y434613D01*
X450430Y434665D01*
X451616Y436719D01*
X451639Y436786D01*
X451669Y436849D01*
X451671Y436882D01*
X451680Y436909D01*
X451676Y436960D01*
X451681Y437029D01*
X451680Y437035D01*
X452085Y437542D01*
X452101Y437573D01*
X452128Y437604D01*
X452452Y438166D01*
X452458Y438168D01*
X452502Y438190D01*
X452527Y438195D01*
X452547Y438208D01*
X452588Y438223D01*
X452612Y438244D01*
X452637Y438257D01*
X452665Y438288D01*
X452693Y438307D01*
X452704Y438324D01*
X452723Y438341D01*
X454202Y440195D01*
X454234Y440258D01*
X454274Y440316D01*
X454281Y440348D01*
X454294Y440373D01*
X454298Y440425D01*
X454313Y440492D01*
X454313Y440498D01*
X454789Y440939D01*
X454809Y440967D01*
X454840Y440994D01*
X455245Y441502D01*
X455250Y441502D01*
X455318Y441524D01*
X455387Y441537D01*
X455415Y441555D01*
X455441Y441564D01*
X455481Y441597D01*
X455539Y441634D01*
X457278Y443247D01*
X457319Y443304D01*
X457367Y443356D01*
X457378Y443387D01*
X457395Y443409D01*
X457406Y443460D01*
X457431Y443524D01*
X457432Y443530D01*
X457968Y443895D01*
X457993Y443920D01*
X458028Y443942D01*
X458503Y444384D01*
X458509Y444383D01*
X458579Y444395D01*
X458649Y444398D01*
X458679Y444411D01*
X458707Y444415D01*
X458751Y444443D01*
X458814Y444471D01*
X459934Y445234D01*
X459994Y445296D01*
X460058Y445355D01*
X460064Y445368D01*
X460074Y445378D01*
X460106Y445458D01*
X460142Y445537D01*
X460143Y445551D01*
X460148Y445564D01*
X460146Y445651D01*
X460149Y445737D01*
X460144Y445751D01*
X460143Y445764D01*
X460121Y445815D01*
X460088Y445907D01*
X441197Y478627D01*
X442516Y479251D01*
X442538Y479268D01*
X442565Y479278D01*
X442617Y479327D01*
X442675Y479370D01*
X442689Y479395D01*
X442710Y479414D01*
X442739Y479480D01*
X442775Y479542D01*
X442778Y479570D01*
X442790Y479596D01*
X442791Y479668D01*
X442800Y479739D01*
X442792Y479766D01*
X442793Y479795D01*
X442757Y479890D01*
X442746Y479930D01*
X442739Y479939D01*
X442735Y479951D01*
X433235Y496451D01*
X433183Y496510D01*
X433137Y496572D01*
X433118Y496583D01*
X433103Y496600D01*
X433033Y496634D01*
X432966Y496674D01*
X432942Y496678D01*
X432924Y496686D01*
X432879Y496688D01*
X432802Y496701D01*
X413802Y496701D01*
X413774Y496696D01*
X413746Y496698D01*
X413678Y496676D01*
X413607Y496662D01*
X413584Y496646D01*
X413557Y496637D01*
X413502Y496590D01*
X413443Y496549D01*
X413428Y496525D01*
X413407Y496507D01*
X413375Y496442D01*
X413336Y496382D01*
X413331Y496354D01*
X413319Y496328D01*
X413310Y496227D01*
X413303Y496185D01*
X413305Y496175D01*
X413304Y496162D01*
X413422Y494685D01*
X375589Y494685D01*
X375504Y494668D01*
X375419Y494656D01*
X375407Y494648D01*
X375393Y494646D01*
X375321Y494597D01*
X375247Y494552D01*
X375239Y494541D01*
X375227Y494533D01*
X375180Y494461D01*
X375129Y494390D01*
X375125Y494376D01*
X375118Y494365D01*
X375108Y494310D01*
X375084Y494216D01*
X374982Y492857D01*
X374991Y492787D01*
X374991Y492717D01*
X375003Y492686D01*
X375007Y492658D01*
X375032Y492614D01*
X375058Y492550D01*
X375061Y492545D01*
X374917Y491912D01*
X374916Y491878D01*
X374905Y491837D01*
X374857Y491190D01*
X374853Y491187D01*
X374809Y491131D01*
X374760Y491081D01*
X374747Y491051D01*
X374730Y491028D01*
X374716Y490979D01*
X374689Y490915D01*
X374162Y488605D01*
X374160Y488535D01*
X374150Y488465D01*
X374157Y488433D01*
X374157Y488405D01*
X374175Y488357D01*
X374191Y488290D01*
X374194Y488285D01*
X373957Y487681D01*
X373950Y487646D01*
X373934Y487608D01*
X373790Y486975D01*
X373785Y486972D01*
X373734Y486924D01*
X373677Y486882D01*
X373660Y486854D01*
X373640Y486834D01*
X373619Y486787D01*
X373583Y486728D01*
X372717Y484523D01*
X372705Y484453D01*
X372685Y484386D01*
X372687Y484353D01*
X372682Y484326D01*
X372694Y484275D01*
X372700Y484206D01*
X372701Y484201D01*
X372377Y483639D01*
X372365Y483606D01*
X372344Y483571D01*
X372107Y482967D01*
X372101Y482965D01*
X372044Y482924D01*
X371981Y482891D01*
X371960Y482866D01*
X371937Y482850D01*
X371910Y482806D01*
X371865Y482753D01*
X370680Y480702D01*
X370658Y480635D01*
X370628Y480571D01*
X370625Y480538D01*
X370617Y480512D01*
X370620Y480460D01*
X370616Y480391D01*
X370616Y480386D01*
X370212Y479878D01*
X370196Y479847D01*
X370169Y479816D01*
X369845Y479254D01*
X369839Y479252D01*
X369776Y479221D01*
X369710Y479197D01*
X369685Y479176D01*
X369660Y479163D01*
X369626Y479124D01*
X369590Y479092D01*
X369587Y479090D01*
X369586Y479089D01*
X369574Y479079D01*
X368097Y477226D01*
X368065Y477164D01*
X368025Y477105D01*
X368018Y477073D01*
X368005Y477048D01*
X368001Y476997D01*
X367987Y476929D01*
X367986Y476924D01*
X367511Y476482D01*
X367490Y476454D01*
X367459Y476427D01*
X367055Y475919D01*
X367049Y475919D01*
X366982Y475897D01*
X366913Y475884D01*
X366885Y475866D01*
X366858Y475857D01*
X366819Y475824D01*
X366761Y475786D01*
X365024Y474175D01*
X364983Y474118D01*
X364935Y474066D01*
X364923Y474035D01*
X364907Y474012D01*
X364895Y473962D01*
X364871Y473897D01*
X364870Y473892D01*
X364334Y473527D01*
X364309Y473502D01*
X364274Y473479D01*
X363799Y473038D01*
X363793Y473038D01*
X363724Y473027D01*
X363653Y473024D01*
X363623Y473010D01*
X363595Y473006D01*
X363552Y472979D01*
X363488Y472950D01*
X361531Y471616D01*
X361482Y471565D01*
X361427Y471521D01*
X361410Y471492D01*
X361391Y471472D01*
X361372Y471424D01*
X361338Y471364D01*
X361336Y471359D01*
X360751Y471077D01*
X360724Y471056D01*
X360686Y471039D01*
X360150Y470674D01*
X360144Y470675D01*
X360074Y470674D01*
X360003Y470682D01*
X359972Y470673D01*
X359944Y470673D01*
X359897Y470652D01*
X359830Y470634D01*
X357695Y469606D01*
X357639Y469563D01*
X357578Y469527D01*
X357558Y469502D01*
X357536Y469485D01*
X357510Y469440D01*
X357467Y469386D01*
X357464Y469381D01*
X356844Y469190D01*
X356814Y469173D01*
X356774Y469162D01*
X356189Y468880D01*
X356184Y468882D01*
X356114Y468892D01*
X356046Y468910D01*
X356013Y468906D01*
X355985Y468910D01*
X355935Y468896D01*
X355867Y468888D01*
X353603Y468190D01*
X353541Y468156D01*
X353475Y468130D01*
X353452Y468107D01*
X353427Y468094D01*
X353395Y468054D01*
X353344Y468006D01*
X353341Y468002D01*
X352700Y467905D01*
X352667Y467893D01*
X352626Y467888D01*
X352005Y467697D01*
X352001Y467700D01*
X351933Y467720D01*
X351868Y467747D01*
X351835Y467748D01*
X351808Y467756D01*
X351757Y467751D01*
X351688Y467753D01*
X349345Y467400D01*
X349279Y467375D01*
X349210Y467359D01*
X349183Y467341D01*
X349157Y467331D01*
X349119Y467296D01*
X349062Y467257D01*
X349058Y467253D01*
X348409Y467253D01*
X348375Y467246D01*
X348334Y467247D01*
X347692Y467150D01*
X347688Y467154D01*
X347624Y467183D01*
X347564Y467221D01*
X347532Y467227D01*
X347506Y467238D01*
X347455Y467240D01*
X347387Y467253D01*
X345017Y467253D01*
X344948Y467239D01*
X344878Y467233D01*
X344848Y467219D01*
X344821Y467213D01*
X344778Y467184D01*
X344716Y467154D01*
X344712Y467150D01*
X344070Y467247D01*
X344035Y467245D01*
X343995Y467253D01*
X343346Y467253D01*
X343342Y467257D01*
X343283Y467296D01*
X343229Y467342D01*
X343198Y467352D01*
X343175Y467368D01*
X343124Y467377D01*
X343059Y467400D01*
X340716Y467753D01*
X340645Y467749D01*
X340575Y467754D01*
X340544Y467744D01*
X340516Y467743D01*
X340469Y467720D01*
X340403Y467700D01*
X340399Y467697D01*
X339778Y467888D01*
X339744Y467892D01*
X339704Y467905D01*
X339063Y468002D01*
X339060Y468006D01*
X339007Y468054D01*
X338961Y468107D01*
X338932Y468122D01*
X338911Y468141D01*
X338862Y468158D01*
X338801Y468190D01*
X336537Y468888D01*
X336467Y468895D01*
X336398Y468910D01*
X336366Y468905D01*
X336338Y468908D01*
X336288Y468893D01*
X336220Y468882D01*
X336215Y468880D01*
X335630Y469162D01*
X335597Y469170D01*
X335560Y469190D01*
X334940Y469381D01*
X334937Y469386D01*
X334892Y469440D01*
X334854Y469500D01*
X334828Y469519D01*
X334810Y469541D01*
X334765Y469565D01*
X334709Y469606D01*
X333658Y470112D01*
X333638Y470117D01*
X333620Y470128D01*
X333541Y470141D01*
X333464Y470161D01*
X333443Y470158D01*
X333422Y470162D01*
X333345Y470144D01*
X333265Y470132D01*
X333247Y470121D01*
X333227Y470116D01*
X333140Y470056D01*
X333094Y470028D01*
X333088Y470020D01*
X333079Y470013D01*
X332480Y469414D01*
X332476Y469408D01*
X332470Y469403D01*
X332421Y469325D01*
X332369Y469248D01*
X332368Y469240D01*
X332364Y469233D01*
X332332Y469056D01*
X332332Y466432D01*
X329223Y463323D01*
X324827Y463323D01*
X321718Y466432D01*
X321718Y470828D01*
X324827Y473937D01*
X326344Y473937D01*
X326356Y473939D01*
X326368Y473937D01*
X326454Y473959D01*
X326541Y473976D01*
X326551Y473983D01*
X326563Y473986D01*
X326634Y474039D01*
X326707Y474089D01*
X326713Y474099D01*
X326723Y474107D01*
X326768Y474183D01*
X326816Y474257D01*
X326818Y474269D01*
X326824Y474280D01*
X326836Y474367D01*
X326851Y474454D01*
X326849Y474466D01*
X326850Y474478D01*
X326827Y474564D01*
X326808Y474650D01*
X326801Y474660D01*
X326797Y474672D01*
X326705Y474795D01*
X326692Y474813D01*
X326690Y474814D01*
X326689Y474816D01*
X325643Y475786D01*
X325583Y475823D01*
X325528Y475867D01*
X325496Y475876D01*
X325472Y475891D01*
X325421Y475899D01*
X325355Y475919D01*
X325349Y475919D01*
X324945Y476427D01*
X324918Y476449D01*
X324893Y476482D01*
X324418Y476924D01*
X324417Y476929D01*
X324401Y476998D01*
X324393Y477068D01*
X324377Y477097D01*
X324371Y477124D01*
X324340Y477165D01*
X324307Y477226D01*
X322830Y479079D01*
X322808Y479097D01*
X322803Y479105D01*
X322788Y479113D01*
X322776Y479124D01*
X322728Y479175D01*
X322698Y479189D01*
X322677Y479207D01*
X322627Y479223D01*
X322565Y479252D01*
X322559Y479254D01*
X322235Y479816D01*
X322212Y479842D01*
X322192Y479878D01*
X321788Y480386D01*
X321788Y480391D01*
X321782Y480462D01*
X321784Y480532D01*
X321773Y480563D01*
X321771Y480591D01*
X321747Y480637D01*
X321724Y480702D01*
X320539Y482753D01*
X320492Y482806D01*
X320452Y482864D01*
X320425Y482883D01*
X320406Y482904D01*
X320360Y482926D01*
X320303Y482965D01*
X320297Y482967D01*
X320060Y483571D01*
X320042Y483600D01*
X320027Y483639D01*
X319703Y484201D01*
X319704Y484206D01*
X319709Y484277D01*
X319722Y484346D01*
X319715Y484378D01*
X319717Y484406D01*
X319700Y484455D01*
X319687Y484523D01*
X319305Y485496D01*
X319301Y485502D01*
X319300Y485508D01*
X319247Y485586D01*
X319196Y485665D01*
X319191Y485668D01*
X319187Y485673D01*
X319108Y485725D01*
X319031Y485778D01*
X319025Y485779D01*
X319019Y485783D01*
X318927Y485799D01*
X318834Y485818D01*
X318828Y485817D01*
X318822Y485818D01*
X318730Y485798D01*
X318638Y485779D01*
X318633Y485776D01*
X318626Y485775D01*
X318549Y485720D01*
X318471Y485667D01*
X318468Y485662D01*
X318463Y485659D01*
X318413Y485579D01*
X318362Y485500D01*
X318360Y485494D01*
X318357Y485488D01*
X318325Y485311D01*
X318325Y483005D01*
X315968Y480647D01*
X307227Y480647D01*
X307225Y480647D01*
X307222Y480647D01*
X307128Y480627D01*
X307031Y480608D01*
X307028Y480606D01*
X307026Y480606D01*
X306946Y480550D01*
X306865Y480495D01*
X306863Y480493D01*
X306861Y480491D01*
X306808Y480408D01*
X306756Y480327D01*
X306755Y480324D01*
X306754Y480322D01*
X306737Y480226D01*
X306720Y480130D01*
X306721Y480127D01*
X306720Y480125D01*
X306742Y480031D01*
X306764Y479934D01*
X306765Y479932D01*
X306766Y479929D01*
X306868Y479781D01*
X306932Y479718D01*
X306932Y475322D01*
X303823Y472213D01*
X299427Y472213D01*
X296318Y475322D01*
X296318Y479718D01*
X299127Y482527D01*
X299132Y482534D01*
X299138Y482538D01*
X299187Y482617D01*
X299238Y482694D01*
X299240Y482702D01*
X299244Y482708D01*
X299276Y482886D01*
X299276Y491339D01*
X301756Y493819D01*
X301758Y493822D01*
X301760Y493823D01*
X301812Y493904D01*
X301867Y493986D01*
X301868Y493989D01*
X301869Y493991D01*
X301886Y494087D01*
X301905Y494183D01*
X301904Y494186D01*
X301905Y494188D01*
X301883Y494285D01*
X301863Y494379D01*
X301862Y494381D01*
X301861Y494384D01*
X301804Y494464D01*
X301749Y494544D01*
X301746Y494545D01*
X301745Y494547D01*
X301662Y494599D01*
X301580Y494651D01*
X301577Y494652D01*
X301575Y494653D01*
X301397Y494685D01*
X278982Y494685D01*
X279100Y496162D01*
X279096Y496191D01*
X279101Y496219D01*
X279084Y496288D01*
X279076Y496360D01*
X279062Y496384D01*
X279055Y496412D01*
X279012Y496470D01*
X278977Y496532D01*
X278954Y496549D01*
X278937Y496572D01*
X278875Y496609D01*
X278818Y496652D01*
X278790Y496659D01*
X278766Y496674D01*
X278666Y496690D01*
X278625Y496701D01*
X278615Y496699D01*
X278602Y496701D01*
X259602Y496701D01*
X259526Y496686D01*
X259448Y496677D01*
X259429Y496666D01*
X259407Y496662D01*
X259343Y496618D01*
X259275Y496579D01*
X259259Y496560D01*
X259243Y496549D01*
X259219Y496511D01*
X259169Y496451D01*
X249669Y479951D01*
X249660Y479924D01*
X249644Y479900D01*
X249629Y479830D01*
X249606Y479762D01*
X249609Y479734D01*
X249603Y479706D01*
X249617Y479636D01*
X249622Y479564D01*
X249635Y479539D01*
X249641Y479511D01*
X249681Y479451D01*
X249714Y479388D01*
X249736Y479370D01*
X249752Y479346D01*
X249835Y479288D01*
X249867Y479261D01*
X249878Y479258D01*
X249889Y479251D01*
X251207Y478627D01*
X232316Y445907D01*
X232289Y445825D01*
X232257Y445744D01*
X232257Y445730D01*
X232252Y445717D01*
X232259Y445630D01*
X232260Y445544D01*
X232266Y445531D01*
X232267Y445517D01*
X232306Y445440D01*
X232342Y445360D01*
X232352Y445350D01*
X232358Y445338D01*
X232401Y445302D01*
X232470Y445234D01*
X233590Y444471D01*
X233655Y444444D01*
X233717Y444409D01*
X233749Y444404D01*
X233775Y444393D01*
X233827Y444393D01*
X233895Y444383D01*
X233901Y444383D01*
X234376Y443942D01*
X234406Y443924D01*
X234436Y443895D01*
X234972Y443530D01*
X234973Y443524D01*
X235000Y443459D01*
X235018Y443391D01*
X235038Y443365D01*
X235048Y443339D01*
X235085Y443302D01*
X235126Y443247D01*
X236865Y441634D01*
X236926Y441598D01*
X236981Y441554D01*
X237012Y441544D01*
X237036Y441530D01*
X237087Y441522D01*
X237154Y441502D01*
X237159Y441502D01*
X237564Y440994D01*
X237590Y440972D01*
X237615Y440939D01*
X238091Y440498D01*
X238091Y440492D01*
X238108Y440424D01*
X238116Y440353D01*
X238132Y440325D01*
X238138Y440297D01*
X238169Y440256D01*
X238202Y440195D01*
X239681Y438341D01*
X239708Y438319D01*
X239726Y438293D01*
X239754Y438276D01*
X239783Y438245D01*
X239813Y438231D01*
X239834Y438213D01*
X239877Y438199D01*
X239896Y438187D01*
X239910Y438185D01*
X239946Y438168D01*
X239952Y438166D01*
X240276Y437604D01*
X240299Y437578D01*
X240319Y437542D01*
X240724Y437035D01*
X240723Y437029D01*
X240729Y436959D01*
X240727Y436888D01*
X240738Y436857D01*
X240740Y436829D01*
X240764Y436784D01*
X240788Y436719D01*
X241974Y434665D01*
X242021Y434612D01*
X242061Y434554D01*
X242088Y434536D01*
X242107Y434515D01*
X242153Y434493D01*
X242211Y434454D01*
X242216Y434452D01*
X242453Y433848D01*
X242472Y433819D01*
X242486Y433780D01*
X242811Y433218D01*
X242809Y433213D01*
X242805Y433142D01*
X242792Y433073D01*
X242798Y433041D01*
X242797Y433013D01*
X242814Y432964D01*
X242827Y432896D01*
X243694Y430689D01*
X243732Y430630D01*
X243763Y430566D01*
X243788Y430544D01*
X243803Y430520D01*
X243845Y430491D01*
X243897Y430445D01*
X243901Y430442D01*
X244046Y429809D01*
X244060Y429778D01*
X244068Y429737D01*
X244305Y429133D01*
X244303Y429128D01*
X244288Y429059D01*
X244265Y428992D01*
X244267Y428959D01*
X244261Y428932D01*
X244271Y428881D01*
X244274Y428812D01*
X244802Y426500D01*
X244831Y426436D01*
X244852Y426369D01*
X244873Y426343D01*
X244885Y426318D01*
X244922Y426283D01*
X244966Y426229D01*
X244970Y426225D01*
X245019Y425578D01*
X245028Y425545D01*
X245030Y425503D01*
X245175Y424871D01*
X245172Y424866D01*
X245147Y424800D01*
X245114Y424737D01*
X245111Y424705D01*
X245101Y424678D01*
X245103Y424627D01*
X245096Y424558D01*
X245273Y422193D01*
X245293Y422126D01*
X245303Y422056D01*
X245320Y422027D01*
X245328Y422000D01*
X245360Y421960D01*
X245395Y421900D01*
X245399Y421896D01*
X245350Y421249D01*
X245355Y421215D01*
X245350Y421173D01*
X245399Y420526D01*
X245395Y420522D01*
X245361Y420461D01*
X245319Y420404D01*
X245311Y420372D01*
X245297Y420347D01*
X245291Y420296D01*
X245274Y420229D01*
X245098Y417864D01*
X245106Y417794D01*
X245107Y417724D01*
X245119Y417693D01*
X245123Y417665D01*
X245148Y417621D01*
X245174Y417557D01*
X245177Y417552D01*
X245033Y416919D01*
X245032Y416885D01*
X245022Y416844D01*
X244973Y416197D01*
X244969Y416194D01*
X244926Y416138D01*
X244876Y416088D01*
X244863Y416058D01*
X244846Y416035D01*
X244833Y415985D01*
X244806Y415922D01*
X244279Y413610D01*
X244277Y413539D01*
X244267Y413469D01*
X244274Y413438D01*
X244274Y413410D01*
X244292Y413361D01*
X244308Y413294D01*
X244311Y413289D01*
X244074Y412685D01*
X244068Y412651D01*
X244051Y412613D01*
X243907Y411980D01*
X243902Y411977D01*
X243851Y411928D01*
X243795Y411886D01*
X243778Y411858D01*
X243757Y411839D01*
X243737Y411792D01*
X243700Y411733D01*
X242835Y409525D01*
X242822Y409455D01*
X242802Y409388D01*
X242805Y409355D01*
X242800Y409328D01*
X242811Y409277D01*
X242817Y409208D01*
X242818Y409203D01*
X242494Y408641D01*
X242483Y408608D01*
X242461Y408573D01*
X242224Y407969D01*
X242219Y407966D01*
X242161Y407926D01*
X242099Y407893D01*
X242078Y407868D01*
X242055Y407851D01*
X242028Y407808D01*
X241983Y407755D01*
X240798Y405701D01*
X240775Y405634D01*
X240745Y405570D01*
X240743Y405538D01*
X240734Y405511D01*
X240738Y405460D01*
X240733Y405390D01*
X240734Y405385D01*
X240329Y404878D01*
X240313Y404847D01*
X240287Y404815D01*
X239962Y404253D01*
X239957Y404251D01*
X239894Y404220D01*
X239827Y404196D01*
X239803Y404175D01*
X239778Y404162D01*
X239744Y404123D01*
X239692Y404078D01*
X238214Y402223D01*
X238182Y402160D01*
X238142Y402102D01*
X238135Y402070D01*
X238122Y402045D01*
X238118Y401993D01*
X238104Y401926D01*
X238104Y401920D01*
X237628Y401479D01*
X237608Y401451D01*
X237576Y401423D01*
X237172Y400916D01*
X237167Y400915D01*
X237099Y400894D01*
X237030Y400880D01*
X237002Y400862D01*
X236976Y400854D01*
X236937Y400820D01*
X236878Y400783D01*
X235141Y399169D01*
X235099Y399112D01*
X235052Y399060D01*
X235040Y399029D01*
X235024Y399007D01*
X235012Y398956D01*
X234987Y398892D01*
X234986Y398886D01*
X234450Y398521D01*
X234426Y398496D01*
X234391Y398473D01*
X233915Y398032D01*
X233910Y398032D01*
X233840Y398021D01*
X233770Y398018D01*
X233740Y398004D01*
X233712Y398000D01*
X233668Y397972D01*
X233605Y397944D01*
X231646Y396608D01*
X231597Y396557D01*
X231542Y396513D01*
X231526Y396484D01*
X231506Y396464D01*
X231487Y396416D01*
X231453Y396356D01*
X231452Y396351D01*
X230867Y396069D01*
X230839Y396048D01*
X230801Y396031D01*
X230265Y395665D01*
X230260Y395666D01*
X230189Y395666D01*
X230119Y395673D01*
X230088Y395664D01*
X230060Y395664D01*
X230012Y395643D01*
X229946Y395625D01*
X227809Y394595D01*
X227753Y394553D01*
X227692Y394517D01*
X227672Y394491D01*
X227650Y394474D01*
X227624Y394430D01*
X227581Y394375D01*
X227579Y394370D01*
X226958Y394179D01*
X226928Y394162D01*
X226888Y394151D01*
X226303Y393870D01*
X226298Y393871D01*
X226228Y393881D01*
X226160Y393899D01*
X226127Y393895D01*
X226100Y393899D01*
X226050Y393886D01*
X225981Y393877D01*
X223715Y393178D01*
X223653Y393144D01*
X223588Y393118D01*
X223564Y393095D01*
X223539Y393082D01*
X223507Y393041D01*
X223457Y392994D01*
X223454Y392989D01*
X222812Y392893D01*
X222779Y392881D01*
X222738Y392876D01*
X222118Y392684D01*
X222113Y392687D01*
X222045Y392707D01*
X221981Y392735D01*
X221948Y392736D01*
X221921Y392744D01*
X221870Y392738D01*
X221800Y392740D01*
X219456Y392386D01*
X219389Y392361D01*
X219321Y392345D01*
X219294Y392327D01*
X219267Y392317D01*
X219229Y392282D01*
X219173Y392243D01*
X219169Y392239D01*
X218520Y392239D01*
X218486Y392232D01*
X218445Y392233D01*
X218402Y392226D01*
X218340Y392204D01*
X218276Y392190D01*
X218247Y392170D01*
X218213Y392158D01*
X218165Y392113D01*
X218111Y392076D01*
X218092Y392046D01*
X218066Y392022D01*
X218039Y391962D01*
X218004Y391907D01*
X217998Y391872D01*
X217983Y391839D01*
X217981Y391774D01*
X217970Y391709D01*
X217978Y391675D01*
X217977Y391639D01*
X218001Y391578D01*
X218016Y391514D01*
X218038Y391482D01*
X218050Y391452D01*
X218083Y391417D01*
X218119Y391366D01*
X219302Y390183D01*
X219302Y385787D01*
X217901Y384387D01*
X217899Y384382D01*
X217894Y384379D01*
X217843Y384299D01*
X217791Y384220D01*
X217790Y384215D01*
X217787Y384210D01*
X217771Y384116D01*
X217753Y384023D01*
X217754Y384018D01*
X217753Y384012D01*
X217775Y383920D01*
X217795Y383827D01*
X217798Y383822D01*
X217799Y383817D01*
X217901Y383669D01*
X229819Y371751D01*
X229826Y371747D01*
X229831Y371741D01*
X229909Y371692D01*
X229986Y371640D01*
X229994Y371639D01*
X230001Y371635D01*
X230178Y371603D01*
X253688Y371603D01*
X255771Y369520D01*
X255771Y369519D01*
X258640Y366651D01*
X258647Y366646D01*
X258651Y366640D01*
X258730Y366591D01*
X258807Y366540D01*
X258815Y366538D01*
X258821Y366534D01*
X258999Y366502D01*
X276597Y366502D01*
X276600Y366503D01*
X276602Y366502D01*
X276697Y366522D01*
X276793Y366542D01*
X276796Y366543D01*
X276798Y366544D01*
X276878Y366599D01*
X276959Y366655D01*
X276961Y366657D01*
X276963Y366658D01*
X277016Y366741D01*
X277068Y366823D01*
X277069Y366825D01*
X277070Y366828D01*
X277087Y366924D01*
X277104Y367020D01*
X277103Y367023D01*
X277104Y367025D01*
X277082Y367119D01*
X277075Y367149D01*
X277075Y379512D01*
X277963Y380399D01*
X277966Y380404D01*
X277970Y380407D01*
X278021Y380487D01*
X278074Y380566D01*
X278075Y380572D01*
X278078Y380576D01*
X278094Y380670D01*
X278112Y380763D01*
X278111Y380768D01*
X278112Y380774D01*
X278090Y380866D01*
X278070Y380959D01*
X278067Y380964D01*
X278066Y380969D01*
X277963Y381117D01*
X270002Y389078D01*
X269996Y389082D01*
X269991Y389088D01*
X269913Y389137D01*
X269835Y389189D01*
X269828Y389190D01*
X269821Y389194D01*
X269644Y389226D01*
X263843Y389226D01*
X262931Y390139D01*
X262928Y390140D01*
X262927Y390142D01*
X262847Y390194D01*
X262764Y390250D01*
X262761Y390250D01*
X262759Y390251D01*
X262663Y390269D01*
X262567Y390287D01*
X262564Y390287D01*
X262562Y390287D01*
X262465Y390266D01*
X262371Y390246D01*
X262369Y390244D01*
X262366Y390243D01*
X262286Y390187D01*
X262206Y390131D01*
X262205Y390129D01*
X262203Y390127D01*
X262151Y390044D01*
X262099Y389962D01*
X262098Y389959D01*
X262097Y389957D01*
X262065Y389780D01*
X262065Y383016D01*
X262066Y383008D01*
X262065Y383001D01*
X262086Y382911D01*
X262104Y382820D01*
X262109Y382813D01*
X262111Y382805D01*
X262213Y382657D01*
X265063Y379808D01*
X265069Y379804D01*
X265074Y379797D01*
X265152Y379748D01*
X265230Y379697D01*
X265237Y379696D01*
X265244Y379692D01*
X265421Y379660D01*
X269195Y379660D01*
X272304Y376551D01*
X272304Y372155D01*
X269195Y369046D01*
X264799Y369046D01*
X261690Y372155D01*
X261690Y373629D01*
X261689Y373636D01*
X261690Y373644D01*
X261669Y373734D01*
X261651Y373825D01*
X261646Y373832D01*
X261645Y373839D01*
X261542Y373987D01*
X255003Y380527D01*
X254996Y380531D01*
X254991Y380537D01*
X254913Y380586D01*
X254836Y380638D01*
X254828Y380639D01*
X254821Y380643D01*
X254644Y380675D01*
X251908Y380675D01*
X251015Y381568D01*
X251015Y390832D01*
X251908Y391725D01*
X260120Y391725D01*
X260122Y391725D01*
X260125Y391725D01*
X260220Y391745D01*
X260316Y391764D01*
X260319Y391766D01*
X260321Y391766D01*
X260402Y391822D01*
X260482Y391877D01*
X260484Y391879D01*
X260486Y391881D01*
X260538Y391963D01*
X260591Y392045D01*
X260592Y392048D01*
X260593Y392050D01*
X260610Y392146D01*
X260627Y392242D01*
X260626Y392245D01*
X260627Y392247D01*
X260605Y392341D01*
X260583Y392438D01*
X260582Y392440D01*
X260581Y392443D01*
X260479Y392591D01*
X257543Y395527D01*
X257536Y395531D01*
X257531Y395537D01*
X257453Y395586D01*
X257376Y395638D01*
X257368Y395639D01*
X257361Y395643D01*
X257184Y395675D01*
X251908Y395675D01*
X251015Y396568D01*
X251015Y405832D01*
X251908Y406725D01*
X261172Y406725D01*
X262065Y405832D01*
X262065Y400556D01*
X262066Y400548D01*
X262065Y400541D01*
X262086Y400451D01*
X262104Y400360D01*
X262109Y400353D01*
X262111Y400345D01*
X262213Y400197D01*
X266430Y395980D01*
X266437Y395976D01*
X266442Y395970D01*
X266520Y395921D01*
X266597Y395869D01*
X266605Y395868D01*
X266612Y395864D01*
X266789Y395832D01*
X272590Y395832D01*
X286903Y381519D01*
X286903Y380912D01*
X286904Y380907D01*
X286903Y380902D01*
X286924Y380809D01*
X286942Y380715D01*
X286945Y380711D01*
X286946Y380706D01*
X287002Y380628D01*
X287055Y380550D01*
X287059Y380547D01*
X287062Y380543D01*
X287144Y380492D01*
X287223Y380440D01*
X287228Y380440D01*
X287233Y380437D01*
X287410Y380405D01*
X289232Y380405D01*
X290125Y379512D01*
X290125Y367158D01*
X290114Y367100D01*
X290096Y367005D01*
X290097Y367002D01*
X290096Y366999D01*
X290118Y366902D01*
X290137Y366809D01*
X290139Y366806D01*
X290140Y366804D01*
X290197Y366723D01*
X290252Y366644D01*
X290254Y366642D01*
X290256Y366640D01*
X290339Y366588D01*
X290421Y366536D01*
X290423Y366536D01*
X290426Y366534D01*
X290603Y366502D01*
X293597Y366502D01*
X293600Y366503D01*
X293602Y366502D01*
X293697Y366522D01*
X293793Y366542D01*
X293796Y366543D01*
X293798Y366544D01*
X293878Y366599D01*
X293959Y366655D01*
X293961Y366657D01*
X293963Y366658D01*
X294016Y366741D01*
X294068Y366823D01*
X294069Y366825D01*
X294070Y366828D01*
X294087Y366924D01*
X294104Y367020D01*
X294103Y367023D01*
X294104Y367025D01*
X294082Y367119D01*
X294075Y367149D01*
X294075Y379512D01*
X294968Y380405D01*
X306232Y380405D01*
X307125Y379512D01*
X307125Y372208D01*
X307125Y372205D01*
X307125Y372202D01*
X307125Y372200D01*
X307125Y372198D01*
X307146Y372105D01*
X307164Y372011D01*
X307167Y372007D01*
X307168Y372002D01*
X307224Y371924D01*
X307277Y371846D01*
X307281Y371843D01*
X307284Y371839D01*
X307366Y371788D01*
X307445Y371736D01*
X307450Y371736D01*
X307455Y371733D01*
X307632Y371701D01*
X338356Y371701D01*
X338361Y371702D01*
X338366Y371701D01*
X338459Y371722D01*
X338553Y371740D01*
X338557Y371743D01*
X338562Y371744D01*
X338640Y371800D01*
X338718Y371853D01*
X338721Y371857D01*
X338725Y371860D01*
X338776Y371942D01*
X338828Y372021D01*
X338828Y372026D01*
X338831Y372031D01*
X338863Y372208D01*
X338863Y373038D01*
X341972Y376147D01*
X346368Y376147D01*
X349477Y373038D01*
X349477Y368642D01*
X348203Y367368D01*
X348202Y367366D01*
X348199Y367365D01*
X348147Y367285D01*
X348092Y367201D01*
X348092Y367199D01*
X348090Y367196D01*
X348073Y367101D01*
X348055Y367004D01*
X348055Y367002D01*
X348055Y366999D01*
X348076Y366903D01*
X348096Y366808D01*
X348098Y366806D01*
X348098Y366804D01*
X348155Y366724D01*
X348210Y366644D01*
X348213Y366642D01*
X348214Y366640D01*
X348298Y366588D01*
X348380Y366536D01*
X348382Y366536D01*
X348384Y366534D01*
X348562Y366502D01*
X350191Y366502D01*
X350199Y366504D01*
X350207Y366503D01*
X350297Y366524D01*
X350388Y366542D01*
X350394Y366546D01*
X350402Y366548D01*
X350550Y366651D01*
X360731Y376831D01*
X360732Y376834D01*
X360734Y376835D01*
X360786Y376915D01*
X360842Y376998D01*
X360842Y377001D01*
X360843Y377003D01*
X360861Y377098D01*
X360879Y377195D01*
X360879Y377198D01*
X360879Y377200D01*
X360858Y377296D01*
X360838Y377391D01*
X360836Y377393D01*
X360835Y377396D01*
X360779Y377476D01*
X360723Y377556D01*
X360721Y377557D01*
X360719Y377559D01*
X360637Y377611D01*
X360554Y377663D01*
X360551Y377664D01*
X360549Y377665D01*
X360372Y377697D01*
X328088Y377697D01*
X326897Y378888D01*
X326897Y403987D01*
X326896Y403992D01*
X326897Y403997D01*
X326876Y404090D01*
X326858Y404184D01*
X326855Y404188D01*
X326854Y404193D01*
X326798Y404271D01*
X326745Y404349D01*
X326741Y404352D01*
X326738Y404356D01*
X326656Y404407D01*
X326577Y404459D01*
X326572Y404459D01*
X326567Y404462D01*
X326390Y404494D01*
X312423Y404494D01*
X311411Y405507D01*
X311408Y405509D01*
X311407Y405511D01*
X311327Y405563D01*
X311244Y405618D01*
X311241Y405619D01*
X311239Y405620D01*
X311143Y405637D01*
X311047Y405656D01*
X311044Y405655D01*
X311042Y405656D01*
X310945Y405634D01*
X310851Y405614D01*
X310849Y405613D01*
X310846Y405612D01*
X310766Y405555D01*
X310686Y405500D01*
X310685Y405497D01*
X310683Y405496D01*
X310630Y405412D01*
X310579Y405331D01*
X310578Y405328D01*
X310577Y405326D01*
X310545Y405148D01*
X310545Y399213D01*
X309652Y398320D01*
X297388Y398320D01*
X296495Y399213D01*
X296495Y407035D01*
X296494Y407040D01*
X296495Y407045D01*
X296474Y407138D01*
X296456Y407232D01*
X296453Y407236D01*
X296452Y407241D01*
X296396Y407319D01*
X296343Y407397D01*
X296339Y407400D01*
X296336Y407404D01*
X296254Y407455D01*
X296175Y407507D01*
X296170Y407507D01*
X296165Y407510D01*
X295988Y407542D01*
X292027Y407542D01*
X272947Y426622D01*
X272947Y428618D01*
X272946Y428623D01*
X272947Y428628D01*
X272926Y428721D01*
X272908Y428815D01*
X272905Y428819D01*
X272904Y428824D01*
X272849Y428901D01*
X272795Y428980D01*
X272791Y428983D01*
X272788Y428987D01*
X272706Y429038D01*
X272627Y429090D01*
X272622Y429090D01*
X272617Y429093D01*
X272440Y429125D01*
X269118Y429125D01*
X268225Y430018D01*
X268225Y446282D01*
X269118Y447175D01*
X283382Y447175D01*
X284275Y446282D01*
X284275Y430018D01*
X283382Y429125D01*
X281010Y429125D01*
X281008Y429125D01*
X281005Y429125D01*
X280910Y429105D01*
X280814Y429086D01*
X280811Y429084D01*
X280809Y429084D01*
X280728Y429028D01*
X280648Y428973D01*
X280646Y428971D01*
X280644Y428969D01*
X280591Y428886D01*
X280539Y428805D01*
X280538Y428802D01*
X280537Y428800D01*
X280520Y428704D01*
X280503Y428608D01*
X280504Y428605D01*
X280503Y428603D01*
X280525Y428507D01*
X280547Y428412D01*
X280548Y428410D01*
X280549Y428407D01*
X280651Y428259D01*
X294614Y414296D01*
X294621Y414292D01*
X294626Y414286D01*
X294704Y414237D01*
X294781Y414185D01*
X294789Y414184D01*
X294796Y414180D01*
X294973Y414148D01*
X295988Y414148D01*
X295993Y414149D01*
X295998Y414148D01*
X296091Y414169D01*
X296185Y414187D01*
X296189Y414190D01*
X296194Y414191D01*
X296272Y414247D01*
X296350Y414300D01*
X296353Y414304D01*
X296357Y414307D01*
X296408Y414389D01*
X296460Y414468D01*
X296460Y414473D01*
X296463Y414478D01*
X296495Y414655D01*
X296495Y422477D01*
X297388Y423370D01*
X309652Y423370D01*
X310545Y422477D01*
X310545Y415272D01*
X310545Y415269D01*
X310545Y415266D01*
X310565Y415172D01*
X310584Y415075D01*
X310586Y415073D01*
X310586Y415070D01*
X310642Y414990D01*
X310697Y414909D01*
X310699Y414908D01*
X310701Y414906D01*
X310784Y414852D01*
X310865Y414800D01*
X310868Y414800D01*
X310870Y414798D01*
X310966Y414782D01*
X311062Y414764D01*
X311065Y414765D01*
X311067Y414765D01*
X311162Y414787D01*
X311258Y414808D01*
X311260Y414810D01*
X311263Y414810D01*
X311411Y414913D01*
X312423Y415926D01*
X326390Y415926D01*
X326395Y415927D01*
X326400Y415926D01*
X326493Y415947D01*
X326587Y415965D01*
X326591Y415968D01*
X326596Y415969D01*
X326674Y416025D01*
X326752Y416078D01*
X326755Y416082D01*
X326759Y416085D01*
X326810Y416167D01*
X326862Y416246D01*
X326862Y416251D01*
X326865Y416256D01*
X326897Y416433D01*
X326897Y427101D01*
X326896Y427106D01*
X326897Y427111D01*
X326876Y427204D01*
X326858Y427298D01*
X326855Y427302D01*
X326854Y427307D01*
X326798Y427385D01*
X326745Y427463D01*
X326741Y427466D01*
X326738Y427470D01*
X326656Y427521D01*
X326577Y427573D01*
X326572Y427573D01*
X326567Y427576D01*
X326390Y427608D01*
X312423Y427608D01*
X311530Y428501D01*
X311530Y429260D01*
X311529Y429265D01*
X311530Y429270D01*
X311509Y429363D01*
X311491Y429457D01*
X311488Y429461D01*
X311487Y429466D01*
X311431Y429544D01*
X311378Y429622D01*
X311374Y429625D01*
X311371Y429629D01*
X311289Y429680D01*
X311210Y429732D01*
X311205Y429732D01*
X311200Y429735D01*
X311023Y429767D01*
X304702Y429767D01*
X304141Y430329D01*
X304138Y430330D01*
X304137Y430332D01*
X304057Y430384D01*
X303974Y430440D01*
X303971Y430440D01*
X303969Y430441D01*
X303873Y430459D01*
X303777Y430477D01*
X303774Y430477D01*
X303772Y430477D01*
X303675Y430456D01*
X303581Y430436D01*
X303579Y430434D01*
X303576Y430433D01*
X303496Y430377D01*
X303416Y430321D01*
X303415Y430319D01*
X303413Y430317D01*
X303361Y430234D01*
X303309Y430152D01*
X303308Y430149D01*
X303307Y430147D01*
X303285Y430029D01*
X302382Y429125D01*
X288118Y429125D01*
X287225Y430018D01*
X287225Y446282D01*
X288118Y447175D01*
X302382Y447175D01*
X303275Y446282D01*
X303275Y440746D01*
X303276Y440738D01*
X303275Y440731D01*
X303296Y440641D01*
X303314Y440550D01*
X303319Y440543D01*
X303321Y440535D01*
X303423Y440387D01*
X307289Y436521D01*
X307296Y436517D01*
X307301Y436511D01*
X307379Y436462D01*
X307456Y436410D01*
X307464Y436409D01*
X307471Y436405D01*
X307648Y436373D01*
X311023Y436373D01*
X311028Y436374D01*
X311033Y436373D01*
X311126Y436394D01*
X311220Y436412D01*
X311224Y436415D01*
X311229Y436416D01*
X311307Y436472D01*
X311385Y436525D01*
X311388Y436529D01*
X311392Y436532D01*
X311443Y436614D01*
X311495Y436693D01*
X311495Y436698D01*
X311498Y436703D01*
X311530Y436880D01*
X311530Y438147D01*
X312423Y439040D01*
X317246Y439040D01*
X317251Y439041D01*
X317256Y439040D01*
X317349Y439061D01*
X317443Y439079D01*
X317447Y439082D01*
X317452Y439083D01*
X317530Y439139D01*
X317608Y439192D01*
X317611Y439196D01*
X317615Y439199D01*
X317666Y439281D01*
X317718Y439360D01*
X317718Y439365D01*
X317721Y439370D01*
X317753Y439547D01*
X317753Y440534D01*
X325022Y447803D01*
X400148Y447803D01*
X402231Y445719D01*
X411455Y436496D01*
X411462Y436491D01*
X411466Y436485D01*
X411545Y436436D01*
X411622Y436385D01*
X411630Y436383D01*
X411636Y436379D01*
X411814Y436347D01*
X415072Y436347D01*
X415965Y435454D01*
X415965Y424191D01*
X415072Y423298D01*
X402808Y423298D01*
X401915Y424191D01*
X401915Y435454D01*
X402177Y435715D01*
X402179Y435720D01*
X402184Y435723D01*
X402235Y435803D01*
X402287Y435882D01*
X402288Y435887D01*
X402291Y435892D01*
X402307Y435986D01*
X402325Y436079D01*
X402324Y436084D01*
X402325Y436089D01*
X402303Y436182D01*
X402283Y436275D01*
X402280Y436280D01*
X402279Y436285D01*
X402177Y436433D01*
X399139Y439471D01*
X399136Y439472D01*
X399135Y439474D01*
X399054Y439527D01*
X398972Y439582D01*
X398969Y439582D01*
X398967Y439583D01*
X398871Y439601D01*
X398775Y439619D01*
X398772Y439619D01*
X398770Y439619D01*
X398673Y439598D01*
X398579Y439578D01*
X398577Y439576D01*
X398574Y439575D01*
X398494Y439519D01*
X398414Y439463D01*
X398413Y439461D01*
X398411Y439459D01*
X398359Y439377D01*
X398307Y439294D01*
X398306Y439291D01*
X398305Y439289D01*
X398273Y439112D01*
X398273Y379022D01*
X398274Y379014D01*
X398273Y379007D01*
X398294Y378917D01*
X398312Y378826D01*
X398317Y378819D01*
X398319Y378812D01*
X398421Y378664D01*
X400887Y376198D01*
X400889Y376197D01*
X400890Y376194D01*
X400971Y376142D01*
X401054Y376087D01*
X401056Y376087D01*
X401059Y376085D01*
X401155Y376068D01*
X401251Y376049D01*
X401253Y376050D01*
X401256Y376050D01*
X401352Y376071D01*
X401447Y376091D01*
X401449Y376093D01*
X401451Y376093D01*
X401531Y376150D01*
X401611Y376205D01*
X401613Y376208D01*
X401615Y376209D01*
X401651Y376267D01*
X402646Y377262D01*
X414909Y377262D01*
X415802Y376369D01*
X415802Y365106D01*
X414909Y364212D01*
X402646Y364212D01*
X402004Y364855D01*
X402001Y364856D01*
X402000Y364858D01*
X401920Y364910D01*
X401837Y364966D01*
X401834Y364966D01*
X401832Y364968D01*
X401736Y364985D01*
X401640Y365003D01*
X401637Y365003D01*
X401635Y365003D01*
X401538Y364982D01*
X401444Y364962D01*
X401442Y364960D01*
X401439Y364960D01*
X401359Y364903D01*
X401279Y364847D01*
X401278Y364845D01*
X401276Y364844D01*
X401224Y364760D01*
X401172Y364678D01*
X401171Y364676D01*
X401170Y364673D01*
X401138Y364496D01*
X401138Y362927D01*
X398029Y359818D01*
X393633Y359818D01*
X392412Y361039D01*
X392406Y361043D01*
X392401Y361049D01*
X392323Y361098D01*
X392245Y361150D01*
X392238Y361151D01*
X392231Y361155D01*
X392054Y361187D01*
X364798Y361187D01*
X364790Y361186D01*
X364783Y361187D01*
X364693Y361166D01*
X364602Y361148D01*
X364595Y361143D01*
X364587Y361141D01*
X364439Y361039D01*
X356968Y353567D01*
X253125Y353567D01*
X248095Y358598D01*
X248088Y358602D01*
X248084Y358608D01*
X248005Y358657D01*
X247928Y358709D01*
X247920Y358710D01*
X247913Y358714D01*
X247736Y358746D01*
X247518Y358746D01*
X247516Y358746D01*
X247513Y358746D01*
X247418Y358726D01*
X247322Y358707D01*
X247319Y358705D01*
X247317Y358705D01*
X247236Y358649D01*
X247156Y358594D01*
X247154Y358592D01*
X247152Y358590D01*
X247099Y358507D01*
X247047Y358426D01*
X247046Y358423D01*
X247045Y358421D01*
X247028Y358325D01*
X247011Y358229D01*
X247012Y358226D01*
X247011Y358224D01*
X247033Y358129D01*
X247055Y358033D01*
X247056Y358031D01*
X247057Y358028D01*
X247159Y357880D01*
X247877Y357163D01*
X247877Y352767D01*
X244768Y349658D01*
X240372Y349658D01*
X238516Y351514D01*
X238510Y351518D01*
X238505Y351524D01*
X238427Y351573D01*
X238349Y351625D01*
X238342Y351626D01*
X238335Y351630D01*
X238158Y351662D01*
X235552Y351662D01*
X235550Y351662D01*
X235547Y351662D01*
X235452Y351642D01*
X235356Y351623D01*
X235353Y351621D01*
X235351Y351621D01*
X235270Y351565D01*
X235190Y351510D01*
X235188Y351508D01*
X235186Y351506D01*
X235133Y351423D01*
X235081Y351342D01*
X235080Y351339D01*
X235079Y351337D01*
X235062Y351241D01*
X235045Y351145D01*
X235046Y351142D01*
X235045Y351140D01*
X235067Y351045D01*
X235089Y350949D01*
X235090Y350947D01*
X235091Y350944D01*
X235193Y350796D01*
X237082Y348908D01*
X237082Y345014D01*
X237083Y345006D01*
X237082Y344999D01*
X237103Y344909D01*
X237121Y344818D01*
X237126Y344811D01*
X237128Y344803D01*
X237230Y344655D01*
X263474Y318411D01*
X263481Y318407D01*
X263486Y318401D01*
X263564Y318352D01*
X263641Y318300D01*
X263649Y318299D01*
X263656Y318295D01*
X263833Y318263D01*
X295874Y318263D01*
X350180Y263956D01*
X350187Y263952D01*
X350191Y263946D01*
X350270Y263897D01*
X350347Y263845D01*
X350355Y263844D01*
X350362Y263840D01*
X350539Y263808D01*
X372933Y263808D01*
X372941Y263809D01*
X372948Y263808D01*
X373038Y263829D01*
X373129Y263847D01*
X373136Y263852D01*
X373143Y263854D01*
X373291Y263956D01*
X376262Y266927D01*
X380658Y266927D01*
X383181Y264404D01*
X383186Y264401D01*
X383189Y264396D01*
X383269Y264345D01*
X383348Y264293D01*
X383353Y264292D01*
X383358Y264289D01*
X383452Y264273D01*
X383545Y264255D01*
X383550Y264256D01*
X383555Y264255D01*
X383648Y264277D01*
X383741Y264297D01*
X383746Y264300D01*
X383751Y264301D01*
X383899Y264404D01*
X386422Y266927D01*
X390818Y266927D01*
X393927Y263818D01*
X393927Y259422D01*
X392706Y258201D01*
X392702Y258195D01*
X392696Y258190D01*
X392647Y258112D01*
X392595Y258034D01*
X392594Y258027D01*
X392590Y258020D01*
X392558Y257843D01*
X392558Y252632D01*
X349503Y209577D01*
X311532Y209577D01*
X304735Y216374D01*
X304735Y221369D01*
X304734Y221377D01*
X304735Y221385D01*
X304714Y221475D01*
X304696Y221566D01*
X304691Y221572D01*
X304689Y221580D01*
X304587Y221728D01*
X248181Y278134D01*
X248180Y278134D01*
X246097Y280217D01*
X246097Y295891D01*
X246096Y295899D01*
X246097Y295906D01*
X246076Y295996D01*
X246058Y296087D01*
X246053Y296094D01*
X246051Y296102D01*
X245949Y296250D01*
X204521Y337678D01*
X204520Y337678D01*
X202437Y339761D01*
X202437Y342298D01*
X202436Y342306D01*
X202437Y342313D01*
X202416Y342403D01*
X202398Y342494D01*
X202393Y342501D01*
X202391Y342508D01*
X202289Y342656D01*
X200433Y344512D01*
X200433Y348908D01*
X203542Y352017D01*
X207938Y352017D01*
X209191Y350763D01*
X209194Y350762D01*
X209195Y350760D01*
X209275Y350708D01*
X209358Y350653D01*
X209361Y350652D01*
X209363Y350651D01*
X209459Y350633D01*
X209555Y350615D01*
X209558Y350615D01*
X209560Y350615D01*
X209657Y350636D01*
X209751Y350657D01*
X209753Y350658D01*
X209756Y350659D01*
X209836Y350715D01*
X209916Y350771D01*
X209917Y350773D01*
X209919Y350775D01*
X209972Y350859D01*
X210023Y350940D01*
X210024Y350943D01*
X210025Y350945D01*
X210057Y351122D01*
X210057Y352523D01*
X212140Y354606D01*
X212141Y354606D01*
X213719Y356184D01*
X215802Y358268D01*
X222577Y358268D01*
X222579Y358268D01*
X222582Y358268D01*
X222677Y358288D01*
X222773Y358307D01*
X222776Y358309D01*
X222778Y358309D01*
X222858Y358365D01*
X222939Y358420D01*
X222941Y358422D01*
X222943Y358424D01*
X222996Y358507D01*
X223048Y358588D01*
X223049Y358591D01*
X223050Y358593D01*
X223067Y358689D01*
X223084Y358785D01*
X223083Y358788D01*
X223084Y358790D01*
X223062Y358885D01*
X223040Y358981D01*
X223039Y358983D01*
X223038Y358986D01*
X222936Y359134D01*
X221240Y360830D01*
X202846Y379223D01*
X202846Y392969D01*
X202833Y393036D01*
X202828Y393105D01*
X202813Y393134D01*
X202807Y393165D01*
X202768Y393222D01*
X202737Y393284D01*
X202712Y393304D01*
X202694Y393331D01*
X202636Y393368D01*
X202584Y393413D01*
X202553Y393423D01*
X202526Y393440D01*
X202458Y393452D01*
X202392Y393473D01*
X202360Y393470D01*
X202329Y393476D01*
X202261Y393461D01*
X202193Y393454D01*
X202165Y393439D01*
X202133Y393432D01*
X202077Y393392D01*
X202016Y393360D01*
X201994Y393333D01*
X201970Y393316D01*
X201943Y393273D01*
X201900Y393222D01*
X184023Y362259D01*
X182786Y363113D01*
X182759Y363124D01*
X182737Y363143D01*
X182668Y363163D01*
X182603Y363191D01*
X182574Y363191D01*
X182546Y363199D01*
X182475Y363191D01*
X182404Y363192D01*
X182377Y363180D01*
X182348Y363177D01*
X182286Y363142D01*
X182221Y363114D01*
X182200Y363094D01*
X182175Y363079D01*
X182112Y363002D01*
X182082Y362972D01*
X182078Y362962D01*
X182069Y362951D01*
X172569Y346451D01*
X172545Y346378D01*
X172514Y346308D01*
X172514Y346284D01*
X172506Y346262D01*
X172513Y346186D01*
X172512Y346109D01*
X172521Y346085D01*
X172522Y346064D01*
X172543Y346025D01*
X172562Y345973D01*
X172563Y345967D01*
X172565Y345965D01*
X172569Y345953D01*
X182069Y329453D01*
X182088Y329431D01*
X182101Y329405D01*
X182154Y329357D01*
X182201Y329304D01*
X182227Y329291D01*
X182249Y329272D01*
X182316Y329249D01*
X182380Y329218D01*
X182409Y329217D01*
X182436Y329207D01*
X182508Y329212D01*
X182579Y329209D01*
X182606Y329219D01*
X182635Y329221D01*
X182725Y329263D01*
X182765Y329278D01*
X182773Y329285D01*
X182786Y329291D01*
X184023Y330145D01*
X202915Y297424D01*
X202972Y297359D01*
X203026Y297291D01*
X203038Y297284D01*
X203047Y297273D01*
X203125Y297236D01*
X203201Y297194D01*
X203215Y297192D01*
X203228Y297186D01*
X203314Y297182D01*
X203400Y297172D01*
X203415Y297176D01*
X203428Y297176D01*
X203480Y297194D01*
X203574Y297220D01*
X204812Y297816D01*
X204868Y297859D01*
X204929Y297894D01*
X204949Y297920D01*
X204972Y297937D01*
X204998Y297982D01*
X205040Y298036D01*
X205043Y298041D01*
X205663Y298232D01*
X205693Y298248D01*
X205733Y298259D01*
X206318Y298541D01*
X206323Y298539D01*
X206393Y298529D01*
X206462Y298511D01*
X206494Y298515D01*
X206522Y298511D01*
X206572Y298525D01*
X206640Y298533D01*
X208907Y299231D01*
X208969Y299265D01*
X209034Y299291D01*
X209058Y299314D01*
X209083Y299327D01*
X209115Y299367D01*
X209165Y299415D01*
X209169Y299419D01*
X209810Y299516D01*
X209843Y299527D01*
X209884Y299532D01*
X210504Y299724D01*
X210509Y299721D01*
X210533Y299714D01*
X210543Y299708D01*
X210569Y299703D01*
X210577Y299701D01*
X210642Y299673D01*
X210674Y299672D01*
X210701Y299664D01*
X210753Y299670D01*
X210822Y299668D01*
X213167Y300020D01*
X213233Y300044D01*
X213302Y300061D01*
X213329Y300079D01*
X213355Y300089D01*
X213393Y300124D01*
X213450Y300163D01*
X213454Y300167D01*
X214103Y300167D01*
X214137Y300174D01*
X214178Y300173D01*
X214820Y300269D01*
X214824Y300266D01*
X214888Y300236D01*
X214948Y300199D01*
X214981Y300193D01*
X215006Y300181D01*
X215058Y300179D01*
X215126Y300167D01*
X217497Y300166D01*
X217566Y300180D01*
X217637Y300185D01*
X217666Y300200D01*
X217693Y300205D01*
X217736Y300234D01*
X217798Y300265D01*
X217803Y300268D01*
X218444Y300171D01*
X218479Y300173D01*
X218520Y300165D01*
X219075Y300165D01*
X219080Y300166D01*
X219085Y300165D01*
X219179Y300186D01*
X219271Y300205D01*
X219276Y300208D01*
X219281Y300209D01*
X219359Y300264D01*
X219437Y300317D01*
X219440Y300322D01*
X219444Y300325D01*
X219495Y300406D01*
X219547Y300485D01*
X219547Y300491D01*
X219550Y300495D01*
X219582Y300673D01*
X219582Y302928D01*
X219581Y302936D01*
X219582Y302943D01*
X219561Y303033D01*
X219543Y303124D01*
X219538Y303131D01*
X219536Y303138D01*
X219434Y303286D01*
X217578Y305142D01*
X217578Y309538D01*
X220687Y312647D01*
X225083Y312647D01*
X228192Y309538D01*
X228192Y305142D01*
X226336Y303286D01*
X226332Y303280D01*
X226326Y303275D01*
X226277Y303197D01*
X226225Y303119D01*
X226224Y303112D01*
X226220Y303105D01*
X226188Y302928D01*
X226188Y298909D01*
X226206Y298818D01*
X226221Y298727D01*
X226226Y298720D01*
X226227Y298712D01*
X226280Y298635D01*
X226329Y298558D01*
X226336Y298553D01*
X226340Y298546D01*
X226382Y298519D01*
X226475Y298452D01*
X226888Y298253D01*
X226922Y298244D01*
X226958Y298225D01*
X227578Y298034D01*
X227581Y298029D01*
X227626Y297974D01*
X227664Y297914D01*
X227690Y297895D01*
X227708Y297873D01*
X227753Y297849D01*
X227809Y297809D01*
X229946Y296779D01*
X230014Y296762D01*
X230080Y296736D01*
X230113Y296736D01*
X230140Y296729D01*
X230191Y296737D01*
X230260Y296738D01*
X230265Y296739D01*
X230801Y296373D01*
X230833Y296359D01*
X230867Y296335D01*
X231452Y296053D01*
X231453Y296048D01*
X231489Y295987D01*
X231518Y295923D01*
X231541Y295900D01*
X231556Y295876D01*
X231597Y295845D01*
X231646Y295796D01*
X233605Y294460D01*
X233670Y294432D01*
X233732Y294397D01*
X233764Y294393D01*
X233790Y294382D01*
X233841Y294382D01*
X233910Y294372D01*
X233915Y294372D01*
X234391Y293931D01*
X234420Y293913D01*
X234450Y293883D01*
X234986Y293518D01*
X234987Y293512D01*
X235014Y293447D01*
X235032Y293379D01*
X235052Y293352D01*
X235063Y293327D01*
X235099Y293290D01*
X235141Y293235D01*
X236878Y291621D01*
X236938Y291584D01*
X236994Y291541D01*
X237025Y291531D01*
X237049Y291517D01*
X237100Y291509D01*
X237166Y291489D01*
X237172Y291488D01*
X237576Y290981D01*
X237603Y290958D01*
X237628Y290925D01*
X238104Y290484D01*
X238104Y290478D01*
X238120Y290409D01*
X238128Y290339D01*
X238144Y290311D01*
X238151Y290283D01*
X238181Y290242D01*
X238214Y290181D01*
X239692Y288326D01*
X239746Y288281D01*
X239794Y288229D01*
X239824Y288215D01*
X239845Y288197D01*
X239895Y288182D01*
X239957Y288153D01*
X239962Y288151D01*
X240287Y287589D01*
X240310Y287563D01*
X240329Y287526D01*
X240734Y287019D01*
X240733Y287014D01*
X240735Y286989D01*
X240734Y286984D01*
X240737Y286975D01*
X240739Y286943D01*
X240737Y286873D01*
X240748Y286842D01*
X240750Y286814D01*
X240774Y286768D01*
X240798Y286703D01*
X241983Y284649D01*
X242030Y284596D01*
X242070Y284538D01*
X242097Y284520D01*
X242115Y284499D01*
X242162Y284476D01*
X242219Y284438D01*
X242224Y284435D01*
X242461Y283831D01*
X242480Y283802D01*
X242494Y283763D01*
X242818Y283201D01*
X242817Y283196D01*
X242812Y283125D01*
X242800Y283056D01*
X242806Y283024D01*
X242804Y282996D01*
X242821Y282947D01*
X242835Y282879D01*
X243700Y280671D01*
X243738Y280612D01*
X243769Y280549D01*
X243794Y280526D01*
X243809Y280503D01*
X243851Y280474D01*
X243902Y280427D01*
X243907Y280424D01*
X244051Y279791D01*
X244066Y279760D01*
X244074Y279719D01*
X244311Y279115D01*
X244308Y279110D01*
X244293Y279041D01*
X244270Y278974D01*
X244272Y278941D01*
X244266Y278914D01*
X244273Y278874D01*
X244272Y278868D01*
X244276Y278853D01*
X244279Y278794D01*
X244806Y276482D01*
X244834Y276418D01*
X244856Y276350D01*
X244876Y276325D01*
X244888Y276299D01*
X244926Y276264D01*
X244969Y276210D01*
X244973Y276207D01*
X245022Y275560D01*
X245031Y275526D01*
X245033Y275485D01*
X245177Y274852D01*
X245174Y274847D01*
X245149Y274781D01*
X245116Y274719D01*
X245113Y274686D01*
X245103Y274660D01*
X245105Y274608D01*
X245098Y274540D01*
X245274Y272175D01*
X245293Y272107D01*
X245304Y272037D01*
X245321Y272009D01*
X245328Y271982D01*
X245360Y271942D01*
X245395Y271882D01*
X245399Y271878D01*
X245350Y271231D01*
X245355Y271196D01*
X245350Y271155D01*
X245399Y270508D01*
X245395Y270504D01*
X245360Y270442D01*
X245319Y270385D01*
X245310Y270353D01*
X245297Y270329D01*
X245291Y270277D01*
X245273Y270211D01*
X245096Y267846D01*
X245104Y267776D01*
X245105Y267705D01*
X245117Y267675D01*
X245120Y267647D01*
X245146Y267602D01*
X245172Y267538D01*
X245175Y267533D01*
X245030Y266901D01*
X245029Y266866D01*
X245019Y266826D01*
X244970Y266179D01*
X244966Y266175D01*
X244922Y266119D01*
X244873Y266069D01*
X244860Y266039D01*
X244843Y266017D01*
X244829Y265967D01*
X244802Y265904D01*
X244274Y263592D01*
X244272Y263521D01*
X244262Y263451D01*
X244269Y263420D01*
X244269Y263392D01*
X244287Y263343D01*
X244303Y263276D01*
X244305Y263271D01*
X244068Y262667D01*
X244062Y262633D01*
X244046Y262595D01*
X243901Y261962D01*
X243897Y261959D01*
X243845Y261911D01*
X243789Y261868D01*
X243772Y261841D01*
X243751Y261821D01*
X243730Y261774D01*
X243694Y261715D01*
X242827Y259508D01*
X242815Y259438D01*
X242794Y259371D01*
X242797Y259338D01*
X242792Y259311D01*
X242803Y259260D01*
X242809Y259191D01*
X242811Y259186D01*
X242486Y258624D01*
X242475Y258591D01*
X242453Y258556D01*
X242216Y257952D01*
X242211Y257950D01*
X242153Y257909D01*
X242091Y257876D01*
X242069Y257851D01*
X242046Y257835D01*
X242019Y257791D01*
X241974Y257739D01*
X240788Y255685D01*
X240765Y255618D01*
X240735Y255555D01*
X240733Y255522D01*
X240724Y255495D01*
X240728Y255444D01*
X240723Y255375D01*
X240724Y255369D01*
X240319Y254862D01*
X240303Y254831D01*
X240276Y254800D01*
X239952Y254238D01*
X239946Y254236D01*
X239883Y254205D01*
X239816Y254181D01*
X239792Y254160D01*
X239767Y254147D01*
X239733Y254108D01*
X239681Y254063D01*
X238202Y252209D01*
X238170Y252146D01*
X238130Y252088D01*
X238123Y252056D01*
X238110Y252031D01*
X238106Y251979D01*
X238091Y251912D01*
X238091Y251906D01*
X237615Y251465D01*
X237595Y251437D01*
X237564Y251410D01*
X237159Y250902D01*
X237154Y250902D01*
X237086Y250880D01*
X237017Y250867D01*
X236989Y250849D01*
X236963Y250840D01*
X236923Y250807D01*
X236865Y250770D01*
X235126Y249157D01*
X235085Y249100D01*
X235037Y249048D01*
X235026Y249017D01*
X235009Y248995D01*
X234998Y248944D01*
X234973Y248880D01*
X234972Y248874D01*
X234436Y248509D01*
X234411Y248484D01*
X234376Y248462D01*
X233901Y248020D01*
X233895Y248021D01*
X233825Y248009D01*
X233755Y248006D01*
X233725Y247993D01*
X233697Y247989D01*
X233653Y247961D01*
X233590Y247933D01*
X232470Y247170D01*
X232410Y247108D01*
X232346Y247049D01*
X232340Y247036D01*
X232330Y247026D01*
X232298Y246946D01*
X232262Y246867D01*
X232261Y246853D01*
X232256Y246840D01*
X232258Y246753D01*
X232255Y246667D01*
X232260Y246653D01*
X232261Y246640D01*
X232283Y246589D01*
X232316Y246497D01*
X251207Y213777D01*
X249889Y213153D01*
X249866Y213136D01*
X249839Y213126D01*
X249787Y213077D01*
X249729Y213034D01*
X249715Y213009D01*
X249694Y212990D01*
X249665Y212924D01*
X249629Y212862D01*
X249626Y212834D01*
X249614Y212808D01*
X249613Y212736D01*
X249604Y212665D01*
X249612Y212638D01*
X249612Y212609D01*
X249647Y212514D01*
X249658Y212474D01*
X249665Y212465D01*
X249669Y212453D01*
X259169Y195953D01*
X259221Y195895D01*
X259267Y195832D01*
X259286Y195821D01*
X259301Y195804D01*
X259371Y195770D01*
X259438Y195730D01*
X259463Y195726D01*
X259480Y195718D01*
X259525Y195716D01*
X259602Y195703D01*
X278602Y195703D01*
X278630Y195708D01*
G37*
G36*
X381307Y379224D02*
X381307Y379224D01*
X381314Y379223D01*
X381404Y379244D01*
X381495Y379262D01*
X381502Y379267D01*
X381509Y379269D01*
X381657Y379371D01*
X383492Y381206D01*
X387889Y381206D01*
X389724Y379371D01*
X389730Y379367D01*
X389735Y379361D01*
X389813Y379312D01*
X389891Y379260D01*
X389898Y379259D01*
X389905Y379255D01*
X390082Y379223D01*
X396240Y379223D01*
X396245Y379224D01*
X396250Y379223D01*
X396343Y379244D01*
X396437Y379262D01*
X396441Y379265D01*
X396446Y379266D01*
X396524Y379322D01*
X396602Y379375D01*
X396605Y379379D01*
X396609Y379382D01*
X396660Y379464D01*
X396712Y379543D01*
X396712Y379548D01*
X396715Y379553D01*
X396747Y379730D01*
X396747Y440690D01*
X396746Y440695D01*
X396747Y440700D01*
X396726Y440793D01*
X396708Y440887D01*
X396705Y440891D01*
X396704Y440896D01*
X396648Y440974D01*
X396595Y441052D01*
X396591Y441055D01*
X396588Y441059D01*
X396506Y441110D01*
X396427Y441162D01*
X396422Y441162D01*
X396417Y441165D01*
X396240Y441197D01*
X328930Y441197D01*
X328925Y441196D01*
X328920Y441197D01*
X328827Y441176D01*
X328734Y441158D01*
X328729Y441155D01*
X328724Y441154D01*
X328646Y441098D01*
X328568Y441045D01*
X328565Y441041D01*
X328561Y441038D01*
X328510Y440956D01*
X328458Y440877D01*
X328458Y440872D01*
X328455Y440867D01*
X328423Y440690D01*
X328423Y439547D01*
X328424Y439542D01*
X328423Y439537D01*
X328444Y439444D01*
X328462Y439350D01*
X328465Y439346D01*
X328466Y439341D01*
X328522Y439263D01*
X328575Y439185D01*
X328579Y439182D01*
X328582Y439178D01*
X328664Y439127D01*
X328743Y439075D01*
X328748Y439075D01*
X328753Y439072D01*
X328930Y439040D01*
X329689Y439040D01*
X330582Y438147D01*
X330582Y428501D01*
X329689Y427608D01*
X328930Y427608D01*
X328925Y427607D01*
X328920Y427608D01*
X328827Y427587D01*
X328734Y427569D01*
X328729Y427566D01*
X328724Y427565D01*
X328646Y427509D01*
X328568Y427456D01*
X328565Y427452D01*
X328561Y427449D01*
X328510Y427367D01*
X328458Y427288D01*
X328458Y427283D01*
X328455Y427278D01*
X328423Y427101D01*
X328423Y393319D01*
X328424Y393314D01*
X328423Y393309D01*
X328444Y393216D01*
X328462Y393122D01*
X328465Y393118D01*
X328466Y393113D01*
X328522Y393035D01*
X328575Y392957D01*
X328579Y392954D01*
X328582Y392950D01*
X328664Y392899D01*
X328743Y392847D01*
X328748Y392847D01*
X328753Y392844D01*
X328930Y392812D01*
X329689Y392812D01*
X330582Y391919D01*
X330582Y382273D01*
X329689Y381380D01*
X328930Y381380D01*
X328925Y381379D01*
X328920Y381380D01*
X328827Y381359D01*
X328734Y381341D01*
X328729Y381338D01*
X328724Y381337D01*
X328646Y381281D01*
X328568Y381228D01*
X328565Y381224D01*
X328561Y381221D01*
X328510Y381139D01*
X328458Y381060D01*
X328458Y381055D01*
X328455Y381050D01*
X328423Y380873D01*
X328423Y379730D01*
X328424Y379725D01*
X328423Y379720D01*
X328444Y379627D01*
X328462Y379534D01*
X328465Y379529D01*
X328466Y379524D01*
X328522Y379446D01*
X328575Y379368D01*
X328579Y379365D01*
X328582Y379361D01*
X328664Y379310D01*
X328743Y379258D01*
X328748Y379258D01*
X328753Y379255D01*
X328930Y379223D01*
X381299Y379223D01*
X381307Y379224D01*
G37*
%LPC*%
G36*
X463523Y309595D02*
X463523Y309595D01*
X462630Y310488D01*
X462630Y327052D01*
X463523Y327945D01*
X467995Y327945D01*
X468000Y327946D01*
X468005Y327945D01*
X468098Y327966D01*
X468192Y327984D01*
X468196Y327987D01*
X468201Y327988D01*
X468279Y328044D01*
X468357Y328097D01*
X468360Y328101D01*
X468364Y328104D01*
X468415Y328186D01*
X468467Y328265D01*
X468467Y328270D01*
X468470Y328275D01*
X468502Y328452D01*
X468502Y331461D01*
X468501Y331469D01*
X468502Y331477D01*
X468481Y331567D01*
X468463Y331658D01*
X468458Y331664D01*
X468456Y331672D01*
X468354Y331820D01*
X421440Y378734D01*
X419357Y380817D01*
X419357Y398232D01*
X419355Y398239D01*
X419356Y398247D01*
X419336Y398337D01*
X419317Y398428D01*
X419313Y398435D01*
X419311Y398442D01*
X419208Y398590D01*
X411649Y406149D01*
X411643Y406154D01*
X411638Y406160D01*
X411560Y406209D01*
X411482Y406260D01*
X411475Y406262D01*
X411468Y406266D01*
X411291Y406298D01*
X402808Y406298D01*
X401915Y407191D01*
X401915Y418454D01*
X402808Y419347D01*
X415072Y419347D01*
X415965Y418454D01*
X415965Y411385D01*
X415966Y411378D01*
X415965Y411370D01*
X415986Y411280D01*
X416004Y411189D01*
X416009Y411182D01*
X416011Y411175D01*
X416113Y411027D01*
X423879Y403261D01*
X425091Y402049D01*
X425094Y402047D01*
X425095Y402045D01*
X425175Y401993D01*
X425258Y401938D01*
X425261Y401937D01*
X425263Y401936D01*
X425359Y401918D01*
X425455Y401900D01*
X425458Y401901D01*
X425460Y401900D01*
X425557Y401922D01*
X425651Y401942D01*
X425653Y401943D01*
X425656Y401944D01*
X425736Y402000D01*
X425816Y402056D01*
X425817Y402058D01*
X425819Y402060D01*
X425872Y402144D01*
X425923Y402225D01*
X425924Y402228D01*
X425925Y402230D01*
X425957Y402407D01*
X425957Y432917D01*
X425956Y432925D01*
X425957Y432932D01*
X425936Y433022D01*
X425918Y433113D01*
X425913Y433120D01*
X425911Y433128D01*
X425809Y433276D01*
X404391Y454694D01*
X404384Y454698D01*
X404380Y454704D01*
X404301Y454753D01*
X404224Y454805D01*
X404216Y454806D01*
X404209Y454810D01*
X404032Y454842D01*
X389536Y454842D01*
X389522Y454839D01*
X389506Y454841D01*
X388228Y454764D01*
X388154Y454810D01*
X388145Y454812D01*
X388139Y454815D01*
X388091Y454821D01*
X388069Y454825D01*
X387167Y455728D01*
X387155Y455736D01*
X387145Y455749D01*
X380675Y461478D01*
X380595Y461524D01*
X380516Y461573D01*
X380508Y461575D01*
X380502Y461578D01*
X380453Y461585D01*
X380339Y461605D01*
X371956Y461605D01*
X371951Y461604D01*
X371946Y461605D01*
X371853Y461584D01*
X371759Y461566D01*
X371755Y461563D01*
X371750Y461562D01*
X371672Y461506D01*
X371594Y461453D01*
X371591Y461449D01*
X371586Y461446D01*
X371536Y461364D01*
X371484Y461285D01*
X371483Y461280D01*
X371481Y461275D01*
X371449Y461098D01*
X371449Y459447D01*
X368340Y456338D01*
X363944Y456338D01*
X360835Y459447D01*
X360835Y463843D01*
X363944Y466952D01*
X366568Y466952D01*
X366576Y466953D01*
X366583Y466952D01*
X366673Y466973D01*
X366764Y466991D01*
X366771Y466996D01*
X366778Y466998D01*
X366926Y467100D01*
X370907Y471081D01*
X370911Y471087D01*
X370917Y471092D01*
X370966Y471170D01*
X371018Y471248D01*
X371019Y471255D01*
X371023Y471262D01*
X371055Y471439D01*
X371055Y474762D01*
X371948Y475655D01*
X383212Y475655D01*
X384105Y474762D01*
X384105Y467492D01*
X384109Y467469D01*
X384107Y467446D01*
X384129Y467372D01*
X384144Y467296D01*
X384157Y467276D01*
X384164Y467254D01*
X384226Y467176D01*
X384257Y467130D01*
X384267Y467123D01*
X384276Y467112D01*
X387212Y464512D01*
X387288Y464468D01*
X387361Y464421D01*
X387374Y464418D01*
X387385Y464412D01*
X387472Y464401D01*
X387558Y464385D01*
X387571Y464388D01*
X387584Y464386D01*
X387668Y464409D01*
X387754Y464429D01*
X387765Y464436D01*
X387777Y464440D01*
X387846Y464494D01*
X387917Y464545D01*
X387924Y464556D01*
X387935Y464564D01*
X387977Y464641D01*
X388023Y464715D01*
X388026Y464728D01*
X388032Y464739D01*
X388038Y464794D01*
X388055Y464892D01*
X388055Y474762D01*
X388948Y475655D01*
X397615Y475655D01*
X397622Y475656D01*
X397630Y475655D01*
X397720Y475676D01*
X397811Y475694D01*
X397818Y475699D01*
X397825Y475701D01*
X397973Y475803D01*
X401195Y479025D01*
X401200Y479032D01*
X401206Y479036D01*
X401255Y479115D01*
X401306Y479192D01*
X401308Y479200D01*
X401312Y479206D01*
X401344Y479384D01*
X401344Y482008D01*
X404452Y485116D01*
X408849Y485116D01*
X411957Y482008D01*
X411957Y477611D01*
X408849Y474503D01*
X406225Y474503D01*
X406217Y474501D01*
X406209Y474503D01*
X406119Y474482D01*
X406028Y474463D01*
X406022Y474459D01*
X406014Y474457D01*
X405866Y474354D01*
X401253Y469742D01*
X401249Y469735D01*
X401243Y469731D01*
X401194Y469652D01*
X401142Y469575D01*
X401141Y469567D01*
X401137Y469560D01*
X401105Y469383D01*
X401105Y462498D01*
X400920Y462314D01*
X400918Y462311D01*
X400916Y462310D01*
X400863Y462229D01*
X400809Y462147D01*
X400808Y462144D01*
X400807Y462142D01*
X400790Y462046D01*
X400771Y461950D01*
X400772Y461947D01*
X400771Y461945D01*
X400793Y461848D01*
X400813Y461754D01*
X400814Y461752D01*
X400815Y461749D01*
X400872Y461668D01*
X400927Y461589D01*
X400929Y461588D01*
X400931Y461585D01*
X401015Y461533D01*
X401096Y461481D01*
X401099Y461481D01*
X401101Y461480D01*
X401278Y461448D01*
X406978Y461448D01*
X432563Y435863D01*
X432563Y386071D01*
X432564Y386063D01*
X432563Y386055D01*
X432584Y385965D01*
X432602Y385874D01*
X432607Y385868D01*
X432609Y385860D01*
X432711Y385712D01*
X464208Y354215D01*
X464211Y354213D01*
X464212Y354211D01*
X464293Y354159D01*
X464375Y354104D01*
X464378Y354103D01*
X464380Y354102D01*
X464476Y354085D01*
X464572Y354066D01*
X464575Y354067D01*
X464577Y354066D01*
X464674Y354088D01*
X464768Y354108D01*
X464770Y354109D01*
X464773Y354110D01*
X464853Y354167D01*
X464933Y354222D01*
X464934Y354224D01*
X464937Y354226D01*
X464988Y354309D01*
X465040Y354391D01*
X465041Y354394D01*
X465042Y354396D01*
X465074Y354574D01*
X465074Y360243D01*
X467432Y362601D01*
X481766Y362601D01*
X484124Y360243D01*
X484124Y351909D01*
X481766Y349552D01*
X478409Y349552D01*
X478404Y349551D01*
X478399Y349551D01*
X478306Y349531D01*
X478212Y349512D01*
X478208Y349509D01*
X478203Y349508D01*
X478125Y349453D01*
X478047Y349399D01*
X478044Y349395D01*
X478040Y349392D01*
X477989Y349310D01*
X477937Y349231D01*
X477937Y349226D01*
X477934Y349222D01*
X477902Y349044D01*
X477902Y348646D01*
X477903Y348638D01*
X477902Y348630D01*
X477923Y348540D01*
X477941Y348449D01*
X477946Y348443D01*
X477948Y348435D01*
X478050Y348287D01*
X479175Y347162D01*
X479175Y342766D01*
X476067Y339657D01*
X471671Y339657D01*
X469815Y341512D01*
X469809Y341517D01*
X469804Y341523D01*
X469725Y341572D01*
X469648Y341623D01*
X469641Y341625D01*
X469634Y341629D01*
X469457Y341661D01*
X469079Y341661D01*
X469076Y341660D01*
X469074Y341661D01*
X468979Y341641D01*
X468882Y341621D01*
X468880Y341620D01*
X468877Y341619D01*
X468797Y341563D01*
X468716Y341509D01*
X468715Y341507D01*
X468713Y341505D01*
X468660Y341421D01*
X468607Y341341D01*
X468607Y341338D01*
X468605Y341336D01*
X468589Y341239D01*
X468572Y341143D01*
X468572Y341141D01*
X468572Y341138D01*
X468594Y341045D01*
X468615Y340948D01*
X468617Y340946D01*
X468617Y340943D01*
X468720Y340795D01*
X475108Y334407D01*
X475108Y328452D01*
X475109Y328447D01*
X475108Y328442D01*
X475129Y328349D01*
X475147Y328255D01*
X475150Y328251D01*
X475151Y328246D01*
X475207Y328168D01*
X475260Y328090D01*
X475264Y328087D01*
X475267Y328083D01*
X475349Y328032D01*
X475428Y327980D01*
X475433Y327980D01*
X475438Y327977D01*
X475615Y327945D01*
X480087Y327945D01*
X480980Y327052D01*
X480980Y310488D01*
X480087Y309595D01*
X463523Y309595D01*
G37*
%LPD*%
G36*
X478143Y393769D02*
X478143Y393769D01*
X478186Y393768D01*
X482179Y394369D01*
X482209Y394380D01*
X482252Y394385D01*
X486111Y395574D01*
X486139Y395589D01*
X486180Y395601D01*
X489818Y397352D01*
X489840Y397369D01*
X489866Y397378D01*
X489919Y397428D01*
X489977Y397472D01*
X489990Y397496D01*
X490010Y397515D01*
X490040Y397581D01*
X490076Y397645D01*
X490079Y397672D01*
X490090Y397697D01*
X490091Y397770D01*
X490100Y397842D01*
X490092Y397868D01*
X490092Y397896D01*
X490056Y397994D01*
X490044Y398033D01*
X490038Y398041D01*
X490034Y398052D01*
X463034Y444852D01*
X463016Y444872D01*
X463005Y444897D01*
X462951Y444946D01*
X462903Y445001D01*
X462878Y445012D01*
X462858Y445031D01*
X462789Y445055D01*
X462723Y445086D01*
X462696Y445088D01*
X462671Y445097D01*
X462598Y445092D01*
X462525Y445095D01*
X462499Y445086D01*
X462472Y445084D01*
X462376Y445040D01*
X462338Y445026D01*
X462331Y445019D01*
X462321Y445015D01*
X458984Y442741D01*
X458962Y442718D01*
X458926Y442695D01*
X455965Y439949D01*
X455946Y439923D01*
X455914Y439895D01*
X453396Y436739D01*
X453381Y436710D01*
X453354Y436677D01*
X451334Y433181D01*
X451324Y433151D01*
X451301Y433114D01*
X449825Y429356D01*
X449820Y429324D01*
X449803Y429284D01*
X448903Y425348D01*
X448903Y425316D01*
X448892Y425274D01*
X448589Y421248D01*
X448592Y421225D01*
X448589Y421205D01*
X448591Y421195D01*
X448589Y421174D01*
X448890Y417147D01*
X448898Y417116D01*
X448901Y417073D01*
X449798Y413137D01*
X449811Y413108D01*
X449820Y413065D01*
X451294Y409306D01*
X451311Y409279D01*
X451326Y409239D01*
X453344Y405742D01*
X453365Y405718D01*
X453386Y405680D01*
X455902Y402522D01*
X455927Y402502D01*
X455953Y402468D01*
X458912Y399720D01*
X458939Y399704D01*
X458970Y399674D01*
X462306Y397398D01*
X462335Y397386D01*
X462370Y397361D01*
X466008Y395608D01*
X466038Y395600D01*
X466077Y395581D01*
X469935Y394389D01*
X469967Y394386D01*
X470008Y394373D01*
X474000Y393770D01*
X474032Y393771D01*
X474074Y393764D01*
X478112Y393763D01*
X478143Y393769D01*
G37*
G36*
X218330Y393764D02*
X218330Y393764D01*
X218361Y393770D01*
X218404Y393770D01*
X222396Y394373D01*
X222426Y394384D01*
X222469Y394389D01*
X226327Y395581D01*
X226355Y395596D01*
X226397Y395608D01*
X230034Y397361D01*
X230059Y397380D01*
X230098Y397398D01*
X233434Y399674D01*
X233456Y399697D01*
X233492Y399720D01*
X236451Y402468D01*
X236470Y402493D01*
X236502Y402522D01*
X239018Y405680D01*
X239033Y405708D01*
X239060Y405742D01*
X241078Y409239D01*
X241088Y409269D01*
X241110Y409306D01*
X242584Y413065D01*
X242590Y413097D01*
X242606Y413137D01*
X243503Y417073D01*
X243504Y417105D01*
X243514Y417147D01*
X243815Y421174D01*
X243811Y421205D01*
X243812Y421221D01*
X243815Y421238D01*
X243814Y421242D01*
X243815Y421248D01*
X243512Y425274D01*
X243503Y425305D01*
X243501Y425348D01*
X242601Y429284D01*
X242588Y429313D01*
X242579Y429356D01*
X241103Y433114D01*
X241085Y433141D01*
X241070Y433181D01*
X239050Y436677D01*
X239029Y436701D01*
X239008Y436739D01*
X236490Y439895D01*
X236465Y439915D01*
X236439Y439949D01*
X233478Y442695D01*
X233451Y442711D01*
X233420Y442741D01*
X230083Y445015D01*
X230058Y445025D01*
X230037Y445042D01*
X229967Y445063D01*
X229900Y445092D01*
X229872Y445092D01*
X229846Y445099D01*
X229774Y445091D01*
X229701Y445091D01*
X229676Y445080D01*
X229649Y445077D01*
X229585Y445041D01*
X229518Y445013D01*
X229499Y444993D01*
X229476Y444980D01*
X229409Y444899D01*
X229380Y444869D01*
X229377Y444860D01*
X229370Y444852D01*
X202370Y398052D01*
X202361Y398026D01*
X202345Y398003D01*
X202330Y397932D01*
X202306Y397863D01*
X202309Y397836D01*
X202303Y397809D01*
X202316Y397738D01*
X202322Y397665D01*
X202335Y397640D01*
X202340Y397614D01*
X202380Y397553D01*
X202414Y397488D01*
X202435Y397471D01*
X202450Y397448D01*
X202536Y397387D01*
X202567Y397362D01*
X202576Y397359D01*
X202586Y397352D01*
X206224Y395601D01*
X206255Y395594D01*
X206293Y395574D01*
X210152Y394385D01*
X210184Y394382D01*
X210225Y394369D01*
X214218Y393768D01*
X214249Y393770D01*
X214292Y393763D01*
X218330Y393764D01*
G37*
G36*
X462630Y247313D02*
X462630Y247313D01*
X462703Y247313D01*
X462728Y247324D01*
X462755Y247327D01*
X462819Y247363D01*
X462886Y247391D01*
X462905Y247411D01*
X462928Y247424D01*
X462996Y247505D01*
X463024Y247535D01*
X463027Y247544D01*
X463034Y247553D01*
X490034Y294353D01*
X490043Y294378D01*
X490059Y294401D01*
X490074Y294472D01*
X490098Y294541D01*
X490095Y294568D01*
X490101Y294595D01*
X490088Y294666D01*
X490082Y294739D01*
X490069Y294764D01*
X490064Y294790D01*
X490024Y294851D01*
X489990Y294916D01*
X489969Y294933D01*
X489954Y294956D01*
X489868Y295017D01*
X489837Y295042D01*
X489828Y295045D01*
X489818Y295052D01*
X486180Y296803D01*
X486149Y296810D01*
X486111Y296830D01*
X482252Y298019D01*
X482220Y298022D01*
X482179Y298035D01*
X478186Y298636D01*
X478155Y298634D01*
X478112Y298641D01*
X474074Y298640D01*
X474043Y298634D01*
X474000Y298634D01*
X470008Y298031D01*
X469978Y298020D01*
X469935Y298015D01*
X466077Y296823D01*
X466049Y296808D01*
X466008Y296796D01*
X462370Y295043D01*
X462345Y295024D01*
X462306Y295006D01*
X458970Y292730D01*
X458948Y292707D01*
X458912Y292684D01*
X455953Y289936D01*
X455934Y289911D01*
X455902Y289882D01*
X453386Y286724D01*
X453371Y286696D01*
X453344Y286662D01*
X451326Y283165D01*
X451316Y283135D01*
X451294Y283098D01*
X449820Y279339D01*
X449814Y279307D01*
X449798Y279267D01*
X448901Y275331D01*
X448900Y275299D01*
X448890Y275257D01*
X448589Y271231D01*
X448593Y271199D01*
X448589Y271156D01*
X448892Y267130D01*
X448901Y267099D01*
X448903Y267056D01*
X449803Y263120D01*
X449816Y263091D01*
X449825Y263048D01*
X451301Y259290D01*
X451319Y259263D01*
X451334Y259223D01*
X453354Y255727D01*
X453375Y255703D01*
X453396Y255665D01*
X455914Y252509D01*
X455939Y252489D01*
X455965Y252455D01*
X458926Y249709D01*
X458953Y249693D01*
X458984Y249663D01*
X462321Y247389D01*
X462346Y247379D01*
X462367Y247362D01*
X462437Y247341D01*
X462504Y247312D01*
X462532Y247313D01*
X462558Y247305D01*
X462630Y247313D01*
G37*
G36*
X229806Y247312D02*
X229806Y247312D01*
X229879Y247309D01*
X229905Y247318D01*
X229932Y247320D01*
X230028Y247364D01*
X230066Y247378D01*
X230073Y247385D01*
X230083Y247389D01*
X233420Y249663D01*
X233442Y249686D01*
X233478Y249709D01*
X236439Y252455D01*
X236458Y252481D01*
X236490Y252509D01*
X239008Y255665D01*
X239023Y255694D01*
X239050Y255727D01*
X241070Y259223D01*
X241080Y259253D01*
X241103Y259290D01*
X242579Y263048D01*
X242584Y263080D01*
X242601Y263120D01*
X243501Y267056D01*
X243501Y267088D01*
X243512Y267130D01*
X243815Y271156D01*
X243811Y271187D01*
X243815Y271231D01*
X243514Y275257D01*
X243506Y275288D01*
X243503Y275331D01*
X242606Y279267D01*
X242593Y279296D01*
X242584Y279339D01*
X241110Y283098D01*
X241093Y283125D01*
X241078Y283165D01*
X239060Y286662D01*
X239039Y286686D01*
X239018Y286724D01*
X236502Y289882D01*
X236477Y289902D01*
X236451Y289936D01*
X233492Y292684D01*
X233465Y292700D01*
X233434Y292730D01*
X230098Y295006D01*
X230069Y295018D01*
X230034Y295043D01*
X226397Y296796D01*
X226366Y296804D01*
X226327Y296823D01*
X222469Y298015D01*
X222437Y298018D01*
X222396Y298031D01*
X218404Y298634D01*
X218372Y298633D01*
X218330Y298640D01*
X214292Y298641D01*
X214261Y298635D01*
X214218Y298636D01*
X210225Y298035D01*
X210195Y298024D01*
X210152Y298019D01*
X206293Y296830D01*
X206265Y296815D01*
X206224Y296803D01*
X202586Y295052D01*
X202564Y295035D01*
X202538Y295026D01*
X202485Y294976D01*
X202427Y294932D01*
X202414Y294908D01*
X202394Y294889D01*
X202364Y294823D01*
X202328Y294759D01*
X202325Y294732D01*
X202314Y294707D01*
X202313Y294634D01*
X202304Y294562D01*
X202312Y294536D01*
X202312Y294508D01*
X202348Y294410D01*
X202360Y294371D01*
X202366Y294363D01*
X202370Y294353D01*
X229370Y247553D01*
X229388Y247532D01*
X229399Y247507D01*
X229453Y247458D01*
X229501Y247404D01*
X229526Y247392D01*
X229546Y247373D01*
X229615Y247349D01*
X229681Y247318D01*
X229708Y247317D01*
X229733Y247307D01*
X229806Y247312D01*
G37*
G36*
X348251Y468785D02*
X348251Y468785D01*
X348294Y468784D01*
X352284Y469385D01*
X352314Y469396D01*
X352357Y469402D01*
X356213Y470591D01*
X356241Y470607D01*
X356283Y470619D01*
X359919Y472370D01*
X359944Y472389D01*
X359983Y472407D01*
X363317Y474680D01*
X363340Y474703D01*
X363376Y474727D01*
X366334Y477471D01*
X366353Y477497D01*
X366385Y477526D01*
X368901Y480681D01*
X368915Y480709D01*
X368943Y480743D01*
X370961Y484238D01*
X370971Y484268D01*
X370993Y484305D01*
X372467Y488061D01*
X372468Y488068D01*
X372470Y488069D01*
X372474Y488096D01*
X372489Y488133D01*
X373387Y492067D01*
X373388Y492099D01*
X373398Y492141D01*
X373700Y496165D01*
X373696Y496192D01*
X373701Y496219D01*
X373684Y496289D01*
X373675Y496362D01*
X373661Y496386D01*
X373655Y496412D01*
X373612Y496471D01*
X373575Y496534D01*
X373553Y496550D01*
X373537Y496572D01*
X373474Y496609D01*
X373416Y496653D01*
X373389Y496660D01*
X373366Y496674D01*
X373262Y496691D01*
X373223Y496701D01*
X373213Y496699D01*
X373202Y496701D01*
X319202Y496701D01*
X319175Y496696D01*
X319148Y496698D01*
X319079Y496676D01*
X319007Y496662D01*
X318985Y496646D01*
X318959Y496638D01*
X318903Y496590D01*
X318843Y496549D01*
X318829Y496526D01*
X318808Y496508D01*
X318776Y496443D01*
X318736Y496382D01*
X318732Y496355D01*
X318720Y496330D01*
X318710Y496226D01*
X318703Y496185D01*
X318705Y496176D01*
X318704Y496165D01*
X319006Y492141D01*
X319014Y492110D01*
X319017Y492067D01*
X319915Y488133D01*
X319928Y488104D01*
X319937Y488061D01*
X321411Y484305D01*
X321428Y484278D01*
X321443Y484238D01*
X323461Y480743D01*
X323482Y480719D01*
X323503Y480681D01*
X326019Y477526D01*
X326044Y477506D01*
X326070Y477471D01*
X329028Y474727D01*
X329055Y474710D01*
X329087Y474680D01*
X332421Y472407D01*
X332450Y472394D01*
X332485Y472370D01*
X336121Y470619D01*
X336152Y470611D01*
X336191Y470591D01*
X340047Y469402D01*
X340078Y469399D01*
X340120Y469385D01*
X344110Y468784D01*
X344142Y468785D01*
X344184Y468778D01*
X348220Y468778D01*
X348251Y468785D01*
G37*
%LPC*%
G36*
X410428Y235555D02*
X410428Y235555D01*
X409535Y236448D01*
X409535Y247712D01*
X410428Y248605D01*
X419901Y248605D01*
X419904Y248605D01*
X419907Y248605D01*
X420002Y248625D01*
X420098Y248644D01*
X420100Y248646D01*
X420103Y248647D01*
X420253Y248747D01*
X429930Y258073D01*
X429937Y258083D01*
X429947Y258090D01*
X429994Y258165D01*
X430044Y258238D01*
X430047Y258250D01*
X430053Y258261D01*
X430080Y258409D01*
X430085Y258434D01*
X430085Y258436D01*
X430085Y258438D01*
X430085Y263592D01*
X430978Y264485D01*
X440242Y264485D01*
X441135Y263592D01*
X441135Y254328D01*
X440242Y253435D01*
X434841Y253435D01*
X434838Y253435D01*
X434835Y253435D01*
X434740Y253415D01*
X434645Y253396D01*
X434642Y253394D01*
X434639Y253393D01*
X434489Y253293D01*
X423740Y242933D01*
X423733Y242923D01*
X423723Y242916D01*
X423676Y242841D01*
X423626Y242769D01*
X423623Y242756D01*
X423617Y242746D01*
X423590Y242597D01*
X423585Y242572D01*
X423585Y242570D01*
X423585Y242568D01*
X423585Y236448D01*
X422692Y235555D01*
X410428Y235555D01*
G37*
%LPD*%
%LPC*%
G36*
X438492Y433478D02*
X438492Y433478D01*
X435383Y436587D01*
X435383Y440983D01*
X436827Y442427D01*
X436832Y442434D01*
X436838Y442438D01*
X436887Y442517D01*
X436938Y442594D01*
X436940Y442602D01*
X436944Y442608D01*
X436976Y442786D01*
X436976Y445520D01*
X436975Y445525D01*
X436976Y445530D01*
X436955Y445623D01*
X436936Y445716D01*
X436933Y445721D01*
X436932Y445726D01*
X436877Y445804D01*
X436824Y445882D01*
X436819Y445885D01*
X436816Y445889D01*
X436735Y445940D01*
X436655Y445991D01*
X436650Y445992D01*
X436646Y445995D01*
X436469Y446027D01*
X433111Y446027D01*
X430754Y448385D01*
X430754Y456719D01*
X433111Y459077D01*
X447446Y459077D01*
X449803Y456719D01*
X449803Y448385D01*
X447446Y446027D01*
X444088Y446027D01*
X444083Y446026D01*
X444078Y446027D01*
X443985Y446006D01*
X443892Y445988D01*
X443888Y445985D01*
X443883Y445983D01*
X443805Y445928D01*
X443726Y445875D01*
X443723Y445870D01*
X443719Y445867D01*
X443668Y445786D01*
X443617Y445707D01*
X443616Y445702D01*
X443613Y445697D01*
X443581Y445520D01*
X443581Y443609D01*
X443583Y443601D01*
X443581Y443593D01*
X443602Y443503D01*
X443621Y443412D01*
X443625Y443406D01*
X443627Y443398D01*
X443730Y443250D01*
X445997Y440983D01*
X445997Y436587D01*
X442888Y433478D01*
X438492Y433478D01*
G37*
%LPD*%
%LPC*%
G36*
X301570Y455247D02*
X301570Y455247D01*
X299183Y457634D01*
X299173Y457684D01*
X299171Y457687D01*
X299171Y457689D01*
X299115Y457770D01*
X299060Y457850D01*
X299058Y457852D01*
X299056Y457854D01*
X298973Y457907D01*
X298892Y457959D01*
X298889Y457960D01*
X298887Y457961D01*
X298791Y457978D01*
X298695Y457995D01*
X298692Y457994D01*
X298690Y457995D01*
X298595Y457973D01*
X298499Y457951D01*
X298497Y457950D01*
X298494Y457949D01*
X298346Y457847D01*
X296838Y456338D01*
X292442Y456338D01*
X289333Y459447D01*
X289333Y463843D01*
X292442Y466952D01*
X296838Y466952D01*
X298346Y465443D01*
X298349Y465442D01*
X298350Y465440D01*
X298431Y465387D01*
X298513Y465333D01*
X298516Y465332D01*
X298518Y465331D01*
X298614Y465313D01*
X298710Y465295D01*
X298713Y465295D01*
X298715Y465295D01*
X298812Y465316D01*
X298906Y465337D01*
X298908Y465338D01*
X298911Y465339D01*
X298991Y465395D01*
X299071Y465451D01*
X299072Y465453D01*
X299075Y465455D01*
X299127Y465538D01*
X299178Y465620D01*
X299179Y465623D01*
X299180Y465625D01*
X299212Y465802D01*
X299212Y465939D01*
X301570Y468297D01*
X315904Y468297D01*
X318262Y465939D01*
X318262Y457605D01*
X315904Y455247D01*
X301570Y455247D01*
G37*
%LPD*%
%LPC*%
G36*
X408012Y341883D02*
X408012Y341883D01*
X404903Y344992D01*
X404903Y349388D01*
X408012Y352497D01*
X410636Y352497D01*
X410644Y352498D01*
X410651Y352497D01*
X410741Y352518D01*
X410832Y352536D01*
X410839Y352541D01*
X410847Y352543D01*
X410995Y352645D01*
X414482Y356133D01*
X414484Y356135D01*
X414486Y356139D01*
X414493Y356144D01*
X414542Y356222D01*
X414593Y356300D01*
X414594Y356307D01*
X414598Y356314D01*
X414630Y356491D01*
X414630Y362243D01*
X415524Y363136D01*
X427787Y363136D01*
X428680Y362243D01*
X428680Y350980D01*
X427787Y350087D01*
X417988Y350087D01*
X417980Y350085D01*
X417972Y350086D01*
X417882Y350065D01*
X417791Y350047D01*
X417784Y350043D01*
X417777Y350041D01*
X417629Y349938D01*
X415665Y347975D01*
X415661Y347968D01*
X415655Y347963D01*
X415606Y347885D01*
X415554Y347808D01*
X415553Y347800D01*
X415549Y347793D01*
X415517Y347616D01*
X415517Y344992D01*
X412408Y341883D01*
X408012Y341883D01*
G37*
%LPD*%
%LPC*%
G36*
X444580Y309595D02*
X444580Y309595D01*
X441208Y310992D01*
X438627Y313573D01*
X437230Y316945D01*
X437230Y320595D01*
X438627Y323967D01*
X441208Y326548D01*
X441333Y326600D01*
X442558Y327107D01*
X443782Y327614D01*
X444580Y327945D01*
X448230Y327945D01*
X451602Y326548D01*
X454183Y323967D01*
X455580Y320595D01*
X455580Y316945D01*
X454183Y313573D01*
X451602Y310992D01*
X451129Y310796D01*
X451128Y310796D01*
X449904Y310289D01*
X448679Y309781D01*
X448230Y309595D01*
X444580Y309595D01*
G37*
%LPD*%
%LPC*%
G36*
X402646Y381212D02*
X402646Y381212D01*
X401753Y382106D01*
X401753Y393369D01*
X401861Y393477D01*
X401864Y393482D01*
X401869Y393485D01*
X401920Y393566D01*
X401972Y393644D01*
X401973Y393649D01*
X401976Y393654D01*
X401992Y393748D01*
X402010Y393841D01*
X402009Y393846D01*
X402010Y393852D01*
X401988Y393944D01*
X401968Y394037D01*
X401965Y394042D01*
X401964Y394047D01*
X401861Y394195D01*
X400049Y396007D01*
X400049Y400403D01*
X403158Y403512D01*
X407554Y403512D01*
X410663Y400403D01*
X410663Y396007D01*
X409784Y395128D01*
X409782Y395126D01*
X409780Y395124D01*
X409728Y395044D01*
X409673Y394961D01*
X409672Y394958D01*
X409671Y394956D01*
X409654Y394860D01*
X409635Y394764D01*
X409636Y394761D01*
X409635Y394759D01*
X409657Y394661D01*
X409677Y394568D01*
X409678Y394566D01*
X409679Y394563D01*
X409735Y394484D01*
X409791Y394403D01*
X409793Y394402D01*
X409795Y394400D01*
X409878Y394348D01*
X409960Y394296D01*
X409963Y394295D01*
X409965Y394294D01*
X410142Y394262D01*
X414909Y394262D01*
X415802Y393369D01*
X415802Y382106D01*
X414909Y381212D01*
X402646Y381212D01*
G37*
%LPD*%
%LPC*%
G36*
X269582Y230913D02*
X269582Y230913D01*
X266473Y234022D01*
X266473Y236646D01*
X266472Y236654D01*
X266473Y236661D01*
X266452Y236751D01*
X266434Y236842D01*
X266429Y236849D01*
X266427Y236857D01*
X266325Y237005D01*
X262931Y240399D01*
X262928Y240400D01*
X262927Y240402D01*
X262846Y240455D01*
X262764Y240510D01*
X262761Y240510D01*
X262759Y240511D01*
X262663Y240529D01*
X262567Y240547D01*
X262564Y240547D01*
X262562Y240547D01*
X262465Y240526D01*
X262371Y240506D01*
X262369Y240504D01*
X262366Y240503D01*
X262286Y240447D01*
X262206Y240391D01*
X262205Y240389D01*
X262203Y240387D01*
X262151Y240305D01*
X262099Y240222D01*
X262098Y240219D01*
X262097Y240217D01*
X262065Y240040D01*
X262065Y239328D01*
X261172Y238435D01*
X251908Y238435D01*
X251015Y239328D01*
X251015Y248592D01*
X251908Y249485D01*
X261172Y249485D01*
X262065Y248592D01*
X262065Y247770D01*
X262066Y247765D01*
X262065Y247760D01*
X262086Y247667D01*
X262104Y247573D01*
X262107Y247569D01*
X262108Y247564D01*
X262164Y247486D01*
X262217Y247408D01*
X262221Y247405D01*
X262224Y247401D01*
X262306Y247350D01*
X262385Y247298D01*
X262390Y247298D01*
X262395Y247295D01*
X262572Y247263D01*
X265408Y247263D01*
X270995Y241675D01*
X271002Y241671D01*
X271007Y241665D01*
X271085Y241616D01*
X271162Y241564D01*
X271170Y241563D01*
X271177Y241559D01*
X271354Y241527D01*
X273978Y241527D01*
X277087Y238418D01*
X277087Y234022D01*
X273978Y230913D01*
X269582Y230913D01*
G37*
%LPD*%
%LPC*%
G36*
X329289Y332925D02*
X329289Y332925D01*
X324125Y338089D01*
X324125Y345391D01*
X329289Y350555D01*
X336591Y350555D01*
X341755Y345391D01*
X341755Y338089D01*
X336591Y332925D01*
X329289Y332925D01*
G37*
%LPD*%
%LPC*%
G36*
X329289Y312925D02*
X329289Y312925D01*
X324125Y318089D01*
X324125Y325391D01*
X329289Y330555D01*
X336591Y330555D01*
X341755Y325391D01*
X341755Y318089D01*
X336591Y312925D01*
X329289Y312925D01*
G37*
%LPD*%
D10*
X421655Y356611D03*
X421655Y339611D03*
D11*
X394580Y468630D03*
X377580Y468630D03*
D10*
X408777Y370737D03*
X408777Y387737D03*
D12*
X314237Y459272D02*
X303237Y459272D01*
X303237Y464272D01*
X314237Y464272D01*
X314237Y459272D01*
X314237Y464022D02*
X303237Y464022D01*
X303301Y489672D02*
X314301Y489672D01*
X314301Y484672D01*
X303301Y484672D01*
X303301Y489672D01*
X303301Y489422D02*
X314301Y489422D01*
X469099Y358576D02*
X480099Y358576D01*
X480099Y353576D01*
X469099Y353576D01*
X469099Y358576D01*
X469099Y358326D02*
X480099Y358326D01*
X445779Y455052D02*
X434779Y455052D01*
X445779Y455052D02*
X445779Y450052D01*
X434779Y450052D01*
X434779Y455052D01*
X434779Y454802D02*
X445779Y454802D01*
D13*
X428802Y489302D03*
X511402Y346202D03*
X428802Y203102D03*
X263602Y203102D03*
X181002Y346202D03*
X263602Y489302D03*
X470102Y417702D03*
X470102Y274702D03*
X222302Y274702D03*
X222302Y417702D03*
X346202Y489302D03*
D10*
X416560Y242080D03*
X416560Y259080D03*
D14*
X295250Y438150D03*
X276250Y438150D03*
D15*
X435610Y243960D03*
X435610Y258960D03*
X256540Y258960D03*
X256540Y243960D03*
D10*
X408940Y412823D03*
X408940Y429823D03*
D16*
X270520Y410845D03*
X303520Y410845D03*
D17*
X471805Y318770D03*
D18*
X446405Y318770D03*
D19*
X321056Y433324D03*
X321056Y410210D03*
X321056Y387096D03*
D20*
X385064Y410210D03*
D21*
X357940Y341740D03*
X332940Y341740D03*
X332940Y321740D03*
X357940Y321740D03*
D22*
X285240Y294640D03*
X405640Y294640D03*
D11*
X283600Y373380D03*
X300600Y373380D03*
D15*
X256540Y401200D03*
X256540Y386200D03*
D23*
X396800Y469959D02*
X406650Y479810D01*
X396800Y469959D02*
X394580Y468630D01*
D24*
X406650Y479810D03*
D23*
X408777Y370737D02*
X401678Y370736D01*
D25*
X353822Y409702D02*
X353822Y410210D01*
D24*
X353822Y409702D03*
X363220Y427990D03*
X344170Y427990D03*
X363220Y392430D03*
X344170Y392430D03*
D23*
X392430Y379984D02*
X401678Y370736D01*
X392430Y379984D02*
X392430Y382270D01*
D24*
X266997Y374353D03*
D23*
X303520Y410845D02*
X320421Y410845D01*
X321056Y410210D01*
X293395Y410845D02*
X276250Y427990D01*
X276250Y438150D01*
X293395Y410845D02*
X303520Y410845D01*
X256540Y386200D02*
X256540Y383660D01*
X265847Y374353D02*
X266997Y374353D01*
X265847Y374353D02*
X256540Y383660D01*
X420885Y229870D02*
X435610Y243960D01*
D26*
X420885Y229870D02*
X417195Y229870D01*
D24*
X417195Y229870D03*
X368129Y284480D03*
X267018Y385445D03*
X254318Y461010D03*
X406400Y468630D03*
X309670Y451358D03*
X222885Y307340D03*
D23*
X222885Y286385D01*
D25*
X222302Y285802D02*
X222302Y274702D01*
X222302Y285802D02*
X222885Y286385D01*
D24*
X316230Y220980D03*
D23*
X213360Y351155D02*
X217170Y354965D01*
X242570Y354965D01*
D24*
X242570Y354965D03*
D23*
X316230Y224790D02*
X316230Y220980D01*
X316230Y224790D02*
X255877Y285143D01*
X255877Y300633D01*
X213360Y343150D01*
X213360Y351155D01*
D24*
X378460Y261620D03*
X231775Y346710D03*
D23*
X262255Y314960D02*
X294506Y314960D01*
X262255Y314960D02*
X231775Y345440D01*
X231775Y346710D01*
X377345Y260505D02*
X378460Y261620D01*
X377345Y260505D02*
X348961Y260505D01*
X294506Y314960D01*
X410210Y347190D02*
X419631Y356611D01*
X421655Y356611D01*
D24*
X410210Y347190D03*
X327025Y468630D03*
D23*
X346202Y487807D02*
X346202Y489302D01*
X346202Y487807D02*
X327025Y468630D01*
D24*
X366142Y461645D03*
D23*
X389421Y458145D02*
X405610Y458145D01*
X389421Y458145D02*
X377580Y468630D01*
X429260Y434495D02*
X429260Y384493D01*
X429260Y434495D02*
X405610Y458145D01*
X468789Y344964D02*
X473869Y344964D01*
X468789Y344964D02*
X429260Y384493D01*
X474599Y356076D02*
X474599Y345694D01*
X473869Y344964D01*
D24*
X473869Y344964D03*
D23*
X366142Y461645D02*
X373127Y468630D01*
X377580Y468630D01*
D24*
X440690Y438785D03*
D23*
X440279Y439197D01*
X440279Y452552D01*
D24*
X405356Y398205D03*
D23*
X405356Y391159D01*
X408777Y387737D01*
D24*
X470853Y387985D03*
D23*
X470853Y416952D02*
X470102Y417702D01*
X470853Y416952D02*
X470853Y387985D01*
D24*
X370050Y349250D03*
D23*
X397665Y321945D01*
D26*
X469017Y274702D02*
X470102Y274702D01*
D23*
X469017Y274702D02*
X421774Y321945D01*
X397665Y321945D01*
D24*
X345440Y308130D03*
X442595Y290830D03*
D23*
X418465Y314960D01*
X368679Y314960D02*
X362327Y308608D01*
X345918Y308608D02*
X345440Y308130D01*
X345918Y308608D02*
X362327Y308608D01*
X368679Y314960D02*
X418465Y314960D01*
D24*
X395831Y365125D03*
D23*
X224691Y362049D02*
X206149Y380591D01*
D25*
X222302Y408940D02*
X222302Y417702D01*
D23*
X249314Y362049D02*
X254493Y356870D01*
X249314Y362049D02*
X224691Y362049D01*
X206149Y392787D02*
X222302Y408940D01*
X206149Y392787D02*
X206149Y380591D01*
X254493Y356870D02*
X355600Y356870D01*
X363220Y364490D01*
X395831Y364490D01*
X395831Y365125D01*
D24*
X385691Y375900D03*
D23*
X213995Y382905D02*
X213995Y387985D01*
D24*
X213995Y387985D03*
D23*
X213995Y382905D02*
X228600Y368300D01*
X252320Y368300D02*
X257421Y363200D01*
X252320Y368300D02*
X228600Y368300D01*
X257421Y363200D02*
X351770Y363200D01*
X384441Y374650D02*
X385691Y375900D01*
X384441Y374650D02*
X363220Y374650D01*
X351770Y363200D01*
X308737Y461645D02*
X308737Y461772D01*
X308737Y461645D02*
X294640Y461645D01*
D24*
X294640Y461645D03*
X301625Y477520D03*
D23*
X301625Y479997D01*
X308801Y487172D01*
D24*
X360680Y273050D03*
D23*
X401066Y274574D02*
X416560Y259080D01*
X362204Y274574D02*
X360680Y273050D01*
X362204Y274574D02*
X401066Y274574D01*
X418095Y242080D02*
X435610Y258960D01*
D26*
X418095Y242080D02*
X416560Y242080D01*
D23*
X264040Y243960D02*
X256540Y243960D01*
X264040Y243960D02*
X271780Y236220D01*
D24*
X271780Y236220D03*
X326390Y220980D03*
X220980Y346710D03*
D23*
X326390Y224289D02*
X326390Y220980D01*
X326390Y224289D02*
X262255Y288424D01*
X262255Y304800D02*
X220980Y346075D01*
X220980Y346710D01*
X262255Y304800D02*
X262255Y288424D01*
D24*
X388620Y261620D03*
D23*
X389255Y260985D01*
X389255Y254000D01*
X348135Y212880D01*
X249400Y297469D02*
X205740Y341129D01*
X205740Y346710D01*
D24*
X205740Y346710D03*
D23*
X308038Y222948D02*
X308038Y217742D01*
X308038Y222948D02*
X249400Y281586D01*
X312900Y212880D02*
X348135Y212880D01*
X312900Y212880D02*
X308038Y217742D01*
X249400Y281586D02*
X249400Y297469D01*
X471805Y318770D02*
X471805Y333039D01*
X422659Y382185D01*
X422659Y399810D02*
X409647Y412823D01*
X408940Y412823D01*
X422659Y399810D02*
X422659Y382185D01*
X408940Y429823D02*
X408940Y434340D01*
X398780Y444500D01*
X321056Y439166D02*
X321056Y433324D01*
X326390Y444500D02*
X398780Y444500D01*
X326390Y444500D02*
X321056Y439166D01*
X300990Y438150D02*
X295250Y438150D01*
X300990Y438150D02*
X306070Y433070D01*
X320802Y433070D01*
X321056Y433324D01*
X265211Y392529D02*
X256540Y401200D01*
X265211Y392529D02*
X271222Y392529D01*
X283600Y380151D02*
X283600Y373380D01*
X283600Y380151D02*
X271222Y392529D01*
D24*
X344170Y370840D03*
D23*
X341728Y368398D01*
X305582Y368398D01*
X300600Y373380D01*
M02*
