G04 EAGLE Gerber RS-274X export*
G75*
%MOMM*%
%FSLAX34Y34*%
%LPD*%
%INSolderpaste Bottom*%
%IPPOS*%
%AMOC8*
5,1,8,0,0,1.08239X$1,22.5*%
G01*
%ADD10R,1.000000X1.100000*%
%ADD11R,1.500000X1.300000*%
%ADD12C,0.124994*%
%ADD13R,5.699988X5.699988*%
%ADD14R,1.399997X0.400000*%
%ADD15R,1.100000X1.000000*%
%ADD16C,0.262500*%
%ADD17R,2.150000X2.150000*%


D10*
X449580Y389500D03*
X449580Y372500D03*
D11*
X429260Y370230D03*
X429260Y389230D03*
D12*
X377827Y442927D02*
X377827Y444177D01*
X383577Y444177D01*
X383577Y442927D01*
X377827Y442927D01*
X377827Y444114D02*
X383577Y444114D01*
X377827Y439177D02*
X377827Y437927D01*
X377827Y439177D02*
X383577Y439177D01*
X383577Y437927D01*
X377827Y437927D01*
X377827Y439114D02*
X383577Y439114D01*
X377827Y434177D02*
X377827Y432927D01*
X377827Y434177D02*
X383577Y434177D01*
X383577Y432927D01*
X377827Y432927D01*
X377827Y434114D02*
X383577Y434114D01*
X377827Y429177D02*
X377827Y427927D01*
X377827Y429177D02*
X383577Y429177D01*
X383577Y427927D01*
X377827Y427927D01*
X377827Y429114D02*
X383577Y429114D01*
X377827Y424177D02*
X377827Y422927D01*
X377827Y424177D02*
X383577Y424177D01*
X383577Y422927D01*
X377827Y422927D01*
X377827Y424114D02*
X383577Y424114D01*
X377827Y419177D02*
X377827Y417927D01*
X377827Y419177D02*
X383577Y419177D01*
X383577Y417927D01*
X377827Y417927D01*
X377827Y419114D02*
X383577Y419114D01*
X377827Y414177D02*
X377827Y412927D01*
X377827Y414177D02*
X383577Y414177D01*
X383577Y412927D01*
X377827Y412927D01*
X377827Y414114D02*
X383577Y414114D01*
X377827Y409177D02*
X377827Y407927D01*
X377827Y409177D02*
X383577Y409177D01*
X383577Y407927D01*
X377827Y407927D01*
X377827Y409114D02*
X383577Y409114D01*
X377827Y404177D02*
X377827Y402927D01*
X377827Y404177D02*
X383577Y404177D01*
X383577Y402927D01*
X377827Y402927D01*
X377827Y404114D02*
X383577Y404114D01*
X377827Y399177D02*
X377827Y397927D01*
X377827Y399177D02*
X383577Y399177D01*
X383577Y397927D01*
X377827Y397927D01*
X377827Y399114D02*
X383577Y399114D01*
X377827Y394177D02*
X377827Y392927D01*
X377827Y394177D02*
X383577Y394177D01*
X383577Y392927D01*
X377827Y392927D01*
X377827Y394114D02*
X383577Y394114D01*
X377827Y389177D02*
X377827Y387927D01*
X377827Y389177D02*
X383577Y389177D01*
X383577Y387927D01*
X377827Y387927D01*
X377827Y389114D02*
X383577Y389114D01*
X374327Y384427D02*
X373077Y384427D01*
X374327Y384427D02*
X374327Y378677D01*
X373077Y378677D01*
X373077Y384427D01*
X373077Y379864D02*
X374327Y379864D01*
X374327Y381051D02*
X373077Y381051D01*
X373077Y382238D02*
X374327Y382238D01*
X374327Y383425D02*
X373077Y383425D01*
X369327Y384427D02*
X368077Y384427D01*
X369327Y384427D02*
X369327Y378677D01*
X368077Y378677D01*
X368077Y384427D01*
X368077Y379864D02*
X369327Y379864D01*
X369327Y381051D02*
X368077Y381051D01*
X368077Y382238D02*
X369327Y382238D01*
X369327Y383425D02*
X368077Y383425D01*
X364327Y384427D02*
X363077Y384427D01*
X364327Y384427D02*
X364327Y378677D01*
X363077Y378677D01*
X363077Y384427D01*
X363077Y379864D02*
X364327Y379864D01*
X364327Y381051D02*
X363077Y381051D01*
X363077Y382238D02*
X364327Y382238D01*
X364327Y383425D02*
X363077Y383425D01*
X359327Y384427D02*
X358077Y384427D01*
X359327Y384427D02*
X359327Y378677D01*
X358077Y378677D01*
X358077Y384427D01*
X358077Y379864D02*
X359327Y379864D01*
X359327Y381051D02*
X358077Y381051D01*
X358077Y382238D02*
X359327Y382238D01*
X359327Y383425D02*
X358077Y383425D01*
X354327Y384427D02*
X353077Y384427D01*
X354327Y384427D02*
X354327Y378677D01*
X353077Y378677D01*
X353077Y384427D01*
X353077Y379864D02*
X354327Y379864D01*
X354327Y381051D02*
X353077Y381051D01*
X353077Y382238D02*
X354327Y382238D01*
X354327Y383425D02*
X353077Y383425D01*
X349327Y384427D02*
X348077Y384427D01*
X349327Y384427D02*
X349327Y378677D01*
X348077Y378677D01*
X348077Y384427D01*
X348077Y379864D02*
X349327Y379864D01*
X349327Y381051D02*
X348077Y381051D01*
X348077Y382238D02*
X349327Y382238D01*
X349327Y383425D02*
X348077Y383425D01*
X344327Y384427D02*
X343077Y384427D01*
X344327Y384427D02*
X344327Y378677D01*
X343077Y378677D01*
X343077Y384427D01*
X343077Y379864D02*
X344327Y379864D01*
X344327Y381051D02*
X343077Y381051D01*
X343077Y382238D02*
X344327Y382238D01*
X344327Y383425D02*
X343077Y383425D01*
X339327Y384427D02*
X338077Y384427D01*
X339327Y384427D02*
X339327Y378677D01*
X338077Y378677D01*
X338077Y384427D01*
X338077Y379864D02*
X339327Y379864D01*
X339327Y381051D02*
X338077Y381051D01*
X338077Y382238D02*
X339327Y382238D01*
X339327Y383425D02*
X338077Y383425D01*
X334327Y384427D02*
X333077Y384427D01*
X334327Y384427D02*
X334327Y378677D01*
X333077Y378677D01*
X333077Y384427D01*
X333077Y379864D02*
X334327Y379864D01*
X334327Y381051D02*
X333077Y381051D01*
X333077Y382238D02*
X334327Y382238D01*
X334327Y383425D02*
X333077Y383425D01*
X329327Y384427D02*
X328077Y384427D01*
X329327Y384427D02*
X329327Y378677D01*
X328077Y378677D01*
X328077Y384427D01*
X328077Y379864D02*
X329327Y379864D01*
X329327Y381051D02*
X328077Y381051D01*
X328077Y382238D02*
X329327Y382238D01*
X329327Y383425D02*
X328077Y383425D01*
X324327Y384427D02*
X323077Y384427D01*
X324327Y384427D02*
X324327Y378677D01*
X323077Y378677D01*
X323077Y384427D01*
X323077Y379864D02*
X324327Y379864D01*
X324327Y381051D02*
X323077Y381051D01*
X323077Y382238D02*
X324327Y382238D01*
X324327Y383425D02*
X323077Y383425D01*
X319327Y384427D02*
X318077Y384427D01*
X319327Y384427D02*
X319327Y378677D01*
X318077Y378677D01*
X318077Y384427D01*
X318077Y379864D02*
X319327Y379864D01*
X319327Y381051D02*
X318077Y381051D01*
X318077Y382238D02*
X319327Y382238D01*
X319327Y383425D02*
X318077Y383425D01*
X314577Y387927D02*
X314577Y389177D01*
X314577Y387927D02*
X308827Y387927D01*
X308827Y389177D01*
X314577Y389177D01*
X314577Y389114D02*
X308827Y389114D01*
X314577Y392927D02*
X314577Y394177D01*
X314577Y392927D02*
X308827Y392927D01*
X308827Y394177D01*
X314577Y394177D01*
X314577Y394114D02*
X308827Y394114D01*
X314577Y397927D02*
X314577Y399177D01*
X314577Y397927D02*
X308827Y397927D01*
X308827Y399177D01*
X314577Y399177D01*
X314577Y399114D02*
X308827Y399114D01*
X314577Y402927D02*
X314577Y404177D01*
X314577Y402927D02*
X308827Y402927D01*
X308827Y404177D01*
X314577Y404177D01*
X314577Y404114D02*
X308827Y404114D01*
X314577Y407927D02*
X314577Y409177D01*
X314577Y407927D02*
X308827Y407927D01*
X308827Y409177D01*
X314577Y409177D01*
X314577Y409114D02*
X308827Y409114D01*
X314577Y412927D02*
X314577Y414177D01*
X314577Y412927D02*
X308827Y412927D01*
X308827Y414177D01*
X314577Y414177D01*
X314577Y414114D02*
X308827Y414114D01*
X314577Y417927D02*
X314577Y419177D01*
X314577Y417927D02*
X308827Y417927D01*
X308827Y419177D01*
X314577Y419177D01*
X314577Y419114D02*
X308827Y419114D01*
X314577Y422927D02*
X314577Y424177D01*
X314577Y422927D02*
X308827Y422927D01*
X308827Y424177D01*
X314577Y424177D01*
X314577Y424114D02*
X308827Y424114D01*
X314577Y427927D02*
X314577Y429177D01*
X314577Y427927D02*
X308827Y427927D01*
X308827Y429177D01*
X314577Y429177D01*
X314577Y429114D02*
X308827Y429114D01*
X314577Y432927D02*
X314577Y434177D01*
X314577Y432927D02*
X308827Y432927D01*
X308827Y434177D01*
X314577Y434177D01*
X314577Y434114D02*
X308827Y434114D01*
X314577Y437927D02*
X314577Y439177D01*
X314577Y437927D02*
X308827Y437927D01*
X308827Y439177D01*
X314577Y439177D01*
X314577Y439114D02*
X308827Y439114D01*
X314577Y442927D02*
X314577Y444177D01*
X314577Y442927D02*
X308827Y442927D01*
X308827Y444177D01*
X314577Y444177D01*
X314577Y444114D02*
X308827Y444114D01*
X318077Y447677D02*
X319327Y447677D01*
X318077Y447677D02*
X318077Y453427D01*
X319327Y453427D01*
X319327Y447677D01*
X319327Y448864D02*
X318077Y448864D01*
X318077Y450051D02*
X319327Y450051D01*
X319327Y451238D02*
X318077Y451238D01*
X318077Y452425D02*
X319327Y452425D01*
X323077Y447677D02*
X324327Y447677D01*
X323077Y447677D02*
X323077Y453427D01*
X324327Y453427D01*
X324327Y447677D01*
X324327Y448864D02*
X323077Y448864D01*
X323077Y450051D02*
X324327Y450051D01*
X324327Y451238D02*
X323077Y451238D01*
X323077Y452425D02*
X324327Y452425D01*
X328077Y447677D02*
X329327Y447677D01*
X328077Y447677D02*
X328077Y453427D01*
X329327Y453427D01*
X329327Y447677D01*
X329327Y448864D02*
X328077Y448864D01*
X328077Y450051D02*
X329327Y450051D01*
X329327Y451238D02*
X328077Y451238D01*
X328077Y452425D02*
X329327Y452425D01*
X333077Y447677D02*
X334327Y447677D01*
X333077Y447677D02*
X333077Y453427D01*
X334327Y453427D01*
X334327Y447677D01*
X334327Y448864D02*
X333077Y448864D01*
X333077Y450051D02*
X334327Y450051D01*
X334327Y451238D02*
X333077Y451238D01*
X333077Y452425D02*
X334327Y452425D01*
X338077Y447677D02*
X339327Y447677D01*
X338077Y447677D02*
X338077Y453427D01*
X339327Y453427D01*
X339327Y447677D01*
X339327Y448864D02*
X338077Y448864D01*
X338077Y450051D02*
X339327Y450051D01*
X339327Y451238D02*
X338077Y451238D01*
X338077Y452425D02*
X339327Y452425D01*
X343077Y447677D02*
X344327Y447677D01*
X343077Y447677D02*
X343077Y453427D01*
X344327Y453427D01*
X344327Y447677D01*
X344327Y448864D02*
X343077Y448864D01*
X343077Y450051D02*
X344327Y450051D01*
X344327Y451238D02*
X343077Y451238D01*
X343077Y452425D02*
X344327Y452425D01*
X348077Y447677D02*
X349327Y447677D01*
X348077Y447677D02*
X348077Y453427D01*
X349327Y453427D01*
X349327Y447677D01*
X349327Y448864D02*
X348077Y448864D01*
X348077Y450051D02*
X349327Y450051D01*
X349327Y451238D02*
X348077Y451238D01*
X348077Y452425D02*
X349327Y452425D01*
X353077Y447677D02*
X354327Y447677D01*
X353077Y447677D02*
X353077Y453427D01*
X354327Y453427D01*
X354327Y447677D01*
X354327Y448864D02*
X353077Y448864D01*
X353077Y450051D02*
X354327Y450051D01*
X354327Y451238D02*
X353077Y451238D01*
X353077Y452425D02*
X354327Y452425D01*
X358077Y447677D02*
X359327Y447677D01*
X358077Y447677D02*
X358077Y453427D01*
X359327Y453427D01*
X359327Y447677D01*
X359327Y448864D02*
X358077Y448864D01*
X358077Y450051D02*
X359327Y450051D01*
X359327Y451238D02*
X358077Y451238D01*
X358077Y452425D02*
X359327Y452425D01*
X363077Y447677D02*
X364327Y447677D01*
X363077Y447677D02*
X363077Y453427D01*
X364327Y453427D01*
X364327Y447677D01*
X364327Y448864D02*
X363077Y448864D01*
X363077Y450051D02*
X364327Y450051D01*
X364327Y451238D02*
X363077Y451238D01*
X363077Y452425D02*
X364327Y452425D01*
X368077Y447677D02*
X369327Y447677D01*
X368077Y447677D02*
X368077Y453427D01*
X369327Y453427D01*
X369327Y447677D01*
X369327Y448864D02*
X368077Y448864D01*
X368077Y450051D02*
X369327Y450051D01*
X369327Y451238D02*
X368077Y451238D01*
X368077Y452425D02*
X369327Y452425D01*
X373077Y447677D02*
X374327Y447677D01*
X373077Y447677D02*
X373077Y453427D01*
X374327Y453427D01*
X374327Y447677D01*
X374327Y448864D02*
X373077Y448864D01*
X373077Y450051D02*
X374327Y450051D01*
X374327Y451238D02*
X373077Y451238D01*
X373077Y452425D02*
X374327Y452425D01*
D13*
X346202Y416052D03*
D14*
X417670Y432860D03*
X417670Y420860D03*
X417670Y408860D03*
D11*
X253812Y443068D03*
X253812Y424068D03*
D10*
X408940Y372500D03*
X408940Y389500D03*
D15*
X270664Y437647D03*
X287664Y437647D03*
D10*
X284870Y236220D03*
X301870Y236220D03*
X301870Y256540D03*
X284870Y256540D03*
X289560Y341240D03*
X289560Y324240D03*
D15*
X380048Y340850D03*
X380048Y323850D03*
D10*
X394970Y450460D03*
X394970Y433460D03*
X299720Y390770D03*
X299720Y373770D03*
D15*
X394580Y468630D03*
X377580Y468630D03*
D10*
X334963Y284870D03*
X334963Y301870D03*
X356553Y284870D03*
X356553Y301870D03*
X377190Y225670D03*
X377190Y208670D03*
D11*
X279400Y389230D03*
X279400Y370230D03*
X397510Y226670D03*
X397510Y207670D03*
D10*
X268288Y341240D03*
X268288Y324240D03*
X425060Y257810D03*
X408060Y257810D03*
D15*
X311150Y324240D03*
X311150Y341240D03*
D16*
X353723Y229068D02*
X353723Y223692D01*
X352847Y223692D01*
X352847Y229068D01*
X353723Y229068D01*
X353723Y226186D02*
X352847Y226186D01*
X352847Y228680D02*
X353723Y228680D01*
X347223Y229068D02*
X347223Y223692D01*
X346347Y223692D01*
X346347Y229068D01*
X347223Y229068D01*
X347223Y226186D02*
X346347Y226186D01*
X346347Y228680D02*
X347223Y228680D01*
X340723Y229068D02*
X340723Y223692D01*
X339847Y223692D01*
X339847Y229068D01*
X340723Y229068D01*
X340723Y226186D02*
X339847Y226186D01*
X339847Y228680D02*
X340723Y228680D01*
X334223Y229068D02*
X334223Y223692D01*
X333347Y223692D01*
X333347Y229068D01*
X334223Y229068D01*
X334223Y226186D02*
X333347Y226186D01*
X333347Y228680D02*
X334223Y228680D01*
X326223Y236192D02*
X320847Y236192D01*
X320847Y237068D01*
X326223Y237068D01*
X326223Y236192D01*
X326223Y242692D02*
X320847Y242692D01*
X320847Y243568D01*
X326223Y243568D01*
X326223Y242692D01*
X326223Y249192D02*
X320847Y249192D01*
X320847Y250068D01*
X326223Y250068D01*
X326223Y249192D01*
X326223Y255692D02*
X320847Y255692D01*
X320847Y256568D01*
X326223Y256568D01*
X326223Y255692D01*
X333347Y263692D02*
X333347Y269068D01*
X334223Y269068D01*
X334223Y263692D01*
X333347Y263692D01*
X333347Y266186D02*
X334223Y266186D01*
X334223Y268680D02*
X333347Y268680D01*
X339847Y269068D02*
X339847Y263692D01*
X339847Y269068D02*
X340723Y269068D01*
X340723Y263692D01*
X339847Y263692D01*
X339847Y266186D02*
X340723Y266186D01*
X340723Y268680D02*
X339847Y268680D01*
X346347Y269068D02*
X346347Y263692D01*
X346347Y269068D02*
X347223Y269068D01*
X347223Y263692D01*
X346347Y263692D01*
X346347Y266186D02*
X347223Y266186D01*
X347223Y268680D02*
X346347Y268680D01*
X352847Y269068D02*
X352847Y263692D01*
X352847Y269068D02*
X353723Y269068D01*
X353723Y263692D01*
X352847Y263692D01*
X352847Y266186D02*
X353723Y266186D01*
X353723Y268680D02*
X352847Y268680D01*
X360847Y256568D02*
X366223Y256568D01*
X366223Y255692D01*
X360847Y255692D01*
X360847Y256568D01*
X360847Y250068D02*
X366223Y250068D01*
X366223Y249192D01*
X360847Y249192D01*
X360847Y250068D01*
X360847Y243568D02*
X366223Y243568D01*
X366223Y242692D01*
X360847Y242692D01*
X360847Y243568D01*
X360847Y237068D02*
X366223Y237068D01*
X366223Y236192D01*
X360847Y236192D01*
X360847Y237068D01*
D17*
X343535Y246380D03*
M02*
